<svg width="208" height="67" viewBox="0 0 208 67" fill="none" xmlns="http://www.w3.org/2000/svg">
<path d="M22.6966 56.0648L24.6385 53.5537L5.21516 49.2477L5.18384 49.2882L14.2395 67L16.1032 64.5902L14.0308 60.7229L18.4315 55.0325L22.6966 56.0648ZM12.5998 58.031L9.88168 52.9526L15.4658 54.3252L12.5998 58.031Z" fill="#10145B"/>
<path d="M17.5426 35.5491L12.9995 39.9937L25.5876 52.8578L27.8309 50.6632L22.6083 45.3262L24.9081 43.0763C27.1325 40.9001 27.3755 37.5286 25.2504 35.3569C23.1434 33.2037 19.767 33.373 17.5426 35.5491ZM22.8706 41.1072L20.6274 43.3018L17.2417 39.8419L19.485 37.6473C20.5218 36.633 22.0167 36.5393 23.0072 37.5515C24.0157 38.5821 23.9074 40.0929 22.8706 41.1072Z" fill="#10145B"/>
<path d="M42.7642 38.9488C47.0454 35.8967 48.0648 30.0204 44.9841 25.7003C41.9035 21.3802 36.0152 20.4287 31.734 23.4808C27.4529 26.533 26.4335 32.4093 29.5141 36.7294C32.5948 41.0494 38.4831 42.001 42.7642 38.9488ZM41.0511 36.5464C38.0936 38.6549 34.1656 37.9588 32.0166 34.9452C29.8677 31.9317 30.4897 27.9917 33.4472 25.8832C36.4047 23.7747 40.3327 24.4709 42.4816 27.4844C44.6306 30.4979 44.0086 34.4379 41.0511 36.5464Z" fill="#10145B"/>
<path d="M59.3764 7.87286L55.1204 18.783L44.0445 14.9761L43.9982 14.9976L51.5654 31.327L54.3214 30.0502L49.5538 19.7619L56.7623 22.3259L59.4767 15.1922L64.2339 25.4578L66.9899 24.1809L59.4227 7.8514L59.3764 7.87286Z" fill="#10145B"/>
<path d="M81.1163 20.6653L84.1764 19.8201L71.2151 4.72897L71.1657 4.74261L67.7902 24.3463L70.7269 23.5351L71.3878 19.1976L78.3223 17.2822L81.1163 20.6653ZM71.857 16.1855L72.7276 10.4917L76.3731 14.9381L71.857 16.1855Z" fill="#10145B"/>
<path d="M89.9492 19.2344L92.9043 18.8438L90.9269 3.88622L94.9745 3.35125L95.8845 0.296265L82.9966 1.99963L83.3779 4.88395L87.9718 4.27678L89.9492 19.2344Z" fill="#10145B"/>
<path d="M113.944 0.152371L102.872 12.0046L102.997 0.571191L99.99 0.538342L99.7884 18.9958L99.8389 18.9964L110.912 7.11854L110.786 18.5776L113.793 18.6104L113.995 0.152923L113.944 0.152371Z" fill="#10145B"/>
<path d="M125.903 10.9174C127.341 10.3162 128.377 9.10187 128.629 7.48981C129.064 4.70534 127.033 2.41147 123.923 1.92576C121.494 1.5463 119.27 2.39996 117.779 4.29396L119.987 6.09008C120.943 4.91318 122.091 4.41687 123.378 4.61798C124.933 4.86084 125.906 5.96355 125.7 7.2825C125.497 8.57704 124.341 9.44732 122.81 9.20826L121.45 8.99576L121.03 11.6825L122.488 11.9102C124.213 12.1796 125.223 13.3632 124.99 14.8531C124.749 16.3919 123.342 17.2731 121.569 16.9961C120.111 16.7684 118.865 15.8232 118.277 14.3301L115.725 15.5329C116.513 17.6576 118.497 19.2937 121.145 19.7073C124.644 20.2537 127.436 18.3128 127.886 15.4306C128.172 13.5987 127.381 11.9738 125.903 10.9174Z" fill="#10145B"/>
<path d="M142.015 24.2285L145.054 25.1476L142.155 5.4679L142.106 5.45307L128.782 20.2257L131.699 21.1078L134.574 17.7933L141.46 19.8762L142.015 24.2285ZM136.579 15.4971L140.356 11.1478L141.064 16.8536L136.579 15.4971Z" fill="#10145B"/>
<path d="M148.686 28.2858L151.394 29.5307L157.697 15.822L161.406 17.5272L163.805 15.4277L151.994 9.99841L150.778 12.6419L154.989 14.5772L148.686 28.2858Z" fill="#10145B"/>
<path d="M165.342 37.071C169.714 39.9906 175.571 38.8592 178.518 34.4469C181.465 30.0345 180.266 24.1922 175.893 21.2726C171.521 18.3529 165.664 19.4843 162.717 23.8966C159.77 28.309 160.969 34.1513 165.342 37.071ZM166.981 34.6173C163.96 32.6003 163.218 28.6812 165.273 25.6033C167.329 22.5254 171.234 21.7093 174.254 23.7263C177.275 25.7432 178.017 29.6623 175.962 32.7402C173.906 35.8181 170.001 36.6342 166.981 34.6173Z" fill="#10145B"/>
<path d="M191.674 35.2932L186.992 30.995L174.818 44.2518L177.13 46.3742L182.181 40.8742L184.551 43.0501C186.843 45.1546 190.223 45.2168 192.278 42.9788C194.316 40.7599 193.966 37.3977 191.674 35.2932ZM186.408 40.9104L184.097 38.788L187.371 35.2225L189.682 37.3449C190.751 38.3258 190.924 39.8134 189.967 40.8565C188.991 41.9186 187.477 41.8913 186.408 40.9104Z" fill="#10145B"/>
<path d="M196.074 51.1679L194.21 48.8436L199.856 44.3176L197.992 41.9933L183.949 53.2517L187.676 57.9004C189.587 60.2834 192.91 60.7641 195.321 58.8313C197.752 56.8824 197.985 53.5509 196.074 51.1679ZM206.136 52.1502L192.093 63.4086L193.957 65.7329L208 54.4745L206.136 52.1502ZM189.895 56.0574L188.063 53.7721L191.98 50.6314L193.813 52.9167C194.721 54.0495 194.622 55.5728 193.457 56.5069C192.292 57.4411 190.804 57.1903 189.895 56.0574Z" fill="#10145B"/>
</svg>
