<svg width="127" height="37" viewBox="0 0 127 37" fill="none" xmlns="http://www.w3.org/2000/svg">
<path d="M10.6216 11.2125L13.5327 9.91895L21.0072 26.7743L18.0961 28.0678L14.9489 20.9337L7.1991 24.344L10.3462 31.4781L7.47447 32.7324L0 15.8771L2.87177 14.6228L5.97958 21.6001L13.7294 18.1898L10.6216 11.2125Z" fill="#10145B"/>
<path d="M32.2843 3.53794L24.885 18.9081L21.2552 7.52328L18.1771 8.47124L24.0369 26.8503L24.0886 26.8344L31.4798 11.4387L35.1178 22.849L38.1959 21.9011L32.336 3.522L32.2843 3.53794Z" fill="#10145B"/>
<path d="M54.7918 19.1213L50.7862 19.6498L42.1722 11.9973L43.2524 20.6196L40.1209 21.0078L37.832 2.73486L40.9634 2.34664L41.9938 10.5342L48.1815 1.39587L52.0671 0.898943L45.2822 10.7445L54.7918 19.1213Z" fill="#10145B"/>
<path d="M58.0237 18.9968C56.5319 18.0552 55.3392 16.8103 54.5222 15.3074C53.6708 13.7217 53.3036 12.0461 53.3438 10.2353C53.4237 8.42712 53.8924 6.76467 54.869 5.25559C55.8032 3.7841 57.076 2.61634 58.645 1.78989C60.214 0.963438 61.9125 0.588527 63.7034 0.62249C65.5314 0.699117 67.1741 1.16685 68.6658 2.10849C70.1576 3.05012 71.3503 4.29499 72.1647 5.83803C73.0187 7.38361 73.3859 9.05923 73.3457 10.87C73.2658 12.6782 72.7971 14.3406 71.8232 15.8096C70.8889 17.2811 69.6161 18.4488 68.0472 19.2753C66.4782 20.1017 64.7797 20.4767 62.9887 20.4427C61.1978 20.4087 59.5181 19.8983 58.0237 18.9968ZM66.5903 16.6032C67.6248 16.0246 68.4742 15.2327 69.1412 14.1874C69.7685 13.1395 70.1206 12.0338 70.166 10.7472C70.2086 9.50074 69.9683 8.31678 69.3998 7.27302C68.8313 6.22926 68.0512 5.37344 67.0593 4.70556C66.0251 4.07526 64.9327 3.72331 63.6602 3.68222C62.4275 3.64366 61.2555 3.89107 60.2209 4.46963C59.1864 5.04819 58.337 5.84008 57.67 6.88541C57.0428 7.93328 56.6906 9.03904 56.6453 10.3256C56.6026 11.5721 56.843 12.756 57.4114 13.7998C57.9772 14.8837 58.7601 15.6994 59.7519 16.3672C60.7861 16.9975 61.8785 17.3495 63.151 17.3906C64.3838 17.4291 65.5161 17.1792 66.5903 16.6032Z" fill="#10145B"/>
<path d="M80.6511 5.9639L75.8232 5.04779L76.3794 2.00636L89.8897 4.57098L87.9728 7.32293L83.7284 6.52512L80.8002 22.1682L77.6863 21.5641L80.6511 5.9639Z" fill="#10145B"/>
<path d="M108.733 9.58696L108.774 9.58956L102.319 27.6765L99.2494 26.6482L103.253 15.4162L87.8513 23.3838L87.8107 23.3812L94.2653 5.29432L97.3351 6.32258L93.3339 17.5151L108.733 9.58696Z" fill="#10145B"/>
<path d="M123.844 18.9184L126.59 20.4227L117.728 36.5033L114.982 34.999L118.746 28.2056L111.41 24.1802L107.646 30.9736L104.939 29.4717L113.801 13.3912L116.508 14.893L112.83 21.5746L120.163 25.6389L123.844 18.9184Z" fill="#10145B"/>
</svg>
