<svg width="73" height="24" viewBox="0 0 73 24" fill="none" xmlns="http://www.w3.org/2000/svg">
<path d="M14.3302 13.1045C15.0588 13.7032 15.5446 14.5014 15.7875 15.4193C16.0708 16.4171 16.0708 17.3749 15.7875 18.2928C15.5041 19.2108 15.0183 20.0489 14.2897 20.7274C13.561 21.4058 12.6705 21.9247 11.618 22.204L5.10057 24L0 5.88077L6.03162 4.24445C7.04364 3.96508 8.01518 3.92517 8.94624 4.12472C9.87729 4.32427 10.6869 4.72337 11.3751 5.32203C12.0633 5.92068 12.5085 6.67897 12.7919 7.59691C13.0348 8.39511 13.0348 9.1534 12.8729 9.9117C12.7109 10.6301 12.3466 11.3086 11.8204 11.9072C12.7514 12.0668 13.6015 12.466 14.3302 13.1045ZM3.84567 7.87628L5.14105 12.5458L8.01518 11.7476C8.74383 11.548 9.27008 11.1888 9.59393 10.6301C9.91777 10.0713 9.99873 9.43278 9.83681 8.7543C9.63441 8.07583 9.27008 7.557 8.66287 7.27763C8.09614 6.95834 7.40797 6.91843 6.7198 7.11798L3.84567 7.87628ZM12.4276 18.1731C12.8324 17.5345 12.9133 16.8561 12.7109 16.0978C12.5085 15.3794 12.0633 14.8207 11.4156 14.4615C10.7679 14.1023 10.0392 14.0624 9.27008 14.2619L5.91018 15.1798L7.36749 20.3682L10.7274 19.4502C11.456 19.2507 12.0633 18.8117 12.4276 18.1731Z" fill="#10145B"/>
<path d="M22.8658 19.1451C21.236 18.4159 19.9242 17.3625 18.8907 15.9041C17.8571 14.4861 17.2211 12.8656 17.0621 11.0426C16.8634 9.21951 17.1416 7.47747 17.8969 5.89748C18.6124 4.27698 19.7255 2.94006 21.1565 1.92725C22.5876 0.873924 24.2174 0.266235 26.0062 0.0636721C27.8348 -0.138891 29.5441 0.144697 31.1342 0.873924C32.764 1.60315 34.0758 2.65648 35.1093 4.07442C36.1429 5.49236 36.7789 7.11286 36.9379 8.93593C37.1366 10.759 36.8584 12.4605 36.1031 14.081C35.3876 15.7015 34.2745 17.0384 32.8435 18.0513C31.4124 19.1046 29.7826 19.7123 27.9938 19.9148C26.205 20.1579 24.4957 19.8743 22.8658 19.1451ZM31.0149 15.58C31.9689 14.8508 32.7242 13.9595 33.2012 12.8251C33.6783 11.7313 33.877 10.5159 33.7578 9.26003C33.6385 8.00414 33.2012 6.86978 32.5255 5.89748C31.8099 4.92518 30.9354 4.15544 29.8224 3.66929C28.7093 3.18314 27.5565 3.02109 26.3242 3.14263C25.0919 3.26417 23.9789 3.7098 23.0248 4.39852C22.0708 5.12774 21.3155 6.01902 20.8385 7.15337C20.3615 8.24721 20.1627 9.46259 20.282 10.7185C20.4012 11.9744 20.8385 13.1087 21.5143 14.081C22.2298 15.0533 23.1044 15.8231 24.2174 16.3092C25.2907 16.7954 26.4832 16.9979 27.7155 16.8359C28.9478 16.7143 30.0609 16.3092 31.0149 15.58Z" fill="#10145B"/>
<path d="M56 16.8963L55.4388 24L52.3523 23.7592L52.673 19.7057L40.4473 18.7826L40.1266 22.8763L37 22.6355L37.5211 15.5318H37.7215C38.7637 15.612 39.5654 15.2508 40.1667 14.4883C40.7278 13.7258 41.0886 12.5619 41.2089 10.9967L42.0105 0L54.4768 0.923077L53.3143 16.6957L56 16.8963ZM50.1076 16.4548L51.0696 3.73244L44.9768 3.29097L44.4156 11.1171C44.2553 13.3645 43.6139 14.9699 42.4515 15.893L50.1076 16.4548Z" fill="#10145B"/>
<path d="M69.8591 23.1969L69.0739 18.5392L61.8891 16.7323L59.0624 20.4665L56 19.7036L69.0346 3H69.0739L73 24L69.8591 23.1969ZM63.8522 14.1625L68.5635 15.3671L67.582 9.26386L63.8522 14.1625Z" fill="#10145B"/>
</svg>
