<svg width="251" height="114" viewBox="0 0 251 114" fill="none" xmlns="http://www.w3.org/2000/svg">
<path d="M1.15139 102.576L0 108.816L17.6785 112.075L18.247 108.994L10.9126 107.642L11.4954 104.483C12.0592 101.427 10.3175 98.536 7.33316 97.9858C4.37411 97.4402 1.71514 99.5202 1.15139 102.576ZM8.69908 104.047L8.13056 107.129L3.37584 106.252L3.94437 103.171C4.20713 101.747 5.37363 100.811 6.76463 101.067C8.18093 101.328 8.96185 102.623 8.69908 104.047Z" fill="#10145B"/>
<path d="M23.4093 87.4034L24.4084 84.3955L4.68064 86.7617L4.66453 86.8102L19.0581 100.502L20.017 97.6155L16.7845 94.6573L19.0487 87.8412L23.4093 87.4034ZM14.5455 92.5945L10.3038 88.709L16.02 88.1555L14.5455 92.5945Z" fill="#10145B"/>
<path d="M30.1315 75.3448C31.5371 72.6435 31.6234 69.5657 30.0792 66.7092L27.5166 68.1619C28.4541 70.1122 28.4617 72.1698 27.5169 73.9854C25.8694 77.1516 22.0792 78.2755 18.7995 76.5703C15.5198 74.865 14.2643 71.1177 15.9118 67.9515C16.8566 66.1359 18.5462 64.9608 20.682 64.6083L20.4006 61.677C17.1743 62.0532 14.7028 63.8908 13.2972 66.5921C10.9123 71.1754 12.7038 76.8048 17.4054 79.2494C22.1071 81.694 27.7466 79.9281 30.1315 75.3448Z" fill="#10145B"/>
<path d="M36.2381 63.7255L37.9881 61.3183L25.797 52.462L28.1941 49.1648L26.608 46.4051L18.9753 56.9036L21.3262 58.6114L24.0469 54.8691L36.2381 63.7255Z" fill="#10145B"/>
<path d="M38.675 32.9438L39.6295 49.1092L31.4418 41.1498L29.3479 43.302L42.5658 56.1512L42.601 56.115L41.6282 39.9319L49.8342 47.9091L51.9281 45.7569L38.7102 32.9077L38.675 32.9438Z" fill="#10145B"/>
<path d="M57.5932 41.3458L59.9495 39.5273L50.7397 27.603L53.9672 25.1122L53.2209 22.0182L42.9442 29.9492L44.7202 32.2486L48.3833 29.4215L57.5932 41.3458Z" fill="#10145B"/>
<path d="M67.31 31.3305L64.9155 27.2804L69.5491 24.543L69.2575 21.341L63.4369 24.7796L61.1209 20.8623L67.535 17.0731L67.2205 13.8845L56.926 19.9662L66.0723 35.436L75.2255 30.0286L74.911 26.84L67.31 31.3305Z" fill="#10145B"/>
<path d="M83.7602 7.27359L73.125 11.6536L77.3638 21.9377C78.4308 24.5264 78.2338 25.8738 76.6029 26.5455C76.3043 26.6685 75.996 26.7679 75.6126 26.8157L76.699 29.4515C77.2202 29.3469 77.653 29.2237 78.0895 29.044C81.4661 27.6533 81.7365 24.7891 80.1651 20.9767L76.9545 13.1871L82.1228 11.0586L87.8069 24.8492L90.5403 23.7235L83.7602 7.27359Z" fill="#10145B"/>
<path d="M96.8277 10.4473L93.5988 11.257L91.8402 4.25034L88.8845 4.99158L93.2589 22.421L99.4436 20.87C102.449 20.1163 104.326 17.2867 103.575 14.2945C102.818 11.2774 99.8331 9.69356 96.8277 10.4473ZM98.693 18.0897L95.5137 18.887L94.2934 14.0248L97.4727 13.2275C98.9133 12.8662 100.281 13.5833 100.644 15.0295C101.007 16.4757 100.134 17.7285 98.693 18.0897Z" fill="#10145B"/>
<path d="M115.787 0.877253L116.547 8.29356L108.585 9.10947L107.825 1.69316L104.864 1.99658L106.697 19.8724L109.658 19.569L108.882 11.9993L116.844 11.1834L117.62 18.7531L120.606 18.4471L118.773 0.571286L115.787 0.877253Z" fill="#10145B"/>
<path d="M130.295 7.60394L127.326 7.40586L127.807 0.198085L124.838 0L123.641 17.9297L129.579 18.3258C132.623 18.5289 135.221 16.4091 135.426 13.3311C135.633 10.2274 133.339 7.80702 130.295 7.60394ZM137.812 0.865582L136.615 18.7952L139.584 18.9933L140.782 1.06367L137.812 0.865582ZM129.721 15.4496L126.802 15.2549L127.136 10.2531L130.055 10.4478C131.502 10.5444 132.556 11.6453 132.457 13.133C132.358 14.6207 131.168 15.5462 129.721 15.4496Z" fill="#10145B"/>
<path d="M147.644 17.3869L148.657 12.7928L153.913 13.9515L155.885 11.4116L149.283 9.95605L150.263 5.5126L157.539 7.1165L159.485 4.57082L147.808 1.99658L143.937 19.5445L154.319 21.8333L156.266 19.2876L147.644 17.3869Z" fill="#10145B"/>
<path d="M174.909 19.4351C176.362 19.1899 177.59 18.2891 178.218 16.8237C179.3 14.2947 177.972 11.4899 175.241 10.3221L169.779 7.98645L162.709 24.5076L168.598 27.0261C171.471 28.2548 174.607 27.1633 175.781 24.4216C176.529 22.6725 176.115 20.8177 174.909 19.4351ZM174.054 12.8341C175.336 13.3825 175.912 14.6632 175.376 15.9159C174.839 17.1686 173.515 17.6369 172.233 17.0885L169.621 15.9714L171.442 11.7171L174.054 12.8341ZM169.595 24.4328L166.556 23.133L168.579 18.4059L171.618 19.7057C173.02 20.3049 173.663 21.7545 173.077 23.1254C172.49 24.4963 170.996 25.032 169.595 24.4328Z" fill="#10145B"/>
<path d="M182.681 35.081C187.125 37.8772 192.942 36.5901 195.765 32.1068C198.588 27.6234 197.233 21.8246 192.789 19.0284C188.345 16.2322 182.529 17.5193 179.706 22.0026C176.883 26.4859 178.237 32.2848 182.681 35.081ZM184.251 32.5878C181.181 30.6561 180.334 26.7645 182.304 23.6371C184.273 20.5097 188.149 19.5899 191.219 21.5216C194.289 23.4533 195.136 27.3449 193.167 30.4723C191.198 33.5997 187.321 34.5195 184.251 32.5878Z" fill="#10145B"/>
<path d="M214.849 36.9954L206.316 29.2856L198.854 37.5373C196.976 39.6144 195.675 40.0167 194.366 38.8345C194.127 38.618 193.904 38.3826 193.696 38.0573L191.784 40.1722C192.102 40.5974 192.4 40.9349 192.75 41.2513C195.459 43.6991 198.162 42.71 200.928 39.6511L206.579 33.4009L210.726 37.1476L200.721 48.2128L202.914 50.1944L214.849 36.9954Z" fill="#10145B"/>
<path d="M209.633 60.0956C212.872 64.2271 218.782 64.9779 222.953 61.71C227.124 58.4422 227.808 52.5267 224.568 48.3953C221.329 44.2638 215.42 43.513 211.248 46.7808C207.077 50.0486 206.394 55.9641 209.633 60.0956ZM211.953 58.2784C209.715 55.4243 210.232 51.4754 213.142 49.1959C216.051 46.9164 220.011 47.3584 222.249 50.2125C224.486 53.0666 223.969 57.0155 221.06 59.295C218.15 61.5745 214.191 61.1325 211.953 58.2784Z" fill="#10145B"/>
<path d="M223.721 80.8202L228.021 69.408L239.252 71.7616L237.465 68.5282L227.065 66.4007L234.134 62.4983L232.698 59.8984L216.961 68.5856L218.398 71.1854L225.827 67.0842L221.874 77.4775L223.721 80.8202Z" fill="#10145B"/>
<path d="M244.454 87.1798L237.448 89.7372L234.703 82.2219L241.708 79.6645L240.687 76.8698L223.801 83.034L224.822 85.8288L231.973 83.2184L234.719 90.7337L227.568 93.344L228.598 96.1623L245.484 89.998L244.454 87.1798Z" fill="#10145B"/>
<path d="M232.751 110.892L233.371 114L249.344 102.188L249.334 102.137L230.049 97.3568L230.644 100.34L234.918 101.312L236.323 108.355L232.751 110.892ZM237.884 101.997L243.494 103.276L238.8 106.584L237.884 101.997Z" fill="#10145B"/>
</svg>
