<svg width="186" height="187" viewBox="0 0 186 187" fill="none" xmlns="http://www.w3.org/2000/svg">
<path fill-rule="evenodd" clip-rule="evenodd" d="M5.95386 93.0207C5.95387 141.095 44.9255 180.203 92.9994 180.37C141.073 180.538 180.045 141.701 180.045 93.6272C180.045 45.553 141.073 6.44537 92.9994 6.2779C44.9255 6.11042 5.95386 44.9465 5.95386 93.0207ZM92.9994 186.324C41.6373 186.145 -1.82003e-06 144.362 -4.06516e-06 93C-6.31028e-06 41.6375 41.6373 0.14505 92.9994 0.323979C144.362 0.502907 185.999 42.2855 185.999 93.648C185.999 145.01 144.362 186.503 92.9994 186.324Z" fill="#10145B"/>
<path fill-rule="evenodd" clip-rule="evenodd" d="M43.2856 68.9992C43.6394 68.3809 44.2929 68 45 68H89C89.7071 68 90.3606 68.3809 90.7144 68.9992L112.734 107.479C113.088 108.098 113.089 108.861 112.735 109.48L90.7149 148C90.3612 148.619 89.7075 149 89 149H45C44.2925 149 43.6388 148.619 43.2851 148L21.2653 109.48C20.9114 108.861 20.9116 108.098 21.2658 107.479L43.2856 68.9992ZM46.1427 72L25.267 108.481L46.1433 145H87.8568L108.733 108.481L87.8573 72H46.1427Z" fill="#10145B"/>
<path fill-rule="evenodd" clip-rule="evenodd" d="M127.275 44.9885C127.628 44.3769 128.282 44 128.99 44H151.01C151.718 44 152.372 44.3769 152.725 44.9885L163.735 64.0327C164.089 64.6441 164.088 65.3972 163.734 66.0083L152.724 85.013C152.371 85.6238 151.717 86 151.01 86H128.99C128.283 86 127.629 85.6238 127.276 85.013L116.266 66.0083C115.912 65.3972 115.911 64.6441 116.265 64.0327L127.275 44.9885ZM130.134 47.9511L120.267 65.0187L130.133 82.0489H149.867L159.733 65.0187L149.866 47.9511H130.134Z" fill="#10145B"/>
<path fill-rule="evenodd" clip-rule="evenodd" d="M122.728 74.9664C123.281 75.8965 122.963 77.0916 122.017 77.6357L100.986 89.7327C100.04 90.2768 98.825 89.9638 98.2718 89.0336C97.7185 88.1035 98.0368 86.9084 98.9827 86.3643L120.014 74.2673C120.96 73.7232 122.175 74.0362 122.728 74.9664Z" fill="#10145B"/>
</svg>
