<svg width="9" height="18" viewBox="0 0 9 18" fill="none" xmlns="http://www.w3.org/2000/svg">
<path fill-rule="evenodd" clip-rule="evenodd" d="M8.0364 2.74368H5.65565C5.23824 2.74368 4.89852 3.09338 4.89852 3.52318V5.94577C4.89852 6.37556 5.23824 6.72526 5.65565 6.72526H7.06988V9.11595H5.64633C5.22892 9.11595 4.8893 9.46565 4.8893 9.89544L4.88949 17.0079H2.58945L2.65025 9.90224C2.65209 9.69275 2.5742 9.49545 2.43086 9.34665C2.28771 9.19785 2.09677 9.11595 1.89321 9.11595H0.963602V6.72526H1.84601C2.26352 6.72526 2.60314 6.37556 2.60314 5.94577V3.35738C2.60314 2.05319 3.63347 0.992194 4.90008 0.992194H8.0364V2.74368ZM8.24297 0H4.90008C3.10223 0 1.63954 1.50619 1.63954 3.35738V5.73317H0.757033C0.339621 5.73317 0 6.08287 0 6.51256V9.32855C0 9.75835 0.339621 10.1081 0.757033 10.1081H1.68499L1.6242 17.2133C1.62226 17.4229 1.70005 17.6203 1.8433 17.7691C1.98654 17.918 2.17757 18 2.38113 18H5.09596C5.51338 18 5.85309 17.6503 5.85309 17.2205L5.8529 10.1081H7.27635C7.69386 10.1081 8.03348 9.75835 8.03348 9.32855V6.51256C8.03348 6.08287 7.69386 5.73317 7.27635 5.73317H5.86212V3.73588H8.24297C8.66038 3.73588 9 3.38618 9 2.95628V0.779596C9 0.349798 8.66038 0 8.24297 0Z" fill="#00A2C7"/>
</svg>
