<svg width="126" height="158" viewBox="0 0 126 158" fill="none" xmlns="http://www.w3.org/2000/svg">
<path fill-rule="evenodd" clip-rule="evenodd" d="M0 34.7443L99.8413 79.9084L92.2565 83.3403L0 41.6056V72.0456L58.6114 98.5599L10.7389 120.217L10.7248 113.435L43.5314 98.593L0 78.9004V90.6206L17.5241 98.5478L0 106.475V136.998L84.7243 98.6706L10.7248 65.1939V58.2542L92.3947 95.2L126 79.998L0 22.9978V34.7443Z" fill="#37B0EC"/>
<path fill-rule="evenodd" clip-rule="evenodd" d="M47.8183 112.428L92.4516 112.428L92.4516 83.7134L85.1493 80.375L85.1493 104.308L73.7863 104.308L73.7863 92.3427L66.4835 88.9627L66.4835 104.308L55.1206 104.308L55.1206 85.0436L47.8183 81.6706L47.8183 112.428ZM70.1349 46.2698C82.9417 46.2698 93.2699 35.94 93.2699 23.1348C93.2699 10.3852 82.9417 -0.000108661 70.1349 -0.000108002C57.3869 -0.000107346 47 10.3852 47 23.1348C47 35.94 57.3869 46.2698 70.1349 46.2698ZM70.1349 7.96724C78.9959 7.96724 85.9192 14.8221 85.9192 23.1299C85.9192 31.4353 78.9959 38.3596 70.1349 38.3596C61.343 38.3596 54.3511 31.4353 54.3511 23.1299C54.3511 14.8221 61.343 7.96724 70.1349 7.96724ZM47.8183 124.276L75.4766 137.046L47.8183 149.817L47.8183 158L93.1986 137.046L47.8183 116.093L47.8183 124.276ZM92.4516 48.525L85.0863 45.1195L85.0863 67.5026L47.8183 67.5026L47.8183 75.6252L92.4516 75.6252L92.4516 48.525Z" fill="white"/>
</svg>
