<svg width="24" height="24" viewBox="0 0 24 24" fill="none" xmlns="http://www.w3.org/2000/svg">
<mask id="mask0_103_1122" style="mask-type:alpha" maskUnits="userSpaceOnUse" x="2" y="0" width="20" height="24">
<path fill-rule="evenodd" clip-rule="evenodd" d="M12 2.3999C14.0625 2.3999 15.75 4.0151 15.75 5.9999C15.75 7.9847 14.0625 9.5999 12 9.5999C9.9375 9.5999 8.25 7.9847 8.25 5.9999C8.25 4.0151 9.9375 2.3999 12 2.3999ZM19.775 12.468L17.725 10.6572L16.0375 12.4236L18.1 14.2452C18.95 14.9748 19.5 15.6 19.5 17.5872V21.6H4.5V17.5872C4.5 15.6 5.05 14.9748 5.9125 14.238L9.225 11.3448C10.0625 11.7504 11 12 12 12C15.45 12 18.25 9.3084 18.25 6C18.25 2.6916 15.45 0 12 0C8.55 0 5.75 2.6916 5.75 6C5.75 7.4652 6.325 8.7912 7.2375 9.834L4.2375 12.4572C2.8625 13.6428 2 14.916 2 17.5872V24H22V17.5872C22 14.916 21.15 13.6428 19.775 12.468Z" fill="white"/>
</mask>
<g mask="url(#mask0_103_1122)">
<rect x="-3" y="-2.3999" width="30" height="28.8" fill="#041E42"/>
</g>
</svg>
