<svg width="24" height="26" viewBox="0 0 24 26" fill="none" xmlns="http://www.w3.org/2000/svg">
<path fill-rule="evenodd" clip-rule="evenodd" d="M11.6597 1C16.3177 1 21.4738 4.99492 21.9129 9.20404C21.918 9.25306 19.8859 9.20404 19.8859 9.20404C18.1605 5.0452 15.4624 3.05316 11.6597 3.05316C7.88603 3.05316 5.12781 5.01656 3.26733 9.10404L3.21123 9.22855L1.04346 9.20404C2.95164 3.88008 6.96371 1 11.6597 1ZM1.04346 11.9717H4.9565V16.086H1.04346V11.9717ZM18 11.9717H21.913V16.086H21.913V21.791L21.8894 21.9067C21.5738 23.4575 20.4156 24.2868 18.7431 24.3135L18.659 24.3142H13.4348V24.9999H8.21737V20.8857H13.4348V22.0568H18.659C19.3584 22.0568 19.6313 21.9083 19.7415 21.5463L19.7448 21.5339V16.086H18V11.9717Z" fill="#041E42"/>
<path d="M21.9129 9.20404L21.5946 9.23725V9.23725L21.9129 9.20404ZM19.8859 9.20404L19.5903 9.32666L19.6701 9.51893L19.8782 9.52395L19.8859 9.20404ZM3.26733 9.10404L2.97608 8.97147L2.97558 8.97258L3.26733 9.10404ZM3.21123 9.22855L3.20761 9.54853L3.41697 9.5509L3.50298 9.36001L3.21123 9.22855ZM1.04346 9.20404L0.742221 9.09607L0.590659 9.51894L1.03984 9.52402L1.04346 9.20404ZM4.9565 11.9717H5.2765V11.6517H4.9565V11.9717ZM1.04346 11.9717V11.6517H0.723457V11.9717H1.04346ZM4.9565 16.086V16.406H5.2765V16.086H4.9565ZM1.04346 16.086H0.723457V16.406H1.04346V16.086ZM21.913 11.9717H22.233V11.6517H21.913V11.9717ZM18 11.9717V11.6517H17.68V11.9717H18ZM21.913 16.086V16.406H22.233V16.086H21.913ZM21.913 16.086V15.766H21.593V16.086H21.913ZM21.913 21.791L22.2266 21.8548L22.233 21.8232V21.791H21.913ZM21.8894 21.9067L21.5759 21.8429L21.8894 21.9067ZM18.7431 24.3135L18.7456 24.6335L18.7482 24.6335L18.7431 24.3135ZM18.659 24.3142V24.6342L18.6615 24.6342L18.659 24.3142ZM13.4348 24.3142V23.9942H13.1148V24.3142H13.4348ZM13.4348 24.9999V25.3199H13.7548V24.9999H13.4348ZM8.21737 24.9999H7.89737V25.3199H8.21737V24.9999ZM8.21737 20.8857V20.5657H7.89737V20.8857H8.21737ZM13.4348 20.8857H13.7548V20.5657H13.4348V20.8857ZM13.4348 22.0568H13.1148V22.3768H13.4348V22.0568ZM19.7415 21.5463L20.0477 21.6394L20.0503 21.6301L19.7415 21.5463ZM19.7448 21.5339L20.0536 21.6178L20.0648 21.5766V21.5339H19.7448ZM19.7448 16.086H20.0648V15.766H19.7448V16.086ZM18 16.086H17.68V16.406H18V16.086ZM22.2312 9.17083C21.9997 6.95245 20.5348 4.83053 18.567 3.27271C16.5962 1.71253 14.0747 0.68 11.6597 0.68V1.32C13.9027 1.32 16.2882 2.28493 18.1697 3.7745C20.0543 5.26642 21.3869 7.24651 21.5946 9.23725L22.2312 9.17083ZM19.8859 9.20404C19.8782 9.52395 19.8782 9.52395 19.8782 9.52395C19.8782 9.52395 19.8782 9.52395 19.8783 9.52395C19.8783 9.52395 19.8784 9.52395 19.8786 9.52396C19.8788 9.52396 19.8792 9.52397 19.8797 9.52398C19.8807 9.52401 19.8822 9.52404 19.8841 9.52409C19.888 9.52418 19.8937 9.52432 19.9012 9.52449C19.9162 9.52484 19.9381 9.52534 19.966 9.52597C20.0218 9.52722 20.1014 9.52895 20.1969 9.53087C20.3878 9.53471 20.6426 9.53932 20.8975 9.5424C21.1517 9.54547 21.4084 9.54704 21.6022 9.5447C21.6983 9.54354 21.7836 9.54137 21.8467 9.53752C21.8766 9.53571 21.9109 9.533 21.9415 9.52811C21.9539 9.52613 21.9838 9.52112 22.017 9.50905C22.0312 9.50388 22.0705 9.48895 22.1115 9.45624C22.1507 9.4249 22.2476 9.32855 22.2312 9.17083L21.5946 9.23725C21.5784 9.08106 21.6745 8.98619 21.7119 8.95629C21.751 8.92501 21.7876 8.91148 21.7981 8.90765C21.8132 8.90215 21.8249 8.89935 21.8298 8.89824C21.8355 8.89694 21.8394 8.89631 21.8405 8.89613C21.8419 8.8959 21.8331 8.89717 21.8079 8.89871C21.7608 8.90157 21.6882 8.90361 21.5945 8.90474C21.4087 8.90699 21.1583 8.9055 20.9052 8.90245C20.6526 8.8994 20.3997 8.89482 20.2098 8.891C20.1148 8.88909 20.0357 8.88737 19.9804 8.88613C19.9527 8.88551 19.9309 8.88501 19.9162 8.88466C19.9088 8.88449 19.9031 8.88436 19.8993 8.88427C19.8974 8.88422 19.896 8.88419 19.895 8.88417C19.8945 8.88415 19.8942 8.88415 19.8939 8.88414C19.8938 8.88414 19.8937 8.88413 19.8937 8.88413C19.8936 8.88413 19.8936 8.88413 19.8936 8.88413C19.8936 8.88413 19.8936 8.88413 19.8859 9.20404ZM11.6597 3.37316C13.5017 3.37316 15.0575 3.85428 16.3605 4.8256C17.6673 5.79963 18.7428 7.28378 19.5903 9.32666L20.1814 9.08141C19.3036 6.96547 18.1674 5.37417 16.743 4.31247C15.3151 3.24806 13.6204 2.73316 11.6597 2.73316V3.37316ZM3.55858 9.2366C4.47261 7.22848 5.59621 5.76631 6.93283 4.80564C8.26607 3.8474 9.83186 3.37316 11.6597 3.37316V2.73316C9.71385 2.73316 8.01371 3.24062 6.55931 4.28594C5.10828 5.32884 3.92253 6.89212 2.97608 8.97147L3.55858 9.2366ZM3.50298 9.36001L3.55908 9.23549L2.97558 8.97258L2.91948 9.09709L3.50298 9.36001ZM1.03984 9.52402L3.20761 9.54853L3.21485 8.90857L1.04707 8.88406L1.03984 9.52402ZM11.6597 0.68C6.81076 0.68 2.68965 3.6626 0.742221 9.09607L1.34469 9.31201C3.21362 4.09757 7.11667 1.32 11.6597 1.32V0.68ZM4.9565 11.6517H1.04346V12.2917H4.9565V11.6517ZM5.2765 16.086V11.9717H4.6365V16.086H5.2765ZM1.04346 16.406H4.9565V15.766H1.04346V16.406ZM0.723457 11.9717V16.086H1.36346V11.9717H0.723457ZM21.913 11.6517H18V12.2917H21.913V11.6517ZM22.233 16.086V11.9717H21.593V16.086H22.233ZM21.913 16.406H21.913V15.766H21.913V16.406ZM21.593 16.086V21.791H22.233V16.086H21.593ZM21.5994 21.7272L21.5759 21.8429L22.203 21.9705L22.2266 21.8548L21.5994 21.7272ZM21.5759 21.8429C21.4318 22.5506 21.1013 23.0736 20.6328 23.4258C20.1609 23.7806 19.5236 23.981 18.7379 23.9936L18.7482 24.6335C19.635 24.6193 20.4131 24.3917 21.0174 23.9374C21.625 23.4806 22.0314 22.8136 22.203 21.9705L21.5759 21.8429ZM18.7405 23.9935L18.6565 23.9942L18.6615 24.6342L18.7456 24.6335L18.7405 23.9935ZM18.659 23.9942H13.4348V24.6342H18.659V23.9942ZM13.1148 24.3142V24.9999H13.7548V24.3142H13.1148ZM13.4348 24.6799H8.21737V25.3199H13.4348V24.6799ZM8.53737 24.9999V20.8857H7.89737V24.9999H8.53737ZM8.21737 21.2057H13.4348V20.5657H8.21737V21.2057ZM13.1148 20.8857V22.0568H13.7548V20.8857H13.1148ZM13.4348 22.3768H18.659V21.7368H13.4348V22.3768ZM18.659 22.3768C19.0209 22.3768 19.3243 22.3402 19.5611 22.2251C19.823 22.0977 19.9709 21.8914 20.0476 21.6394L19.4353 21.4531C19.4018 21.5631 19.3582 21.6121 19.2813 21.6495C19.1793 21.6991 18.9965 21.7368 18.659 21.7368V22.3768ZM20.0503 21.6301L20.0536 21.6178L19.436 21.45L19.4327 21.4624L20.0503 21.6301ZM20.0648 21.5339V16.086H19.4248V21.5339H20.0648ZM18 16.406H19.7448V15.766H18V16.406ZM17.68 11.9717V16.086H18.32V11.9717H17.68Z" fill="#041E42"/>
</svg>
