<svg width="122" height="122" viewBox="0 0 122 122" fill="none" xmlns="http://www.w3.org/2000/svg">
<path fill-rule="evenodd" clip-rule="evenodd" d="M81.418 26.8783L82.4776 26.1305L82.488 26.1458L82.5169 26.1882L82.6277 26.3518C82.7243 26.4948 82.8653 26.7047 83.0445 26.9738C83.4027 27.512 83.9136 28.2878 84.5262 29.2409C85.7508 31.1462 87.3855 33.7658 89.0221 36.6184C90.6562 39.4666 92.3052 42.5695 93.5495 45.4369C94.7705 48.2508 95.687 51.0239 95.687 53.1439C95.687 61.146 89.3183 67.6251 81.4449 67.6398C81.1451 66.7772 80.8103 65.888 80.4457 64.9781C80.7663 65.0049 81.0906 65.0185 81.418 65.0185C87.8787 65.0185 93.1067 59.7074 93.1067 53.1439C93.1067 51.6204 92.4009 49.2884 91.1884 46.4943C89.9992 43.7538 88.4034 40.7456 86.7928 37.9384C85.1847 35.1354 83.5747 32.5551 82.3657 30.6741C82.0118 30.1234 81.6925 29.6331 81.418 29.2153C81.1436 29.6331 80.8243 30.1234 80.4703 30.6741C79.2614 32.5551 77.6514 35.1354 76.0432 37.9384C74.4326 40.7456 72.8369 43.7538 71.6477 46.4943C71.5634 46.6885 71.4816 46.8805 71.4022 47.0701C70.8611 46.1346 70.3212 45.2149 69.7873 44.3169C70.9559 41.7735 72.3906 39.0993 73.814 36.6184C75.4506 33.7658 77.0853 31.1462 78.3098 29.2409C78.9225 28.2878 79.4334 27.512 79.7916 26.9738C79.9708 26.7047 80.1118 26.4948 80.2084 26.3518L80.3191 26.1882L80.348 26.1458L80.3585 26.1305L81.418 26.8783ZM81.418 26.8783C82.4776 26.1305 82.4774 26.1302 82.4776 26.1305C82.2364 25.7779 81.8406 25.5676 81.418 25.5676C80.9954 25.5676 80.5996 25.7779 80.3585 26.1305C80.3587 26.1302 80.3585 26.1305 81.418 26.8783Z" fill="#10145B"/>
<path fill-rule="evenodd" clip-rule="evenodd" d="M47.3616 52.7861C46.7733 51.6856 46.1656 50.5951 45.56 49.5395C43.9235 46.687 42.2888 44.0673 41.0642 42.1621C40.4515 41.2089 39.9407 40.4332 39.5824 39.895C39.4033 39.6258 39.2622 39.416 39.1656 39.2729L39.0549 39.1094L39.026 39.0669L39.0155 39.0516C38.7744 38.699 38.3786 38.4888 37.956 38.4888C37.5334 38.4888 37.1376 38.699 36.8965 39.0516L36.886 39.0669L36.8571 39.1094L36.7463 39.2729C36.6498 39.416 36.5087 39.6258 36.3296 39.895C35.9713 40.4332 35.4605 41.2089 34.8478 42.1621C33.6232 44.0673 31.9885 46.687 30.3519 49.5395C28.7178 52.3878 27.0689 55.4906 25.8246 58.358C24.6035 61.172 23.687 63.945 23.687 66.0651C23.687 74.0762 30.0703 80.561 37.956 80.561C38.1693 80.561 38.3815 80.5562 38.5925 80.5468C38.4437 79.6916 38.3414 78.8201 38.2883 77.935C38.1779 77.9381 38.0671 77.9397 37.956 77.9397C31.4953 77.9397 26.2673 72.6285 26.2673 66.0651C26.2673 64.5415 26.9732 62.2095 28.1856 59.4154C29.3749 56.6749 30.9706 53.6668 32.5812 50.8595C34.1893 48.0566 35.7993 45.4762 37.0083 43.5952C37.3623 43.0445 37.6816 42.5542 37.956 42.1364C38.2304 42.5542 38.5497 43.0445 38.9037 43.5952C40.1127 45.4762 41.7227 48.0566 43.3308 50.8595C44.2064 52.3856 45.0775 53.9711 45.8814 55.5407C46.3661 54.62 46.8608 53.7001 47.3616 52.7861ZM39.0155 39.0516C39.0154 39.0514 39.0155 39.0516 37.956 39.7994L39.0155 39.0516ZM37.956 39.7994C36.8965 39.0516 36.8966 39.0514 36.8965 39.0516L37.956 39.7994Z" fill="#10145B"/>
<path fill-rule="evenodd" clip-rule="evenodd" d="M60.9071 28.6987L59.8481 29.4473L58.789 28.6987C59.0302 28.3466 59.4258 28.1366 59.8481 28.1366C60.2704 28.1366 60.6659 28.3466 60.9071 28.6987ZM59.8481 31.7708C59.2378 32.6877 58.3926 33.9713 57.3881 35.5321C55.272 38.8199 52.4525 43.3327 49.6349 48.2376C46.8148 53.1468 44.0096 58.4264 41.9133 63.2521C39.7938 68.1312 38.4833 72.3619 38.4833 75.2417C38.4833 87.2313 48.0462 96.9463 59.8481 96.9463C71.6499 96.9463 81.2128 87.2313 81.2128 75.2417C81.2128 72.3619 79.9024 68.1312 77.7828 63.2521C75.6865 58.4264 72.8813 53.1468 70.0613 48.2376C67.2437 43.3327 64.4242 38.8199 62.3081 35.5321C61.3035 33.9713 60.4583 32.6877 59.8481 31.7708ZM80.1435 62.1937C82.2717 67.0929 83.7931 71.7649 83.7931 75.2417C83.7931 88.679 73.075 99.5676 59.8481 99.5676C46.6212 99.5676 35.903 88.679 35.903 75.2417C35.903 71.7649 37.4244 67.0929 39.5527 62.1937C41.7042 57.241 44.5627 51.8666 47.4063 46.9164C50.2525 41.9618 53.0967 37.4097 55.2284 34.0976C56.2947 32.4409 57.1835 31.0931 57.8063 30.1587C58.1178 29.6914 58.3628 29.3274 58.5302 29.0798L58.7219 28.7971L58.7715 28.7243L58.789 28.6987C58.789 28.6987 58.789 28.6987 59.8481 29.4473C60.9071 28.6987 60.9071 28.6987 60.9071 28.6987L60.9246 28.7243L60.9742 28.7971L61.1659 29.0798C61.3334 29.3274 61.5784 29.6914 61.8898 30.1587C62.5126 31.0931 63.4015 32.4409 64.4677 34.0976C66.5994 37.4097 69.4437 41.9618 72.2898 46.9164C75.1335 51.8666 77.992 57.241 80.1435 62.1937Z" fill="#10145B"/>
<path fill-rule="evenodd" clip-rule="evenodd" d="M60.987 3.90523C29.4544 3.90523 3.80704 29.4673 3.70195 60.9997C3.59686 92.5321 29.0739 118.094 60.6064 118.094C92.139 118.094 117.786 92.5321 117.891 60.9997C117.997 29.4673 92.5195 3.90523 60.987 3.90523ZM-0.203299 60.9997C-0.0910203 27.3105 27.3106 0 61 0C94.6894 0 121.909 27.3105 121.797 60.9997C121.684 94.6889 94.2828 121.999 60.5934 121.999C26.904 121.999 -0.315579 94.6889 -0.203299 60.9997Z" fill="#10145B"/>
</svg>
