<svg width="123" height="122" viewBox="0 0 123 122" fill="none" xmlns="http://www.w3.org/2000/svg">
<path fill-rule="evenodd" clip-rule="evenodd" d="M62.2489 28.1449L61.3625 27.627L60.4762 28.1449L60.7716 28.6629L60.38 29.3496L61.2664 29.8675L61.3625 29.6989L61.4587 29.8675L62.345 29.3496L61.9534 28.6629L62.2489 28.1449ZM58.7035 29.1809L59.6861 30.9035L57.9134 31.9395L56.9309 30.2169L58.7035 29.1809ZM55.1582 31.2529L56.1407 32.9755L54.3681 34.0115L53.3856 32.2889L55.1582 31.2529ZM51.6129 33.3249L52.5954 35.0475L50.8228 36.0835L49.8403 34.3609L51.6129 33.3249ZM48.0676 35.3968L46.2949 36.4328L47.2774 38.1554L49.0501 37.1194L48.0676 35.3968ZM44.5223 37.4688L42.7496 38.5048L43.7321 40.2274L45.5048 39.1914L44.5223 37.4688ZM40.977 39.5408L39.2043 40.5768L40.1868 42.2994L41.9595 41.2634L40.977 39.5408ZM37.4316 41.6128L35.659 42.6487L36.6415 44.3713L38.4142 43.3354L37.4316 41.6128ZM33 76.3183H33.5909L33.9825 75.6316L34.8688 76.1496L34.7727 76.3183H34.965V77.3542H34.1818L33.8863 77.8722L33 77.3542V76.3183ZM35.659 78.9082L37.4316 79.9442L38.4142 78.2216L36.6415 77.1856L35.659 78.9082ZM39.2043 80.9802L40.977 82.0162L41.9595 80.2936L40.1868 79.2576L39.2043 80.9802ZM42.7496 83.0522L44.5223 84.0882L45.5048 82.3655L43.7321 81.3296L42.7496 83.0522ZM46.2949 85.1241L48.0676 86.1601L49.0501 84.4375L47.2774 83.4015L46.2949 85.1241ZM49.8403 87.1961L51.6129 88.2321L52.5954 86.5095L50.8228 85.4735L49.8403 87.1961ZM53.3856 89.2681L55.1582 90.3041L56.1407 88.5815L54.3681 87.5455L53.3856 89.2681ZM56.9309 91.34L58.7035 92.376L59.6861 90.6534L57.9134 89.6174L56.9309 91.34ZM60.4762 93.412L61.3625 93.93L62.2489 93.412L61.9534 92.894L62.345 92.2074L61.4587 91.6894L61.3625 91.858L61.2664 91.6894L60.38 92.2074L60.7716 92.894L60.4762 93.412ZM64.0215 92.376L65.7942 91.34L64.8117 89.6174L63.039 90.6534L64.0215 92.376ZM67.5668 90.3041L69.3395 89.2681L68.357 87.5455L66.5843 88.5815L67.5668 90.3041ZM71.1122 88.2321L72.8848 87.1961L71.9023 85.4735L70.1296 86.5095L71.1122 88.2321ZM74.6575 86.1601L76.4301 85.1241L75.4476 83.4015L73.675 84.4375L74.6575 86.1601ZM78.2028 84.0882L79.9755 83.0522L78.9929 81.3296L77.2203 82.3655L78.2028 84.0882ZM81.7481 82.0162L83.5208 80.9802L82.5383 79.2576L80.7656 80.2936L81.7481 82.0162ZM85.2934 79.9442L87.0661 78.9082L86.0836 77.1856L84.3109 78.2216L85.2934 79.9442ZM89.7251 45.2387H89.1342L88.7426 45.9253L87.8562 45.4073L87.9524 45.2387H87.7601V44.2027H88.5433L88.8387 43.6847L89.7251 44.2027V45.2387ZM87.0661 42.6487L85.2934 41.6128L84.3109 43.3354L86.0836 44.3713L87.0661 42.6487ZM83.5208 40.5768L81.7481 39.5408L80.7656 41.2634L82.5383 42.2994L83.5208 40.5768ZM79.9755 38.5048L78.2028 37.4688L77.2203 39.1914L78.9929 40.2274L79.9755 38.5048ZM76.4301 36.4328L74.6575 35.3968L73.675 37.1194L75.4476 38.1554L76.4301 36.4328ZM72.8848 34.3609L71.9023 36.0835L70.1296 35.0475L71.1122 33.3249L72.8848 34.3609ZM69.3395 32.2889L68.357 34.0115L66.5843 32.9755L67.5668 31.2529L69.3395 32.2889ZM65.7942 30.2169L64.8117 31.9395L63.039 30.9035L64.0215 29.1809L65.7942 30.2169ZM89.7251 47.3107H87.7601V49.3826H89.7251V47.3107ZM89.7251 51.4546H87.7601V53.5266H89.7251V51.4546ZM89.7251 55.5986H87.7601V57.6705H89.7251V55.5986ZM89.7251 59.7425H87.7601V61.8145H89.7251V59.7425ZM89.7251 63.8864H87.7601V65.9584H89.7251V63.8864ZM89.7251 68.0304H87.7601V70.1023H89.7251V68.0304ZM89.7251 72.1743H87.7601V74.2463H89.7251V72.1743ZM89.7251 76.3183H89.1342L88.7426 75.6316L87.8562 76.1496L87.9524 76.3183H87.7601V77.3542H88.5433L88.8387 77.8722L89.7251 77.3542V76.3183ZM33 74.2463H34.965V72.1743H33V74.2463ZM33 70.1023H34.965V68.0304H33V70.1023ZM33 65.9584H34.965V63.8864H33V65.9584ZM33 61.8145H34.965V59.7425H33V61.8145ZM33 57.6705H34.965V55.5986H33V57.6705ZM33 53.5266H34.965V51.4546H33V53.5266ZM33 49.3826H34.965V47.3107H33V49.3826ZM33 45.2387H33.5909L33.9825 45.9253L34.8688 45.4073L34.7727 45.2387H34.965V44.2027H34.1818L33.8863 43.6847L33 44.2027V45.2387Z" fill="#10145B"/>
<path fill-rule="evenodd" clip-rule="evenodd" d="M80.0531 42.9845L75.2206 28.2537L78.9504 27L83.1373 39.763L92.7297 29.6819L95.5603 32.4416L85.8842 42.6107L98 46.6325L96.7754 50.4126L82.8419 45.7875L74.7938 54.0547L86.9995 58.081L85.7818 61.8634L71.7106 57.2217L63.8744 65.2713L75.7496 69.3975L74.4737 73.1601L60.8148 68.4142L35.9069 94L33.1076 91.2077L58.0087 65.6289L52.8242 51.3558L56.5128 49.9829L61.0582 62.4964L68.9321 54.4082L64.2158 39.393L67.9611 38.1876L72.05 51.2054L80.0531 42.9845Z" fill="#10145B"/>
<path fill-rule="evenodd" clip-rule="evenodd" d="M61.987 3.90523C30.4544 3.90523 4.80704 29.4673 4.70195 60.9997C4.59686 92.5321 30.0739 118.094 61.6064 118.094C93.139 118.094 118.786 92.5321 118.891 60.9997C118.997 29.4673 93.5195 3.90523 61.987 3.90523ZM0.796701 60.9997C0.90898 27.3105 28.3106 0 62 0C95.6894 0 122.909 27.3105 122.797 60.9997C122.684 94.6889 95.2828 121.999 61.5934 121.999C27.904 121.999 0.684421 94.6889 0.796701 60.9997Z" fill="#10145B"/>
</svg>
