<svg width="123" height="122" viewBox="0 0 123 122" fill="none" xmlns="http://www.w3.org/2000/svg">
<path fill-rule="evenodd" clip-rule="evenodd" d="M61.9864 3.90523C30.4539 3.90523 4.80278 29.4673 4.69313 60.9996C4.58348 92.532 30.0568 118.094 61.5893 118.094C93.1219 118.094 118.773 92.532 118.883 60.9996C118.992 29.4673 93.519 3.90523 61.9864 3.90523ZM0.787881 60.9996C0.905031 27.3105 28.3106 0 62 0C95.6894 0 122.905 27.3105 122.788 60.9996C122.671 94.6888 95.2651 121.999 61.5758 121.999C27.8864 121.999 0.670732 94.6888 0.787881 60.9996Z" fill="#10145B"/>
<path fill-rule="evenodd" clip-rule="evenodd" d="M31.336 47.3731C31.5578 46.9891 31.9674 46.7527 32.4106 46.7527H59.9888C60.432 46.7527 60.8416 46.9891 61.0633 47.3731L74.8648 71.2637C75.0868 71.648 75.0869 72.1216 74.8651 72.5059L61.0636 96.4214C60.8419 96.8056 60.4322 97.0423 59.9888 97.0423H32.4106C31.9672 97.0423 31.5575 96.8056 31.3358 96.4214L17.5343 72.5059C17.3125 72.1216 17.3126 71.648 17.5345 71.2637L31.336 47.3731ZM33.1268 49.2361L20.0425 71.8854L33.1272 94.5588H59.2722L72.3569 71.8854L59.2726 49.2361H33.1268Z" fill="#10145B"/>
<path fill-rule="evenodd" clip-rule="evenodd" d="M84.037 32.7712C84.2586 32.3868 84.6685 32.1499 85.1121 32.1499H98.9136C99.3572 32.1499 99.7671 32.3868 99.9888 32.7712L106.89 44.7414C107.111 45.1257 107.111 45.599 106.889 45.9831L99.9882 57.9285C99.7664 58.3124 99.3568 58.5488 98.9136 58.5488H85.1121C84.6689 58.5488 84.2593 58.3124 84.0376 57.9285L77.1368 45.9831C76.9149 45.599 76.9147 45.1257 77.1363 44.7414L84.037 32.7712ZM85.8291 34.6333L79.6445 45.3611L85.8283 56.0654H98.1974L104.381 45.3611L98.1967 34.6333H85.8291Z" fill="#10145B"/>
<path fill-rule="evenodd" clip-rule="evenodd" d="M81.3665 51.4154C81.7126 52.0074 81.5135 52.7679 80.9218 53.1142L67.7657 60.8128C67.1741 61.1591 66.4138 60.9599 66.0678 60.3679C65.7217 59.7759 65.9208 59.0154 66.5125 58.6691L79.6686 50.9705C80.2603 50.6243 81.0205 50.8235 81.3665 51.4154Z" fill="#10145B"/>
</svg>
