<svg width="122" height="122" viewBox="0 0 122 122" fill="none" xmlns="http://www.w3.org/2000/svg">
<path fill-rule="evenodd" clip-rule="evenodd" d="M102 29.29L86.9979 70.7332L31.0412 84.5002L29.098 94L25.3954 93.2404L27.8183 81.3957L84.1334 67.5404L98.4468 28L102 29.29ZM83.4921 38.8677L77.611 60.736L24.517 77.8175L22.7068 86.927L19 86.1883L21.2441 74.895L74.4965 57.7625L79.8426 37.8834L83.4921 38.8677Z" fill="#10145B"/>
<path fill-rule="evenodd" clip-rule="evenodd" d="M58.2413 31.0304L57.3889 30.5376L56.5365 31.0304L56.8206 31.5233L56.444 32.1765L57.2964 32.6694L57.3889 32.5089L57.4814 32.6694L58.3338 32.1765L57.9572 31.5233L58.2413 31.0304ZM54.8317 32.0161L55.7766 33.655L54.0718 34.6407L53.127 33.0018L54.8317 32.0161ZM51.4222 33.9874L52.3671 35.6264L50.6623 36.612L49.7174 34.9731L51.4222 33.9874ZM48.0127 35.9588L48.9575 37.5977L47.2528 38.5834L46.3079 36.9444L48.0127 35.9588ZM44.6031 37.9301L42.8983 38.9158L43.8432 40.5547L45.548 39.569L44.6031 37.9301ZM41.1936 39.9014L39.4888 40.8871L40.4337 42.526L42.1384 41.5404L41.1936 39.9014ZM37.784 41.8728L36.0793 42.8584L37.0241 44.4974L38.7289 43.5117L37.784 41.8728ZM34.3745 43.8441L32.6697 44.8298L33.6146 46.4687L35.3194 45.4831L34.3745 43.8441ZM30.1125 76.864H30.6808L31.0574 76.2107L31.9098 76.7036L31.8173 76.864H32.0023V77.8497H31.2491L30.9649 78.3425L30.1125 77.8497V76.864ZM32.6697 79.3282L34.3745 80.3138L35.3194 78.6749L33.6146 77.6892L32.6697 79.3282ZM36.0793 81.2995L37.784 82.2852L38.7289 80.6462L37.0241 79.6606L36.0793 81.2995ZM39.4888 83.2708L41.1936 84.2565L42.1384 82.6176L40.4337 81.6319L39.4888 83.2708ZM42.8983 85.2422L44.6031 86.2278L45.548 84.5889L43.8432 83.6032L42.8983 85.2422ZM46.3079 87.2135L48.0127 88.1992L48.9575 86.5602L47.2528 85.5746L46.3079 87.2135ZM49.7174 89.1848L51.4222 90.1705L52.3671 88.5316L50.6623 87.5459L49.7174 89.1848ZM53.127 91.1562L54.8317 92.1418L55.7766 90.5029L54.0718 89.5172L53.127 91.1562ZM56.5365 93.1275L57.3889 93.6204L58.2413 93.1275L57.9572 92.6347L58.3338 91.9814L57.4814 91.4886L57.3889 91.649L57.2964 91.4886L56.444 91.9814L56.8206 92.6347L56.5365 93.1275ZM59.9461 92.1418L61.6508 91.1562L60.7059 89.5172L59.0012 90.5029L59.9461 92.1418ZM63.3556 90.1705L65.0604 89.1848L64.1155 87.5459L62.4107 88.5316L63.3556 90.1705ZM66.7651 88.1992L68.4699 87.2135L67.525 85.5746L65.8203 86.5602L66.7651 88.1992ZM70.1747 86.2278L71.8795 85.2422L70.9346 83.6032L69.2298 84.5889L70.1747 86.2278ZM73.5842 84.2565L75.289 83.2708L74.3441 81.6319L72.6394 82.6176L73.5842 84.2565ZM76.9938 82.2852L78.6985 81.2995L77.7537 79.6606L76.0489 80.6462L76.9938 82.2852ZM80.4033 80.3138L82.1081 79.3282L81.1632 77.6892L79.4584 78.6749L80.4033 80.3138ZM84.6652 47.294H84.097L83.7204 47.9472L82.868 47.4544L82.9605 47.294H82.7755V46.3083H83.5287L83.8129 45.8155L84.6652 46.3083V47.294ZM82.1081 44.8298L80.4033 43.8441L79.4584 45.4831L81.1632 46.4687L82.1081 44.8298ZM78.6985 42.8584L76.9938 41.8728L76.0489 43.5117L77.7537 44.4974L78.6985 42.8584ZM75.289 40.8871L73.5842 39.9014L72.6394 41.5404L74.3441 42.526L75.289 40.8871ZM71.8795 38.9158L70.1747 37.9301L69.2298 39.569L70.9346 40.5547L71.8795 38.9158ZM68.4699 36.9444L67.525 38.5834L65.8203 37.5977L66.7651 35.9588L68.4699 36.9444ZM65.0604 34.9731L64.1155 36.612L62.4107 35.6264L63.3556 33.9874L65.0604 34.9731ZM61.6508 33.0018L60.7059 34.6407L59.0012 33.655L59.9461 32.0161L61.6508 33.0018ZM84.6652 49.2653H82.7755V51.2366H84.6652V49.2653ZM84.6652 53.208H82.7755V55.1793H84.6652V53.208ZM84.6652 57.1506H82.7755V59.122H84.6652V57.1506ZM84.6652 61.0933H82.7755V63.0646H84.6652V61.0933ZM84.6652 65.036H82.7755V67.0073H84.6652V65.036ZM84.6652 68.9787H82.7755V70.95H84.6652V68.9787ZM84.6652 72.9213H82.7755V74.8927H84.6652V72.9213ZM84.6652 76.864H84.097L83.7204 76.2107L82.868 76.7036L82.9605 76.864H82.7755V77.8497H83.5287L83.8129 78.3425L84.6652 77.8497V76.864ZM30.1125 74.8927H32.0023V72.9213H30.1125V74.8927ZM30.1125 70.95H32.0023V68.9787H30.1125V70.95ZM30.1125 67.0073H32.0023V65.036H30.1125V67.0073ZM30.1125 63.0646H32.0023V61.0933H30.1125V63.0646ZM30.1125 59.122H32.0023V57.1506H30.1125V59.122ZM30.1125 55.1793H32.0023V53.208H30.1125V55.1793ZM30.1125 51.2366H32.0023V49.2653H30.1125V51.2366ZM30.1125 47.294H30.6808L31.0574 47.9472L31.9098 47.4544L31.8173 47.294H32.0023V46.3083H31.2491L30.9649 45.8155L30.1125 46.3083V47.294Z" fill="#10145B"/>
<path fill-rule="evenodd" clip-rule="evenodd" d="M60.987 3.90523C29.4544 3.90523 3.80704 29.4673 3.70195 60.9997C3.59686 92.5321 29.0739 118.094 60.6064 118.094C92.139 118.094 117.786 92.5321 117.891 60.9997C117.997 29.4673 92.5195 3.90523 60.987 3.90523ZM-0.203299 60.9997C-0.0910203 27.3105 27.3106 0 61 0C94.6894 0 121.909 27.3105 121.797 60.9997C121.684 94.6889 94.2828 121.999 60.5934 121.999C26.904 121.999 -0.315579 94.6889 -0.203299 60.9997Z" fill="#10145B"/>
</svg>
