<svg width="48" height="16" viewBox="0 0 48 16" fill="none" xmlns="http://www.w3.org/2000/svg">
<path d="M9.71427 9.02504C10.1733 9.3951 10.4793 9.88852 10.6323 10.456C10.8108 11.0727 10.8108 11.6648 10.6323 12.2323C10.4538 12.7997 10.1478 13.3178 9.68877 13.7372C9.22976 14.1566 8.66875 14.4773 8.00573 14.65L3.90013 15.7602L0.687042 4.55959L4.48664 3.54808C5.12416 3.37539 5.73617 3.35071 6.32269 3.47407C6.9092 3.59742 7.41922 3.84413 7.85273 4.2142C8.28624 4.58426 8.56675 5.05301 8.74525 5.62044C8.89826 6.11386 8.89825 6.58261 8.79625 7.05136C8.69425 7.49544 8.46474 7.91484 8.13324 8.28491C8.71975 8.38359 9.25526 8.6303 9.71427 9.02504ZM3.1096 5.79314L3.92563 8.67965L5.73617 8.18623C6.19518 8.06287 6.52669 7.84083 6.7307 7.49544C6.9347 7.15005 6.9857 6.75531 6.8837 6.3359C6.7562 5.9165 6.52669 5.59577 6.14418 5.42308C5.78717 5.22571 5.35366 5.20104 4.92015 5.32439L3.1096 5.79314ZM8.51575 12.1583C8.77075 11.7635 8.82175 11.3441 8.69425 10.8754C8.56675 10.4313 8.28624 10.0859 7.87823 9.86385C7.47022 9.64181 7.0112 9.61714 6.52669 9.7405L4.41014 10.3079L5.32816 13.5152L7.44472 12.9477C7.90373 12.8244 8.28624 12.553 8.51575 12.1583Z" fill="#10145B"/>
<path d="M15.2981 12.5527C14.2526 12.1087 13.4111 11.4672 12.7481 10.579C12.085 9.71556 11.677 8.72873 11.575 7.61853C11.4475 6.50834 11.626 5.44748 12.1105 4.48532C12.5696 3.49848 13.2836 2.68433 14.2016 2.06756C15.1196 1.42611 16.1652 1.05605 17.3127 0.932695C18.4857 0.80934 19.5822 0.982037 20.6023 1.42611C21.6478 1.87019 22.4893 2.51164 23.1523 3.37512C23.8154 4.23861 24.2234 5.22545 24.3254 6.33564C24.4529 7.44583 24.2744 8.48202 23.7899 9.46885C23.3308 10.4557 22.6168 11.2698 21.6988 11.8866C20.7808 12.5281 19.7352 12.8981 18.5877 13.0215C17.4402 13.1695 16.3437 12.9968 15.2981 12.5527ZM20.5258 10.3817C21.1378 9.9376 21.6223 9.39484 21.9283 8.70405C22.2343 8.03794 22.3618 7.29781 22.2853 6.53301C22.2088 5.76821 21.9283 5.07742 21.4948 4.48532C21.0358 3.89321 20.4748 3.42446 19.7607 3.12841C19.0467 2.83236 18.3072 2.73368 17.5167 2.80769C16.7262 2.8817 16.0121 3.15308 15.4001 3.57249C14.7881 4.01657 14.3036 4.55933 13.9976 5.25012C13.6916 5.91623 13.5641 6.65636 13.6406 7.42116C13.7171 8.18596 13.9976 8.87675 14.4311 9.46885C14.8901 10.061 15.4511 10.5297 16.1652 10.8258C16.8537 11.1218 17.6187 11.2452 18.4092 11.1465C19.1997 11.0725 19.9138 10.8258 20.5258 10.3817Z" fill="#10145B"/>
<path d="M36.7425 11.1467L36.3855 15.5135L34.422 15.3655L34.626 12.8737L26.8483 12.3063L26.6443 14.8227L24.6552 14.6747L24.9867 10.3079H25.1143C25.7773 10.3573 26.2873 10.1352 26.6698 9.66648C27.0268 9.19773 27.2563 8.48227 27.3328 7.5201L27.8428 0.760254L35.7735 1.32769L35.034 11.0234L36.7425 11.1467ZM32.994 10.8754L33.606 3.05465L29.7299 2.78327L29.3729 7.59411C29.2709 8.97569 28.8628 9.96253 28.1233 10.53L32.994 10.8754Z" fill="#10145B"/>
<path d="M45.6469 15.1928L45.1369 12.331L40.4703 11.2208L38.6343 13.5152L36.6452 13.0464L45.1114 2.78333H45.1369L47.687 15.6862L45.6469 15.1928ZM41.7453 9.64186L44.8054 10.382L44.1679 6.632L41.7453 9.64186Z" fill="#10145B"/>
</svg>
