<svg width="84" height="24" viewBox="0 0 84 24" fill="none" xmlns="http://www.w3.org/2000/svg">
<path d="M7.87555 7.19406L9.779 6.34924L14.6662 17.3575L12.7628 18.2023L10.705 13.543L5.63772 15.7703L7.6955 20.4296L5.81777 21.2488L0.930542 10.2405L2.80827 9.42131L4.84032 13.9782L9.90761 11.751L7.87555 7.19406Z" fill="#10145B"/>
<path d="M21.8006 2.2253L17.0428 12.1462L14.7232 4.80449L12.7481 5.41832L16.4927 17.2704L16.5259 17.2601L21.2785 7.32274L23.6033 14.6809L25.5784 14.0671L21.8338 2.21498L21.8006 2.2253Z" fill="#10145B"/>
<path d="M36.4733 12.5639L33.8473 12.9075L28.1957 7.89917L28.9083 13.5379L26.8554 13.7902L25.3454 1.84026L27.3983 1.58795L28.0781 6.94235L32.1302 0.969809L34.6776 0.646791L30.2342 7.08152L36.4733 12.5639Z" fill="#10145B"/>
<path d="M38.821 12.0999C37.8552 11.4988 37.0824 10.7049 36.5524 9.74713C36.0001 8.73659 35.7608 7.66931 35.7849 6.5164C35.8347 5.36515 36.1361 4.3071 36.7662 3.34724C37.3689 2.41126 38.1909 1.66903 39.2048 1.14441C40.2188 0.619801 41.3169 0.382828 42.4753 0.406291C43.6577 0.456957 44.7207 0.756461 45.6866 1.35755C46.6524 1.95865 47.4252 2.75251 47.9535 3.73584C48.5075 4.72082 48.7468 5.78811 48.7227 6.94102C48.6729 8.09227 48.3715 9.15031 47.7431 10.0846C47.1404 11.0206 46.3184 11.7628 45.3045 12.2875C44.2905 12.8121 43.1924 13.049 42.0339 13.0256C40.8755 13.0021 39.7886 12.6754 38.821 12.0999ZM44.3594 10.5846C45.0279 10.2172 45.5764 9.71389 46.0067 9.04898C46.4113 8.38242 46.6379 7.67872 46.6659 6.85957C46.6922 6.06597 46.5355 5.31187 46.1667 4.6467C45.7979 3.98152 45.2924 3.4358 44.6502 3.00953C43.9806 2.60714 43.2737 2.38193 42.4506 2.35445C41.6532 2.32864 40.8954 2.48497 40.2269 2.85229C39.5584 3.21961 39.0098 3.72296 38.5796 4.38786C38.175 5.05442 37.9483 5.75813 37.9204 6.57727C37.8941 7.37087 38.0508 8.12497 38.4196 8.79015C38.7867 9.48086 39.2939 10.001 39.9361 10.4273C40.6057 10.8297 41.3126 11.0549 42.1357 11.0824C42.9331 11.1082 43.6652 10.9502 44.3594 10.5846Z" fill="#10145B"/>
<path d="M53.3879 3.77883L50.2302 3.19019L50.5886 1.26357L59.425 2.91143L58.1766 4.65233L55.4006 4.13964L53.5131 14.0488L51.4764 13.6608L53.3879 3.77883Z" fill="#10145B"/>
<path d="M71.211 6.41719L71.2367 6.41885L67.1427 18.1353L65.2015 17.4713L67.741 10.1954L57.9934 15.3641L57.9677 15.3625L62.0617 3.64598L64.0029 4.31003L61.4651 11.5604L71.211 6.41719Z" fill="#10145B"/>
<path d="M81.559 12.0878L83.3758 13.0773L77.5281 23.6288L75.7113 22.6392L78.1948 18.1817L73.3421 15.5339L70.8586 19.9914L69.0675 19.0035L74.9152 8.45209L76.7063 9.43996L74.2792 13.8242L79.1302 16.4975L81.559 12.0878Z" fill="#10145B"/>
</svg>
