<svg width="129" height="96" viewBox="0 0 129 96" fill="none" xmlns="http://www.w3.org/2000/svg">
<path d="M11.512 34.3951L12.7232 32.8784L0.695886 29.9041L0.676351 29.9285L6.23753 40.9999L7.39986 39.5444L6.1266 37.1254L8.87127 33.6884L11.512 34.3951ZM5.24754 35.4419L3.57761 32.2654L7.035 33.2036L5.24754 35.4419Z" fill="#10145B"/>
<path d="M8.6322 21.7862L5.89488 24.3818L13.4233 32.3212L14.7749 31.0395L11.6515 27.7457L13.0372 26.4317C14.3775 25.1608 14.5309 23.1387 13.26 21.7984C11.9999 20.4695 9.97247 20.5153 8.6322 21.7862ZM11.8184 25.2146L10.4668 26.4963L8.442 24.3609L9.79363 23.0793C10.4183 22.4869 11.316 22.4554 11.9084 23.0801C12.5115 23.7162 12.4431 24.6223 11.8184 25.2146Z" fill="#10145B"/>
<path d="M23.8894 23.8668C26.5567 22.0273 27.269 18.4558 25.4472 15.8143C23.6255 13.1727 20.034 12.5693 17.3667 14.4089C14.6994 16.2484 13.9871 19.8199 15.8089 22.4614C17.6306 25.1029 21.2221 25.7063 23.8894 23.8668ZM22.8763 22.3979C21.0337 23.6686 18.6388 23.2287 17.368 21.3861C16.0972 19.5435 16.5371 17.1486 18.3797 15.8778C20.2224 14.607 22.6173 15.0469 23.8881 16.8895C25.1588 18.7322 24.719 21.1271 22.8763 22.3979Z" fill="#10145B"/>
<path d="M34.6558 5.24251L31.9811 11.9812L25.1869 9.45115L25.1582 9.46387L29.7293 19.7481L31.4314 18.9915L28.5514 12.5121L32.9729 14.2125L34.6797 9.80536L37.5533 16.2705L39.2554 15.514L34.6844 5.2298L34.6558 5.24251Z" fill="#10145B"/>
<path d="M48.1517 13.1624L50.0304 12.6749L42.1889 3.08261L42.1586 3.09047L39.9702 15.2853L41.7732 14.8174L42.2047 12.1181L46.4621 11.0134L48.1517 13.1624ZM42.5107 10.2437L43.0791 6.70033L45.2834 9.52429L42.5107 10.2437Z" fill="#10145B"/>
<path d="M53.1391 12.4111L54.9893 12.1959L53.9298 3.08485L56.4641 2.79015L57.0683 0.939218L48.9989 1.87756L49.2032 3.63448L52.0796 3.3L53.1391 12.4111Z" fill="#10145B"/>
<path d="M68.2304 0.740617L61.2609 7.86771L61.4464 0.88908L59.5844 0.839576L59.2849 12.1055L59.3162 12.1064L66.2861 4.96362L66.1001 11.9579L67.9621 12.0074L68.2617 0.741449L68.2304 0.740617Z" fill="#10145B"/>
<path d="M75.9889 7.51008C76.9096 7.14455 77.5802 6.3865 77.7556 5.36843C78.0586 3.60993 76.7877 2.13619 74.8132 1.79603C73.2707 1.53027 71.8474 2.04746 70.8811 3.23106L72.2695 4.39149C72.8885 3.65632 73.6235 3.35411 74.4411 3.49496C75.4283 3.66504 76.0369 4.37346 75.8934 5.20643C75.7525 6.02398 75.0085 6.56289 74.0367 6.39546L73.1729 6.24664L72.8805 7.94344L73.8061 8.10289C74.9013 8.29158 75.5327 9.05158 75.3706 9.99253C75.2032 10.9643 74.2996 11.5075 73.1735 11.3135C72.248 11.1541 71.4639 10.5425 71.1037 9.59096L69.4682 10.3257C69.9497 11.6793 71.1971 12.7361 72.8785 13.0257C75.0998 13.4084 76.8948 12.2088 77.2084 10.3886C77.4077 9.23166 76.9193 8.19452 75.9889 7.51008Z" fill="#10145B"/>
<path d="M85.1356 16.0265L86.9843 16.6175L85.4764 4.32001L85.4466 4.31048L77.0845 13.4526L78.8587 14.0198L80.665 11.968L84.8545 13.3073L85.1356 16.0265ZM81.9246 10.5466L84.2973 7.85413L84.6531 11.4188L81.9246 10.5466Z" fill="#10145B"/>
<path d="M89.7228 18.0344L91.4028 18.8388L95.3641 10.5658L97.6653 11.6677L99.1633 10.4239L91.8362 6.91553L91.0723 8.51084L93.6841 9.7614L89.7228 18.0344Z" fill="#10145B"/>
<path d="M99.6211 24.0277C102.287 25.869 105.879 25.2681 107.703 22.6278C109.526 19.9875 108.816 16.4156 106.15 14.5742C103.484 12.7329 99.8924 13.3338 98.0688 15.974C96.2453 18.6143 96.9551 22.1863 99.6211 24.0277ZM100.635 22.5594C98.7934 21.2874 98.3552 18.8921 99.6272 17.0504C100.899 15.2086 103.295 14.7704 105.136 16.0425C106.978 17.3145 107.416 19.7097 106.144 21.5515C104.872 23.3932 102.477 23.8315 100.635 22.5594Z" fill="#10145B"/>
<path d="M115.743 22.8001L113.005 20.2056L105.48 28.148L106.832 29.4291L109.954 26.134L111.34 27.4474C112.681 28.7177 114.708 28.7627 115.979 27.4219C117.238 26.0925 117.084 24.0704 115.743 22.8001ZM112.49 26.1652L111.138 24.8841L113.162 22.7479L114.514 24.029C115.139 24.6211 115.219 25.5158 114.626 26.1408C114.024 26.7771 113.115 26.7573 112.49 26.1652Z" fill="#10145B"/>
<path d="M118.904 32.7652L117.762 31.2939L121.236 28.5965L120.094 27.1252L111.451 33.835L113.736 36.7776C114.907 38.286 116.948 38.6433 118.432 37.4914C119.928 36.3299 120.075 34.2736 118.904 32.7652ZM125.085 33.5544L116.443 40.2642L117.585 41.7355L126.227 35.0257L125.085 33.5544ZM115.101 35.6778L113.978 34.2312L116.389 32.3594L117.512 33.806C118.069 34.5231 118.007 35.4634 117.289 36.0201C116.572 36.5769 115.658 36.3949 115.101 35.6778Z" fill="#10145B"/>
</svg>
