<svg width="158" height="90" viewBox="0 0 158 90" fill="none" xmlns="http://www.w3.org/2000/svg">
<path d="M0.983092 66.4215L0.272863 70.3035L11.2651 72.3477L11.6158 70.4308L7.05533 69.5827L7.41487 67.6176C7.76261 65.7169 6.6774 63.9161 4.82178 63.571C2.98188 63.2289 1.33084 64.5208 0.983092 66.4215ZM5.67621 67.3442L5.32552 69.2611L2.3691 68.7113L2.71979 66.7944C2.88188 65.9085 3.60617 65.327 4.47108 65.4879C5.35172 65.6516 5.83829 66.4583 5.67621 67.3442Z" fill="#10145B"/>
<path d="M15.2838 56.5249L15.9144 54.5966L3.32412 56.0659L3.31395 56.097L12.5377 64.9226L13.1429 63.072L11.0717 61.1649L12.5007 56.795L15.2838 56.5249ZM9.63704 59.8351L6.91925 57.3301L10.5676 56.9892L9.63704 59.8351Z" fill="#10145B"/>
<path d="M19.024 49.081C19.9296 47.3065 20.0166 45.3013 19.0846 43.4581L17.4709 44.4321C18.0345 45.6919 18.017 47.0317 17.4082 48.2244C16.3467 50.3043 13.9711 51.0777 11.9444 50.0033C9.91763 48.9288 9.17519 46.5023 10.2367 44.4224C10.8455 43.2297 11.9118 42.4459 13.2474 42.193L13.1036 40.2872C11.0877 40.5676 9.52669 41.7913 8.62103 43.5658C7.08437 46.5766 8.14067 50.2229 11.0461 51.7632C13.9516 53.3035 17.4873 52.0918 19.024 49.081Z" fill="#10145B"/>
<path d="M23.1818 41.6734L24.3055 40.0942L16.7369 34.476L18.2761 32.313L17.3077 30.5396L12.4068 37.4268L13.8663 38.5101L15.6132 36.0552L23.1818 41.6734Z" fill="#10145B"/>
<path d="M24.9083 21.7848L25.4058 32.1953L20.3044 27.1195L18.9732 28.5199L27.2085 36.714L27.2309 36.6905L26.722 26.2686L31.8347 31.3558L33.166 29.9554L24.9307 21.7613L24.9083 21.7848Z" fill="#10145B"/>
<path d="M36.5447 27.2134L38.0551 26.0185L32.3467 18.4413L34.4155 16.8047L33.9748 14.8214L27.3876 20.0326L28.4883 21.4937L30.8364 19.6362L36.5447 27.2134Z" fill="#10145B"/>
<path d="M42.3913 20.7645L40.9088 18.1896L43.7096 16.4908L43.5117 14.4656L39.9934 16.5997L38.5596 14.1092L42.4365 11.7576L42.2248 9.74082L36.0023 13.5151L41.6649 23.3503L47.1974 19.9945L46.9857 17.9777L42.3913 20.7645Z" fill="#10145B"/>
<path d="M53.0554 4.90927L46.1982 7.8163L48.8432 14.4234C49.5089 16.0865 49.3727 16.9578 48.3211 17.4036C48.1286 17.4852 47.93 17.5517 47.6836 17.5854L48.3615 19.2788C48.6967 19.2074 48.9754 19.1246 49.2568 19.0053C51.434 18.0823 51.6285 16.2314 50.648 13.7821L48.6446 8.77761L51.9769 7.3649L55.5237 16.2248L57.2861 15.4776L53.0554 4.90927Z" fill="#10145B"/>
<path d="M61.3728 7.31976L59.354 7.8434L58.2724 3.38455L56.4244 3.86389L59.1148 14.9555L62.9816 13.9525C64.8607 13.4651 66.04 11.6581 65.5782 9.75398C65.1125 7.83398 63.2519 6.83236 61.3728 7.31976ZM62.5195 12.1834L60.5317 12.699L59.7812 9.60473L61.769 9.08914C62.6697 8.85551 63.5225 9.30896 63.7457 10.2293C63.9689 11.1496 63.4202 11.9497 62.5195 12.1834Z" fill="#10145B"/>
<path d="M73.412 0.712442L73.872 5.43393L68.7774 5.98274L68.3174 1.26125L66.4229 1.46533L67.5315 12.8458L69.4261 12.6417L68.9566 7.82249L74.0512 7.27369L74.5207 12.0929L76.4311 11.8871L75.3225 0.50664L73.412 0.712442Z" fill="#10145B"/>
<path d="M82.5569 5.22842L80.6576 5.10412L80.9698 0.513216L79.0704 0.388916L78.2938 11.809L82.0925 12.0576C84.0397 12.185 85.7027 10.8333 85.836 8.8728C85.9705 6.89593 84.5041 5.35585 82.5569 5.22842ZM87.37 0.932074L86.5934 12.3521L88.4927 12.4764L89.2694 1.05637L87.37 0.932074ZM82.185 10.2257L80.3176 10.1035L80.5342 6.9176L82.4016 7.03981C83.3274 7.1004 84.0012 7.80091 83.9367 8.7485C83.8723 9.69609 83.1107 10.2863 82.185 10.2257Z" fill="#10145B"/>
<path d="M92.948 11.5669L93.5867 8.63948L96.7563 9.34612L97.9627 7.71951L93.9811 6.83185L94.5989 4.00043L98.9864 4.97859L100.177 3.34849L93.1352 1.77856L90.6955 12.9603L96.9567 14.3562L98.1474 12.7261L92.948 11.5669Z" fill="#10145B"/>
<path d="M110.216 12.9595C111.117 12.7994 111.881 12.2228 112.274 11.2885C112.952 9.67604 112.136 7.89474 110.447 7.15908L107.068 5.68774L102.64 16.2213L106.283 17.8078C108.061 18.5818 110.008 17.8785 110.743 16.1305C111.211 15.0153 110.96 13.8361 110.216 12.9595ZM109.704 8.76099C110.497 9.10644 110.85 9.91989 110.515 10.7186C110.179 11.5173 109.357 11.8189 108.564 11.4735L106.947 10.7698L108.088 8.05731L109.704 8.76099ZM106.909 16.1547L105.028 15.3359L106.295 12.322L108.176 13.1408C109.042 13.5182 109.437 14.439 109.07 15.3131C108.703 16.1871 107.775 16.5321 106.909 16.1547Z" fill="#10145B"/>
<path d="M114.944 22.8202C117.742 24.6174 121.386 23.8189 123.141 20.9737C124.896 18.1284 124.026 14.4301 121.228 12.6329C118.43 10.8357 114.786 11.6342 113.031 14.4794C111.276 17.3247 112.146 21.023 114.944 22.8202ZM115.92 21.238C113.987 19.9964 113.442 17.5147 114.667 15.53C115.891 13.5452 118.319 12.9735 120.252 14.2151C122.185 15.4566 122.73 17.9384 121.506 19.9231C120.281 21.9078 117.853 22.4795 115.92 21.238Z" fill="#10145B"/>
<path d="M135.193 24.3137L129.712 19.2468L125.009 24.5677C123.825 25.907 122.998 26.1607 122.158 25.3837C122.004 25.2414 121.861 25.087 121.726 24.8741L120.521 26.2378C120.726 26.5164 120.918 26.7377 121.143 26.9456C122.883 28.5543 124.599 27.9277 126.342 25.9552L129.904 21.925L132.568 24.3873L126.261 31.5223L127.67 32.8246L135.193 24.3137Z" fill="#10145B"/>
<path d="M132.125 38.7009C134.161 41.3623 137.847 41.8676 140.435 39.7901C143.022 37.7125 143.424 33.9236 141.389 31.2622C139.353 28.6007 135.667 28.0954 133.079 30.173C130.492 32.2505 130.09 36.0395 132.125 38.7009ZM133.564 37.5455C132.158 35.707 132.464 33.1779 134.269 31.7287C136.074 30.2794 138.544 30.5789 139.95 32.4175C141.356 34.2561 141.05 36.7851 139.245 38.2344C137.44 39.6836 134.97 39.3841 133.564 37.5455Z" fill="#10145B"/>
<path d="M140.847 52.4945L143.472 45.0871L150.522 46.6911L149.383 44.5735L142.855 43.1219L147.259 40.6242L146.344 38.9215L136.538 44.4816L137.454 46.1844L142.083 43.5594L139.67 50.3053L140.847 52.4945Z" fill="#10145B"/>
<path d="M154.044 56.078L149.681 57.7191L147.938 52.8033L152.301 51.1622L151.653 49.3341L141.137 53.2897L141.785 55.1177L146.238 53.4427L147.981 58.3585L143.528 60.0336L144.181 61.877L154.697 57.9214L154.044 56.078Z" fill="#10145B"/>
<path d="M146.078 71.1629L146.461 73.1526L156.727 65.5062L156.721 65.4741L144.412 62.4982L144.779 64.4077L147.507 65.0112L148.374 69.52L146.078 71.1629ZM149.401 65.4369L152.981 66.231L149.965 68.3733L149.401 65.4369Z" fill="#10145B"/>
</svg>
