<svg width="17" height="17" viewBox="0 0 17 17" fill="none" xmlns="http://www.w3.org/2000/svg">
<path fill-rule="evenodd" clip-rule="evenodd" d="M16.042 13.1625C16.042 13.5822 15.8787 13.9768 15.5818 14.2736L14.2734 15.5819C13.9766 15.8787 13.5821 16.0421 13.1624 16.0421H3.83757C3.41787 16.0421 3.02327 15.8787 2.72648 15.5819L1.41804 14.2737C1.12134 13.9768 0.957977 13.5822 0.957977 13.1625V3.8376C0.957977 3.4179 1.12134 3.0233 1.41804 2.72661L2.72648 1.41816C3.02327 1.12137 3.41787 0.958008 3.83757 0.958008H13.1624C13.5821 0.958008 13.9766 1.12137 14.2734 1.41816L15.5819 2.72661C15.8787 3.0233 16.042 3.41781 16.042 3.8376V13.1625ZM14.9507 0.740826C14.473 0.263098 13.8379 0 13.1624 0H3.83756C3.162 0 2.5269 0.263098 2.04908 0.740826L0.74073 2.04917C0.263002 2.5269 0 3.162 0 3.83756V13.1624C0 13.8379 0.263002 14.4731 0.74073 14.9508L2.04908 16.2592C2.5269 16.7368 3.162 17 3.83756 17H13.1624C13.8379 17 14.473 16.7368 14.9507 16.2592L16.2592 14.9508C16.7368 14.4731 17 13.838 17 13.1624V3.83756C17 3.16191 16.7368 2.5268 16.2592 2.04917L14.9507 0.740826Z" fill="#00A2C7"/>
<path fill-rule="evenodd" clip-rule="evenodd" d="M12.9625 3.05127C12.6103 3.05127 12.325 3.34404 12.325 3.70512C12.325 4.06625 12.6103 4.35896 12.9625 4.35896C13.3146 4.35896 13.6 4.06625 13.6 3.70512C13.6 3.34404 13.3146 3.05127 12.9625 3.05127Z" fill="#00A2C7"/>
<path d="M12.9625 3.05127C12.6103 3.05127 12.325 3.34404 12.325 3.70512C12.325 4.06625 12.6103 4.35896 12.9625 4.35896C13.3146 4.35896 13.6 4.06625 13.6 3.70512C13.6 3.34404 13.3146 3.05127 12.9625 3.05127" stroke="#00A2C7" stroke-width="0.5"/>
<path fill-rule="evenodd" clip-rule="evenodd" d="M8.49999 11.8907C6.58076 11.8907 5.01939 10.3694 5.01939 8.49934C5.01939 6.62932 6.58076 5.10791 8.49999 5.10791C10.4192 5.10791 11.9806 6.62932 11.9806 8.49934C11.9806 10.3694 10.4192 11.8907 8.49999 11.8907ZM8.5 4.35889C6.15652 4.35889 4.25 6.21659 4.25 8.49991C4.25 10.7833 6.15652 12.6409 8.5 12.6409C10.8435 12.6409 12.75 10.7833 12.75 8.49991C12.75 6.21659 10.8435 4.35889 8.5 4.35889Z" fill="#00A2C7"/>
<path d="M8.49999 11.6407C6.71267 11.6407 5.26939 10.2252 5.26939 8.49934H4.76939C4.76939 10.5135 6.44885 12.1407 8.49999 12.1407V11.6407ZM5.26939 8.49934C5.26939 6.77346 6.71268 5.35791 8.49999 5.35791V4.85791C6.44884 4.85791 4.76939 6.48517 4.76939 8.49934H5.26939ZM8.49999 5.35791C10.2873 5.35791 11.7306 6.77346 11.7306 8.49934H12.2306C12.2306 6.48517 10.5511 4.85791 8.49999 4.85791V5.35791ZM11.7306 8.49934C11.7306 10.2252 10.2873 11.6407 8.49999 11.6407V12.1407C10.5511 12.1407 12.2306 10.5135 12.2306 8.49934H11.7306ZM8.5 4.10889C6.0246 4.10889 4 6.07244 4 8.49991H4.5C4.5 6.36074 6.28843 4.60889 8.5 4.60889V4.10889ZM4 8.49991C4 10.9275 6.02461 12.8909 8.5 12.8909V12.3909C6.28843 12.3909 4.5 10.6392 4.5 8.49991H4ZM8.5 12.8909C10.9754 12.8909 13 10.9275 13 8.49991H12.5C12.5 10.6392 10.7116 12.3909 8.5 12.3909V12.8909ZM13 8.49991C13 6.07244 10.9754 4.10889 8.5 4.10889V4.60889C10.7116 4.60889 12.5 6.36074 12.5 8.49991H13Z" fill="#00A2C7"/>
</svg>
