<svg width="87" height="26" viewBox="0 0 87 26" fill="none" xmlns="http://www.w3.org/2000/svg">
<path fill-rule="evenodd" clip-rule="evenodd" d="M25 0V25H41.1253L43 20.9098H29.5601V14.5452H36.2794L38.1775 10.4548H29.5601V4.09017H40.3783L42.2725 0H25ZM62 13C62 20.1964 67.5813 26 74.5 26C81.3887 26 87 20.1964 87 13C87 5.83661 81.3887 0 74.5 0C67.5813 0 62 5.83661 62 13ZM83 12.9999C83 18.0523 79.1657 22 74.5188 22C69.8731 22 66 18.0523 66 12.9999C66 7.98672 69.8731 4 74.5188 4C79.1657 4 83 7.98672 83 12.9999ZM18.5089 0L11.5 15.8464L4.49106 0H0L11.5 26L23 0H18.5089ZM60.1022 25L62 20.8746H49.5265V0H45V25H60.1022Z" fill="#041E42"/>
</svg>
