<svg width="124" height="124" viewBox="0 0 124 124" fill="none" xmlns="http://www.w3.org/2000/svg">
<path d="M62.0011 120C30.0221 120 4 93.9799 4 61.9989H0C0 96.1891 27.8131 124 62.0011 124V120ZM4 61.9989C4 30.0201 30.0221 4 62.0011 4V0C27.8131 0 0 27.8108 0 61.9989H4ZM62.0011 4C93.9799 4 120 30.0201 120 61.9989H124C124 27.8109 96.1891 0 62.0011 0V4ZM120 61.9989C120 93.98 93.9799 120 62.0011 120V124C96.1891 124 124 96.189 124 61.9989H120Z" fill="#2CD5C4"/>
<path fill-rule="evenodd" clip-rule="evenodd" d="M71.5871 60.1059C69.117 60.0593 67.2353 60.7473 65.5864 61.3463C64.2931 61.8162 63.1776 62.2226 61.9669 62.2226C60.7583 62.2226 59.6449 61.8162 58.358 61.3463C56.7133 60.7473 54.8549 60.0657 52.3805 60.1059L27.5817 60.1038C32.2003 56.207 43.2598 47.135 48.2594 45.3062L48.8372 45.1263C52.7742 43.8965 57.2446 44.8046 60.426 47.5033C60.8662 47.8758 61.4166 48.0812 61.9775 48.0812C62.5363 48.0812 63.0866 47.8758 63.5269 47.5033C66.7082 44.8046 71.1765 43.8944 75.1177 45.1263L75.6469 45.2872C80.6846 47.0736 92.6797 56.1753 97.7279 60.1059H71.5871ZM74.7371 42.9169C72.4298 42.3717 72.576 42.538 71.4732 42.538C68.095 42.538 64.8057 43.7488 62.2107 45.9501C62.1366 46.0136 62.0562 46.0475 61.9779 46.0475C61.8974 46.0475 61.817 46.0136 61.7429 45.9501C59.1479 43.7488 55.8586 42.538 52.4804 42.538C51.3374 42.538 50.205 42.6714 49.1001 42.9423L49.0959 42.936L48.7657 43.027C48.6916 43.0482 48.6175 43.0693 48.5434 43.0905L48.2577 43.1709C41.8844 44.9468 24.877 59.7275 24.1573 60.3561L22.1084 62.1405H52.3957C54.5018 62.0918 56.1084 62.6929 57.6599 63.2581C59.0675 63.7724 60.3988 64.2571 61.9673 64.2571C63.5357 64.2571 64.8692 63.7724 66.2811 63.2602C67.8389 62.6929 69.4518 62.1066 71.5727 62.1405H97.7918C82.7868 74.233 75.2896 78.8557 61.9673 78.8557C49.5975 78.8557 42.0897 74.3303 31.5551 66.2489H28.2256C40.244 75.6088 48.1434 80.892 61.9863 80.892C77.2941 80.892 85.549 74.7304 101.308 61.9119L102.286 61.116L101.303 60.3286C100.804 59.9307 93.1775 53.8347 86.0486 48.9833L79.216 44.6502C79.216 44.6502 77.0445 43.4621 74.7371 42.9169Z" fill="#2CD5C4"/>
<path d="M94.8023 75.7344C95.9175 77.2558 97.17 80.0706 96.9105 83.964C96.7422 86.4889 95.5851 88.547 94.2267 90.0851C92.8709 91.6204 91.2971 92.6582 90.2446 93.1493L89.9045 92.4205C90.8629 91.9732 92.3455 91.0002 93.6238 89.5527C94.8997 88.1081 95.9545 86.2116 96.1079 83.9105C96.3602 80.1265 95.1046 77.4706 94.0958 76.132V78.3075C94.0958 78.5296 93.9157 78.7096 93.6936 78.7096C93.4715 78.7096 93.2915 78.5296 93.2915 78.3075V74.688C93.2915 74.5877 93.3281 74.4961 93.3888 74.4257C93.5087 74.2854 93.714 74.2421 93.8835 74.3326L97.0769 76.0364C97.2729 76.141 97.347 76.3846 97.2424 76.5805C97.1379 76.7765 96.8943 76.8506 96.6983 76.746L94.8023 75.7344Z" fill="#2CD5C4"/>
<path fill-rule="evenodd" clip-rule="evenodd" d="M52.713 104.558L50.5078 104.571L50.4452 94.2533L52.6523 94.2406L52.713 104.558ZM74.9048 94.107L74.9654 104.424L54.747 104.545L54.6857 94.2298L74.9048 94.107ZM79.1371 94.0826L79.1983 104.398L77.0025 104.41L76.9393 94.0938L79.1371 94.0826ZM48.4846 106.617L81.2457 106.422L81.1604 92.0339L48.3993 92.2292L48.4846 106.617Z" fill="#2CD5C4"/>
</svg>
