<svg width="125" height="124" viewBox="0 0 125 124" fill="none" xmlns="http://www.w3.org/2000/svg">
<path d="M62.0041 120C30.0246 120 4.00195 93.9794 4.00195 61.9979H0.00195312C0.00195312 96.1886 27.8155 124 62.0041 124V120ZM4.00195 61.9979C4.00195 30.0207 30.0245 4 62.0041 4V0C27.8156 0 0.00195312 27.8113 0.00195312 61.9979H4.00195ZM62.0041 4C93.9836 4 120.004 30.0206 120.004 61.9979H124.004C124.004 27.8113 96.1926 0 62.0041 0V4ZM120.004 61.9979C120.004 93.9795 93.9835 120 62.0041 120V124C96.1927 124 124.004 96.1886 124.004 61.9979H120.004Z" fill="#2CD5C4"/>
<path fill-rule="evenodd" clip-rule="evenodd" d="M59.1956 33.7056C59.4629 33.699 59.7311 33.6957 60 33.6957V35.7496C59.7492 35.7496 59.4992 35.7526 59.2501 35.7587C58.6599 35.7732 58.1692 35.3253 58.1542 34.7583C58.1392 34.1914 58.6054 33.72 59.1956 33.7056ZM55.1436 35.0806C55.2595 35.6367 54.8841 36.1777 54.3052 36.289C53.8149 36.3832 53.3292 36.4894 52.8483 36.6071C52.2762 36.7472 51.6942 36.4153 51.5484 35.8657C51.4026 35.3161 51.7481 34.757 52.3202 34.6169C52.837 34.4904 53.359 34.3763 53.8857 34.2751C54.4646 34.1638 55.0278 34.5244 55.1436 35.0806ZM48.6871 36.8275C48.9297 37.3445 48.6901 37.9526 48.1519 38.1857C47.6969 38.3827 47.2482 38.5908 46.806 38.8095C46.2812 39.0691 45.6366 38.8708 45.3663 38.3666C45.096 37.8624 45.3024 37.2431 45.8273 36.9835C46.3023 36.7486 46.7844 36.525 47.2733 36.3133C47.8115 36.0802 48.4445 36.3105 48.6871 36.8275ZM42.802 39.9178C43.1583 40.37 43.0656 41.0141 42.595 41.3564C42.1974 41.6456 41.8079 41.9444 41.4268 42.2525C40.9751 42.6177 40.3008 42.562 39.9206 42.128C39.5405 41.6941 39.5985 41.0463 40.0502 40.6811C40.4593 40.3503 40.8776 40.0294 41.3044 39.719C41.7751 39.3766 42.4456 39.4656 42.802 39.9178ZM37.7776 44.1868C38.2293 44.552 38.2873 45.1998 37.9071 45.6337C37.5864 45.9998 37.2754 46.374 36.9744 46.7559C36.618 47.2081 35.9475 47.2971 35.4769 46.9548C35.0062 46.6124 34.9135 45.9683 35.2699 45.5162C35.5931 45.1061 35.927 44.7043 36.2714 44.3112C36.6516 43.8773 37.3259 43.8216 37.7776 44.1868ZM33.8621 49.4182C34.387 49.6779 34.5934 50.2971 34.3231 50.8013C34.0955 51.2261 33.8789 51.6571 33.6738 52.0942C33.4312 52.6113 32.7982 52.8415 32.26 52.6084C31.7218 52.3753 31.4821 51.7673 31.7248 51.2502C31.9451 50.7806 32.1778 50.3174 32.4224 49.8611C32.6927 49.3569 33.3373 49.1586 33.8621 49.4182ZM31.2588 55.3571C31.8309 55.4972 32.1764 56.0563 32.0306 56.6059C31.908 57.0679 31.7975 57.5345 31.6994 58.0055C31.5836 58.5616 31.0204 58.9222 30.4415 58.811C29.8626 58.6997 29.4872 58.1587 29.603 57.6025C29.7084 57.0965 29.8272 56.595 29.9589 56.0986C30.1047 55.549 30.6867 55.217 31.2588 55.3571ZM30.1061 61.7031C30.6963 61.7175 31.1625 62.1889 31.1475 62.7558C31.1411 62.9952 31.1379 63.2354 31.1379 63.4763C31.1379 63.7164 31.1411 63.9557 31.1474 64.1942C31.1624 64.7611 30.6961 65.2324 30.106 65.2468C29.5158 65.2612 29.0252 64.8133 29.0102 64.2463C29.0034 63.9905 29 63.7338 29 63.4763C29 63.2179 29.0034 62.9603 29.0102 62.7035C29.0253 62.1365 29.5159 61.6886 30.1061 61.7031ZM30.4389 68.1203C31.0178 68.0089 31.5811 68.3693 31.6971 68.9254C31.795 69.3946 31.9053 69.8592 32.0276 70.319C32.1739 70.8684 31.8287 71.4277 31.2568 71.5682C30.6848 71.7087 30.1026 71.3772 29.9563 70.8277C29.8247 70.3332 29.7061 69.8335 29.6009 69.329C29.4849 68.7729 29.8601 68.2318 30.4389 68.1203ZM32.256 74.2978C32.7936 74.0634 33.4272 74.292 33.6713 74.8084C33.8767 75.2431 34.0936 75.6717 34.3217 76.0937C34.5938 76.5971 34.3895 77.2169 33.8655 77.4783C33.3416 77.7396 32.6963 77.5434 32.4243 77.04C32.1789 76.5861 31.9456 76.1251 31.7245 75.6574C31.4805 75.141 31.7185 74.5323 32.256 74.2978ZM35.4814 79.9189C35.9501 79.574 36.6211 79.6594 36.9801 80.1097C37.282 80.4882 37.594 80.859 37.9157 81.2217C38.2987 81.6533 38.2449 82.3014 37.7956 82.6693C37.3462 83.0372 36.6715 82.9856 36.2886 82.5539C35.9428 82.1642 35.6074 81.7656 35.2829 81.3586C34.9239 80.9084 35.0128 80.2638 35.4814 79.9189ZM39.9399 84.7002C40.3166 84.2635 40.9904 84.2028 41.4451 84.5647C41.827 84.8686 42.2173 85.1633 42.6157 85.4484C43.0892 85.7871 43.1872 86.4305 42.8345 86.8853C42.4819 87.3402 41.8122 87.4343 41.3387 87.0956C40.9107 86.7893 40.4913 86.4728 40.081 86.1462C39.6264 85.7843 39.5632 85.137 39.9399 84.7002ZM45.3951 88.4069C45.6613 87.9007 46.3043 87.6977 46.8312 87.9535C47.2733 88.168 47.722 88.3721 48.177 88.5653C48.717 88.7946 48.9612 89.401 48.7225 89.9197C48.4839 90.4384 47.8526 90.6731 47.3127 90.4438C46.824 90.2363 46.342 90.0171 45.8671 89.7866C45.3402 89.5308 45.1288 88.9131 45.3951 88.4069ZM51.5717 90.8577C51.7146 90.3074 52.2948 89.9726 52.8676 90.1099C53.3474 90.2249 53.8321 90.3285 54.3213 90.4204C54.9007 90.5294 55.2784 91.0689 55.1651 91.6255C55.0517 92.1821 54.4901 92.545 53.9107 92.4361C53.3857 92.3373 52.8654 92.2261 52.3502 92.1027C51.7774 91.9654 51.4288 91.408 51.5717 90.8577ZM58.1571 91.9384C58.1718 91.3714 58.6621 90.9232 59.2523 90.9373C59.5008 90.9433 59.75 90.9463 60 90.9463V93.0001C59.7323 93.0001 59.4653 92.9969 59.1991 92.9905C58.6089 92.9764 58.1424 92.5053 58.1571 91.9384Z" fill="#2CD5C4"/>
<path d="M63.3124 33.8527C62.8959 34.2547 62.8959 34.9065 63.3124 35.3085L70.1006 41.8596C70.5172 42.2617 71.1926 42.2617 71.6091 41.8596C72.0257 41.4577 72.0257 40.8059 71.6091 40.4038L65.5752 34.5806L71.6091 28.7573C72.0257 28.3553 72.0257 27.7035 71.6091 27.3015C71.1926 26.8995 70.5172 26.8995 70.1006 27.3015L63.3124 33.8527ZM92.8667 63.4043C92.8667 78.7426 79.985 90.9412 64.0667 90.9412V93C81.1381 93 95 79.9038 95 63.4043H92.8667ZM64.0667 35.61C79.9725 35.61 92.8667 48.0539 92.8667 63.4043H95C95 46.9169 81.1507 33.5512 64.0667 33.5512V35.61Z" fill="#2CD5C4"/>
</svg>
