<svg width="124" height="124" viewBox="0 0 124 124" fill="none" xmlns="http://www.w3.org/2000/svg">
<path d="M62.0011 120C30.0221 120 4 93.9799 4 61.9989H0C0 96.1891 27.8131 124 62.0011 124V120ZM4 61.9989C4 30.0201 30.0221 4 62.0011 4V0C27.8131 0 0 27.8108 0 61.9989H4ZM62.0011 4C93.9799 4 120 30.0201 120 61.9989H124C124 27.8109 96.1891 0 62.0011 0V4ZM120 61.9989C120 93.98 93.9799 120 62.0011 120V124C96.1891 124 124 96.189 124 61.9989H120Z" fill="#2CD5C4"/>
<path fill-rule="evenodd" clip-rule="evenodd" d="M73.1778 47.5328C72.2197 47.3337 71.2411 47.2335 70.2558 47.2335C66.8851 47.2335 63.603 48.4256 61.0137 50.5953C60.9398 50.6558 60.8596 50.6891 60.7793 50.6891C60.7012 50.6891 60.6209 50.6558 60.547 50.5953C57.9577 48.4256 54.6735 47.2335 51.3049 47.2335C50.1644 47.2335 49.0324 47.3669 47.93 47.6336L47.9278 47.6253L47.5984 47.717C47.5245 47.7358 47.4505 47.7566 47.3766 47.7774L47.0915 47.8566C40.7302 49.6053 23.7625 64.1596 23.0423 64.7786L21 66.5357H51.2204C53.2824 66.4886 54.8645 67.0576 56.3856 67.6047L56.473 67.6361C57.8774 68.1426 59.2038 68.6199 60.7709 68.6199C62.3334 68.6199 63.6622 68.1441 65.0684 67.6406L65.0751 67.6382L65.0942 67.6314C66.6427 67.077 68.2475 66.5025 70.355 66.5357H96.5162C81.5444 78.443 74.0637 82.9949 60.7709 82.9949C48.4263 82.9949 40.9372 78.5388 30.4237 70.5812H27.1036C39.0934 79.7977 46.9753 85 60.7899 85C76.0638 85 84.3005 78.9328 100.024 66.3126L101 65.529L100.018 64.7515C99.6468 64.4585 95.2983 61.0294 90.1541 57.3208C89.5505 57.7451 88.9002 58.1098 88.2119 58.4059C91.4643 60.7363 94.4858 63.0222 96.4523 64.5326H70.3693C67.9102 64.489 66.0388 65.1599 64.3973 65.7484L64.3818 65.754L64.3721 65.7575C63.0858 66.2187 61.9753 66.6169 60.7703 66.6169C59.5622 66.6169 58.4513 66.2167 57.1673 65.754L57.1475 65.7469C55.5135 65.1588 53.6641 64.4932 51.2051 64.5326H26.4611C31.0694 60.6934 42.1046 51.7624 47.0931 49.9596L47.6675 49.7824C51.5979 48.5715 56.0585 49.4656 59.2328 52.123C59.6721 52.4898 60.2212 52.692 60.7788 52.692C61.3384 52.692 61.8875 52.4898 62.3268 52.123C65.3047 49.6284 69.4177 48.6858 73.1619 49.5831C73.1445 49.3874 73.1325 49.1901 73.1259 48.9913C73.1095 48.4977 73.1276 48.0107 73.1778 47.5328Z" fill="#2CD5C4"/>
<path fill-rule="evenodd" clip-rule="evenodd" d="M94.6862 48.2957C94.4919 42.4202 89.5076 37.814 83.5539 38.0058C77.6023 38.1975 72.9327 43.1163 73.127 48.9898C73.3213 54.8652 78.3056 59.4714 84.2593 59.2818C90.2109 59.0879 94.8805 54.1712 94.6862 48.2957Z" stroke="#2CD5C4" stroke-width="2.63158" stroke-dasharray="5.26"/>
<path fill-rule="evenodd" clip-rule="evenodd" d="M88.8626 47.627C88.7695 44.7738 86.3819 42.5386 83.5286 42.6317C80.6775 42.7248 78.4402 45.1124 78.5333 47.9636C78.6265 50.8169 81.0141 53.0542 83.8673 52.961C86.7185 52.8679 88.9558 50.4803 88.8626 47.627Z" stroke="#2CD5C4" stroke-width="2.63158" stroke-dasharray="5.26"/>
</svg>
