<svg width="124" height="124" viewBox="0 0 124 124" fill="none" xmlns="http://www.w3.org/2000/svg">
<path d="M62.0011 122C28.9176 122 2 95.084 2 62C2 28.916 28.9176 2 62.0011 2C95.0845 2 122 28.916 122 62C122 95.084 95.0845 122 62.0011 122" stroke="#2CD5C4" stroke-width="4"/>
<path fill-rule="evenodd" clip-rule="evenodd" d="M75.8853 40.1534L73.7971 40.8082L70.7298 31.0472L72.8202 30.3924L75.8853 40.1534ZM93.8936 23.7866L96.9587 33.5475L77.8115 39.5498L74.7464 29.7909L93.8936 23.7866ZM97.9028 22.5311L100.968 32.29L98.8881 32.9406L95.8209 23.1817L97.9028 22.5311ZM72.4728 43.3374L103.498 33.6121L99.223 20L68.1976 29.7253L72.4728 43.3374Z" fill="#2CD5C4"/>
<path fill-rule="evenodd" clip-rule="evenodd" d="M21.5205 49.5702C21.5205 37.4566 31.384 27.6012 43.5101 27.6012C55.6362 27.6012 65.4997 37.4566 65.4997 49.5702C65.4997 61.6818 55.6362 71.5372 43.5101 71.5372C31.384 71.5372 21.5205 61.6818 21.5205 49.5702ZM88.5014 78.2803C88.5014 90.3918 78.6379 100.245 66.5118 100.245C54.3878 100.245 44.5222 90.3918 44.5222 78.2803C44.5222 76.6371 44.7091 75.04 45.0516 73.4995H45.0495C55.2659 72.851 63.7639 65.791 66.5496 56.3113C66.5496 56.3113 66.5496 56.3113 66.5496 56.3134C78.6568 56.3344 88.5014 66.1772 88.5014 78.2803ZM71.8277 49.0458V51.0962C84.582 53.579 94.2396 64.8237 94.2396 78.2805C94.2396 93.5548 81.8005 105.981 66.5105 105.981C51.2205 105.981 38.7813 93.5548 38.7813 78.2805C38.7813 76.5344 38.9578 74.8282 39.2708 73.1723C40.4746 73.3885 41.712 73.5123 42.9725 73.5438C42.6637 75.0737 42.4998 76.6582 42.4998 78.2805C42.4998 91.5043 53.273 102.264 66.5105 102.264C79.75 102.264 90.5211 91.5043 90.5211 78.2805C90.5211 65.2351 80.04 54.5948 67.0483 54.3072V54.3093C67.3571 52.7752 67.521 51.1907 67.521 49.5705C67.521 36.3425 56.7499 25.5825 43.5103 25.5825C30.2729 25.5825 19.4997 36.3425 19.4997 49.5705C19.4997 60.6474 27.0628 69.9928 37.2981 72.7358C36.9557 74.5344 36.7603 76.3833 36.7603 78.2805C36.7603 94.6671 50.1049 108 66.5105 108C82.9139 108 96.2606 94.6671 96.2606 78.2805C96.2606 63.7052 85.7018 51.558 71.8277 49.0458Z" fill="#2CD5C4"/>
<path d="M94.8006 56.9771C96.388 55.9854 98.5773 53.8528 99.769 50.1715C100.542 47.7843 100.231 45.4638 99.5444 43.5485C98.8586 41.6367 97.789 40.103 96.9992 39.2642L96.4177 39.8107C97.1369 40.5744 98.1463 42.015 98.7929 43.8175C99.4382 45.6165 99.7137 47.7505 99.0094 49.9262C97.8512 53.504 95.7175 55.4891 94.2954 56.3515L95.095 54.3479C95.1766 54.1434 95.0768 53.9114 94.872 53.8299C94.6672 53.7483 94.435 53.848 94.3534 54.0526L93.0231 57.3862C92.9863 57.4785 92.9864 57.5764 93.0164 57.6635C93.0754 57.8368 93.2488 57.952 93.4384 57.9309L97.0088 57.5341C97.2279 57.5098 97.3857 57.3126 97.3614 57.0938C97.337 56.8749 97.1396 56.7172 96.9205 56.7415L94.8006 56.9771Z" fill="#2CD5C4"/>
</svg>
