<svg width="25" height="25" viewBox="0 0 25 25" fill="none" xmlns="http://www.w3.org/2000/svg">
<path d="M20.4066 8.05851L20.4016 8.03876C20.0023 6.42432 18.2019 4.69194 16.5485 4.33154L16.5298 4.3277C13.8555 3.81753 11.144 3.81753 8.47023 4.3277L8.45103 4.33154C6.79819 4.69194 4.99779 6.42432 4.59788 8.03876L4.59349 8.05851C4.09978 10.3131 4.09978 12.5996 4.59349 14.8542L4.59788 14.8739C4.98073 16.4195 6.64706 18.0723 8.23873 18.5268V20.329C8.23873 20.9812 9.03361 21.3016 9.48563 20.8309L11.3115 18.9329C11.7076 18.9551 12.1038 18.9674 12.5 18.9674C13.8462 18.9674 15.1929 18.8401 16.5298 18.5851L16.5485 18.5812C18.2019 18.2208 20.0023 16.4884 20.4016 14.874L20.4066 14.8542C20.9003 12.5996 20.9003 10.3131 20.4066 8.05851ZM18.9616 14.5272C18.695 15.5805 17.328 16.8899 16.2418 17.1318C14.8199 17.4022 13.3867 17.5178 11.9549 17.4782C11.9264 17.4774 11.8991 17.4884 11.8792 17.5088C11.676 17.7174 10.546 18.8774 10.546 18.8774L9.12796 20.3327C9.02429 20.4408 8.84216 20.3673 8.84216 20.2181V17.2327C8.84216 17.1833 8.80694 17.1414 8.7585 17.1319C8.75823 17.1319 8.75795 17.1318 8.75768 17.1318C7.67151 16.8899 6.30503 15.5804 6.03787 14.5272C5.59353 12.4892 5.59353 10.4233 6.03787 8.3854C6.30503 7.33215 7.67151 6.02272 8.75768 5.7808C11.2411 5.30848 13.759 5.30848 16.2418 5.7808C17.3285 6.02272 18.695 7.33215 18.9616 8.3854C19.4065 10.4234 19.4065 12.4893 18.9616 14.5272Z" fill="#041E42"/>
<path d="M14.8628 15.9052C14.6958 15.8546 14.5367 15.8205 14.3889 15.7592C12.8575 15.1238 11.4481 14.3041 10.3317 13.0476C9.69685 12.3331 9.19996 11.5265 8.77992 10.6728C8.58073 10.2679 8.41287 9.84723 8.24177 9.42928C8.08576 9.04813 8.31555 8.65437 8.55753 8.36719C8.78458 8.09768 9.07675 7.89142 9.39316 7.73941C9.64013 7.62075 9.88375 7.68916 10.0641 7.8985C10.454 8.35106 10.8122 8.82678 11.1022 9.35138C11.2806 9.67405 11.2316 10.0685 10.9084 10.2881C10.8299 10.3414 10.7583 10.4041 10.6851 10.4644C10.6209 10.5172 10.5605 10.5706 10.5165 10.6421C10.4361 10.773 10.4323 10.9274 10.4841 11.0697C10.8826 12.165 11.5545 13.0168 12.657 13.4756C12.8334 13.549 13.0106 13.6344 13.2138 13.6107C13.5542 13.571 13.6644 13.1976 13.903 13.0025C14.1361 12.8119 14.434 12.8094 14.6852 12.9683C14.9364 13.1273 15.1799 13.298 15.4219 13.4704C15.6595 13.6397 15.896 13.8053 16.1152 13.9983C16.3259 14.1839 16.3985 14.4273 16.2798 14.6792C16.0626 15.1404 15.7465 15.5242 15.2905 15.7691C15.1618 15.8382 15.008 15.8605 14.8628 15.9052C14.6958 15.8545 15.008 15.8605 14.8628 15.9052Z" fill="#041E42"/>
<path d="M12.5042 7.21201C14.5073 7.26813 16.1525 8.59748 16.5051 10.5778C16.5652 10.9152 16.5866 11.2602 16.6133 11.6027C16.6245 11.7468 16.543 11.8836 16.3875 11.8855C16.2269 11.8874 16.1547 11.7531 16.1443 11.6091C16.1236 11.324 16.1093 11.0377 16.07 10.7551C15.8627 9.2629 14.6728 8.0284 13.1876 7.76349C12.9641 7.72361 12.7353 7.71313 12.5089 7.68938C12.3658 7.67435 12.1784 7.66568 12.1466 7.48778C12.12 7.33863 12.2459 7.21986 12.388 7.21223C12.4266 7.2101 12.4654 7.21185 12.5042 7.21201C14.5073 7.26813 12.4654 7.21185 12.5042 7.21201Z" fill="#041E42"/>
<path d="M15.5483 11.1582C15.545 11.1832 15.5433 11.242 15.5286 11.2974C15.4755 11.4985 15.1706 11.5237 15.1004 11.3207C15.0796 11.2605 15.0765 11.192 15.0763 11.1271C15.0756 10.7029 14.9834 10.2791 14.7695 9.90993C14.5495 9.53054 14.2136 9.2116 13.8195 9.01861C13.5812 8.90193 13.3234 8.82941 13.0623 8.78618C12.9481 8.76731 12.8327 8.75584 12.718 8.73988C12.579 8.72057 12.5048 8.63198 12.5114 8.495C12.5175 8.36663 12.6113 8.27431 12.7512 8.28221C13.2109 8.30832 13.6549 8.40767 14.0636 8.62408C14.8947 9.0642 15.3694 9.75891 15.508 10.6865C15.5143 10.7286 15.5244 10.7702 15.5275 10.8124C15.5354 10.9166 15.5403 11.0208 15.5483 11.1582C15.545 11.1832 15.5403 11.0208 15.5483 11.1582Z" fill="#041E42"/>
<path d="M14.3024 11.1097C14.1348 11.1128 14.0451 11.02 14.0278 10.8663C14.0158 10.7592 14.0063 10.6506 13.9808 10.5464C13.9304 10.3411 13.8213 10.1509 13.6486 10.0251C13.5671 9.9657 13.4747 9.92242 13.3779 9.8945C13.255 9.85901 13.1273 9.86877 13.0047 9.83871C12.8715 9.80607 12.7978 9.69822 12.8188 9.57326C12.8378 9.45954 12.9485 9.37078 13.0727 9.37978C13.8493 9.43584 14.4044 9.83734 14.4836 10.7516C14.4892 10.8161 14.4957 10.8843 14.4814 10.946C14.4569 11.0516 14.3787 11.1046 14.3024 11.1097C14.1348 11.1128 14.3787 11.1046 14.3024 11.1097Z" fill="#041E42"/>
</svg>
