<svg width="1920" height="70" viewBox="0 0 1920 70" fill="none" xmlns="http://www.w3.org/2000/svg">
<rect width="1920" height="70" fill="#F0F0F0"/>
<path d="M375.12 27.224H361.44V44H365.016V30.656H371.52V44H375.12V27.224ZM384.419 27.224H377.987V44H381.611V37.448H384.419C387.371 37.448 389.771 35.288 389.771 32.336C389.771 29.384 387.371 27.224 384.419 27.224ZM384.299 34.136H381.611V30.56H384.299C385.331 30.56 386.123 31.256 386.123 32.336C386.123 33.392 385.331 34.136 384.299 34.136ZM400.047 44.408C405.015 44.408 409.023 40.52 409.023 35.6C409.023 30.68 405.015 26.792 400.047 26.792C395.079 26.792 391.071 30.68 391.071 35.6C391.071 40.52 395.079 44.408 400.047 44.408ZM400.047 40.976C397.047 40.976 394.743 38.648 394.743 35.6C394.743 32.552 397.047 30.224 400.047 30.224C403.047 30.224 405.351 32.552 405.351 35.6C405.351 38.648 403.047 40.976 400.047 40.976ZM424.35 40.568V27.224H412.422V36.656C412.422 39.032 411.438 40.568 409.446 40.568H409.422V47.624H412.926V44H423.294V47.624H426.798V40.568H424.35ZM414.63 40.568C415.494 39.608 415.998 38.192 415.998 36.176V30.656H420.726V40.568H414.63ZM437.403 27.224L433.707 35.504L429.963 27.224H425.979L431.715 39.848L429.771 44H433.731L441.363 27.224H437.403ZM457.572 44L450.228 35.312L457.164 27.224H452.652L446.556 34.472V27.224H442.932V44H446.556V36.368L452.94 44H457.572ZM462.401 44H466.025V30.656H469.793L471.353 27.224H458.081V30.656H462.401V44ZM485.266 44.408C488.338 44.408 491.026 43.112 492.826 40.424L489.802 38.576C488.674 40.112 487.042 40.976 485.266 40.976C482.266 40.976 479.962 38.648 479.962 35.6C479.962 32.552 482.266 30.224 485.266 30.224C487.042 30.224 488.674 31.088 489.802 32.624L492.826 30.776C491.026 28.088 488.338 26.792 485.266 26.792C480.298 26.792 476.29 30.68 476.29 35.6C476.29 40.52 480.298 44.408 485.266 44.408ZM502.469 44.408C507.437 44.408 511.445 40.52 511.445 35.6C511.445 30.68 507.437 26.792 502.469 26.792C497.501 26.792 493.493 30.68 493.493 35.6C493.493 40.52 497.501 44.408 502.469 44.408ZM502.469 40.976C499.469 40.976 497.165 38.648 497.165 35.6C497.165 32.552 499.469 30.224 502.469 30.224C505.469 30.224 507.773 32.552 507.773 35.6C507.773 38.648 505.469 40.976 502.469 40.976ZM526.772 40.568V27.224H514.844V36.656C514.844 39.032 513.86 40.568 511.868 40.568H511.844V47.624H515.348V44H525.716V47.624H529.22V40.568H526.772ZM517.052 40.568C517.916 39.608 518.42 38.192 518.42 36.176V30.656H523.148V40.568H517.052ZM534.939 37.232H539.355L540.915 33.824H534.939V30.656H541.083L542.643 27.224H531.315V44H541.083L542.643 40.568H534.939V37.232ZM551.013 27.224H544.581V44H548.205V37.448H551.013C553.965 37.448 556.365 35.288 556.365 32.336C556.365 29.384 553.965 27.224 551.013 27.224ZM550.893 34.136H548.205V30.56H550.893C551.925 30.56 552.717 31.256 552.717 32.336C552.717 33.392 551.925 34.136 550.893 34.136ZM579.806 44L573.35 35.312L579.374 27.224H574.982L569.774 34.376V27.224H566.246V34.376L561.038 27.224H556.646L562.718 35.312L556.238 44H560.75L566.246 36.44V44H569.774V36.44L575.27 44H579.806ZM594.873 26.72L584.697 36.56V27.224H581.073V44.504H581.121L591.297 34.64V44H594.921V26.72H594.873ZM601.479 44H605.103V30.656H608.871L610.431 27.224H597.159V30.656H601.479V44ZM626.6 27.224V33.824H619.736V27.224H616.112V44H619.736V37.232H626.6V44H630.224V27.224H626.6ZM646.904 26.72L636.728 36.56V27.224H633.104V44.504H633.152L643.328 34.64V44H646.952V26.72H646.904ZM664.478 44L657.134 35.312L664.07 27.224H659.558L653.462 34.472V27.224H649.838V44H653.462V36.368L659.846 44H664.478ZM672.555 44.408C677.523 44.408 681.531 40.52 681.531 35.6C681.531 30.68 677.523 26.792 672.555 26.792C667.587 26.792 663.579 30.68 663.579 35.6C663.579 40.52 667.587 44.408 672.555 44.408ZM672.555 40.976C669.555 40.976 667.251 38.648 667.251 35.6C667.251 32.552 669.555 30.224 672.555 30.224C675.555 30.224 677.859 32.552 677.859 35.6C677.859 38.648 675.555 40.976 672.555 40.976ZM686.346 44H689.97V30.656H693.738L695.298 27.224H682.026V30.656H686.346V44ZM710.631 26.72L700.455 36.56V27.224H696.831V44.504H696.879L707.055 34.64V44H710.679V26.72H710.631ZM724.053 27.224V33.824H717.189V27.224H713.565V44H717.189V37.232H724.053V44H727.677V27.224H724.053ZM748.506 26.72L738.33 36.56V27.224H734.706V44.504H734.754L744.93 34.64V44H748.554V26.72H748.506ZM764.804 35.168C765.884 34.4 766.556 33.224 766.556 31.76C766.556 29.144 764.3 27.224 761.42 27.224H755.588V44H761.852C764.828 44 767.204 41.864 767.204 39.032C767.204 37.304 766.244 35.936 764.804 35.168ZM761.3 30.464C762.332 30.464 763.076 31.136 763.076 32.144C763.076 33.176 762.332 33.848 761.3 33.848H759.068V30.464H761.3ZM761.684 40.76H759.068V36.896H761.684C762.86 36.896 763.7 37.688 763.7 38.84C763.7 39.968 762.86 40.76 761.684 40.76ZM775.587 33.56H772.947V27.224H769.323V44H775.587C778.587 44 781.011 41.792 781.011 38.768C781.011 35.768 778.587 33.56 775.587 33.56ZM782.331 27.224V44H785.955V27.224H782.331ZM775.467 40.616H772.947V36.92H775.467C776.571 36.92 777.411 37.664 777.411 38.768C777.411 39.896 776.571 40.616 775.467 40.616ZM797.318 35.168C798.518 34.352 799.286 33.104 799.286 31.568C799.286 28.76 796.91 26.864 793.694 26.864C791.15 26.864 789.062 28.112 787.91 30.2L790.934 31.976C791.534 30.896 792.35 30.224 793.526 30.224C794.774 30.224 795.662 30.968 795.662 31.952C795.662 32.936 794.87 33.68 793.67 33.68H792.254V36.992H793.742C795.134 36.992 796.046 37.784 796.046 38.96C796.046 40.088 795.11 40.976 793.646 40.976C792.206 40.976 791.15 40.208 790.526 39.128L787.718 41.12C788.75 42.944 790.862 44.336 793.646 44.336C797.198 44.336 799.694 42.056 799.694 39.176C799.694 37.448 798.758 36.032 797.318 35.168ZM808.212 33.56H805.572V27.224H801.948V44H808.212C811.212 44 813.636 41.792 813.636 38.768C813.636 35.768 811.212 33.56 808.212 33.56ZM814.956 27.224V44H818.58V27.224H814.956ZM808.092 40.616H805.572V36.92H808.092C809.196 36.92 810.036 37.664 810.036 38.768C810.036 39.896 809.196 40.616 808.092 40.616ZM830.687 35.168C831.767 34.4 832.439 33.224 832.439 31.76C832.439 29.144 830.183 27.224 827.303 27.224H821.471V44H827.735C830.711 44 833.087 41.864 833.087 39.032C833.087 37.304 832.127 35.936 830.687 35.168ZM827.183 30.464C828.215 30.464 828.959 31.136 828.959 32.144C828.959 33.176 828.215 33.848 827.183 33.848H824.951V30.464H827.183ZM827.567 40.76H824.951V36.896H827.567C828.743 36.896 829.583 37.688 829.583 38.84C829.583 39.968 828.743 40.76 827.567 40.76ZM845.18 44H848.948L841.004 26.744H840.956L833.012 44H836.588L837.74 41.264H844.004L845.18 44ZM839.156 37.952L840.86 33.944L842.588 37.952H839.156ZM853.83 37.232H858.246L859.806 33.824H853.83V30.656H859.974L861.534 27.224H850.206V44H859.974L861.534 40.568H853.83V37.232ZM867.143 44H870.767V30.656H874.535L876.095 27.224H862.823V30.656H867.143V44ZM895.456 27.224H881.776V44H885.352V30.656H891.856V44H895.456V27.224ZM904.755 27.224H898.323V44H901.947V37.448H904.755C907.707 37.448 910.107 35.288 910.107 32.336C910.107 29.384 907.707 27.224 904.755 27.224ZM904.635 34.136H901.947V30.56H904.635C905.667 30.56 906.459 31.256 906.459 32.336C906.459 33.392 905.667 34.136 904.635 34.136ZM925.857 26.72L915.681 36.56V27.224H912.057V44.504H912.105L922.281 34.64V44H925.905V26.72H925.857ZM938.008 35.168C939.088 34.4 939.76 33.224 939.76 31.76C939.76 29.144 937.504 27.224 934.624 27.224H928.792V44H935.056C938.032 44 940.408 41.864 940.408 39.032C940.408 37.304 939.448 35.936 938.008 35.168ZM934.504 30.464C935.536 30.464 936.28 31.136 936.28 32.144C936.28 33.176 935.536 33.848 934.504 33.848H932.272V30.464H934.504ZM934.888 40.76H932.272V36.896H934.888C936.064 36.896 936.904 37.688 936.904 38.84C936.904 39.968 936.064 40.76 934.888 40.76ZM948.79 33.56H946.15V27.224H942.526V44H948.79C951.79 44 954.214 41.792 954.214 38.768C954.214 35.768 951.79 33.56 948.79 33.56ZM955.534 27.224V44H959.158V27.224H955.534ZM948.67 40.616H946.15V36.92H948.67C949.774 36.92 950.614 37.664 950.614 38.768C950.614 39.896 949.774 40.616 948.67 40.616ZM976.689 44L969.345 35.312L976.281 27.224H971.769L965.673 34.472V27.224H962.049V44H965.673V36.368L972.057 44H976.689ZM988.617 44H992.385L984.441 26.744H984.393L976.449 44H980.025L981.177 41.264H987.441L988.617 44ZM982.593 37.952L984.297 33.944L986.025 37.952H982.593ZM1004.13 27.224V33.824H997.267V27.224H993.643V44H997.267V37.232H1004.13V44H1007.76V27.224H1004.13ZM1024.44 26.72L1014.26 36.56V27.224H1010.64V44.504H1010.68L1020.86 34.64V44H1024.48V26.72H1024.44ZM1030.99 37.232H1035.41L1036.97 33.824H1030.99V30.656H1037.14L1038.7 27.224H1027.37V44H1037.14L1038.7 40.568H1030.99V37.232ZM1042.15 44.312C1043.42 44.312 1044.43 43.28 1044.43 42.032C1044.43 40.784 1043.42 39.752 1042.15 39.752C1040.88 39.752 1039.87 40.784 1039.87 42.032C1039.87 43.28 1040.88 44.312 1042.15 44.312ZM1054.34 44H1057.96V30.656H1061.73L1063.29 27.224H1050.02V30.656H1054.34V44ZM1071.58 44.408C1076.55 44.408 1080.55 40.52 1080.55 35.6C1080.55 30.68 1076.55 26.792 1071.58 26.792C1066.61 26.792 1062.6 30.68 1062.6 35.6C1062.6 40.52 1066.61 44.408 1071.58 44.408ZM1071.58 40.976C1068.58 40.976 1066.27 38.648 1066.27 35.6C1066.27 32.552 1068.58 30.224 1071.58 30.224C1074.58 30.224 1076.88 32.552 1076.88 35.6C1076.88 38.648 1074.58 40.976 1071.58 40.976ZM1095.95 27.224H1084.03V37.712C1084.03 39.848 1083.38 40.76 1081.84 40.76C1081.55 40.76 1081.24 40.736 1080.91 40.664V44.024C1081.46 44.12 1081.99 44.168 1082.47 44.168C1086.4 44.168 1087.65 41.432 1087.65 37.736V30.656H1092.33V44H1095.95V27.224ZM1105.24 33.56H1102.45V27.224H1098.83V44H1105.24C1108.26 44 1110.69 41.792 1110.69 38.768C1110.69 35.768 1108.26 33.56 1105.24 33.56ZM1105.14 40.616H1102.45V36.92H1105.14C1106.22 36.92 1107.09 37.664 1107.09 38.768C1107.09 39.896 1106.22 40.616 1105.14 40.616ZM1127.49 44L1120.14 35.312L1127.08 27.224H1122.57L1116.47 34.472V27.224H1112.85V44H1116.47V36.368L1122.85 44H1127.49ZM1135.56 44.408C1140.53 44.408 1144.54 40.52 1144.54 35.6C1144.54 30.68 1140.53 26.792 1135.56 26.792C1130.59 26.792 1126.59 30.68 1126.59 35.6C1126.59 40.52 1130.59 44.408 1135.56 44.408ZM1135.56 40.976C1132.56 40.976 1130.26 38.648 1130.26 35.6C1130.26 32.552 1132.56 30.224 1135.56 30.224C1138.56 30.224 1140.87 32.552 1140.87 35.6C1140.87 38.648 1138.56 40.976 1135.56 40.976ZM1164.98 40.568V27.224H1153.05V36.656C1153.05 39.032 1152.06 40.568 1150.07 40.568H1150.05V47.624H1153.55V44H1163.92V47.624H1167.42V40.568H1164.98ZM1155.26 40.568C1156.12 39.608 1156.62 38.192 1156.62 36.176V30.656H1161.35V40.568H1155.26ZM1183.75 27.224H1171.82V37.712C1171.82 39.848 1171.17 40.76 1169.64 40.76C1169.35 40.76 1169.04 40.736 1168.7 40.664V44.024C1169.25 44.12 1169.78 44.168 1170.26 44.168C1174.2 44.168 1175.45 41.432 1175.45 37.736V30.656H1180.13V44H1183.75V27.224ZM1198.17 27.224H1191.6C1188.64 27.224 1186.32 29.36 1186.32 32.288C1186.32 34.688 1187.97 36.56 1190.23 37.112L1185.21 44H1189.48L1194.67 36.776V44H1198.17V27.224ZM1191.86 30.536H1194.67V34.112H1191.86C1190.76 34.112 1189.94 33.416 1189.94 32.336C1189.94 31.232 1190.78 30.536 1191.86 30.536ZM1213.45 44.408C1216.52 44.408 1219.21 43.112 1221.01 40.424L1217.98 38.576C1216.85 40.112 1215.22 40.976 1213.45 40.976C1210.45 40.976 1208.14 38.648 1208.14 35.6C1208.14 32.552 1210.45 30.224 1213.45 30.224C1215.22 30.224 1216.85 31.088 1217.98 32.624L1221.01 30.776C1219.21 28.088 1216.52 26.792 1213.45 26.792C1208.48 26.792 1204.47 30.68 1204.47 35.6C1204.47 40.52 1208.48 44.408 1213.45 44.408ZM1230.65 44.408C1235.62 44.408 1239.62 40.52 1239.62 35.6C1239.62 30.68 1235.62 26.792 1230.65 26.792C1225.68 26.792 1221.67 30.68 1221.67 35.6C1221.67 40.52 1225.68 44.408 1230.65 44.408ZM1230.65 40.976C1227.65 40.976 1225.34 38.648 1225.34 35.6C1225.34 32.552 1227.65 30.224 1230.65 30.224C1233.65 30.224 1235.95 32.552 1235.95 35.6C1235.95 38.648 1233.65 40.976 1230.65 40.976ZM1250.97 35.168C1252.05 34.4 1252.72 33.224 1252.72 31.76C1252.72 29.144 1250.46 27.224 1247.58 27.224H1241.75V44H1248.02C1250.99 44 1253.37 41.864 1253.37 39.032C1253.37 37.304 1252.41 35.936 1250.97 35.168ZM1247.46 30.464C1248.5 30.464 1249.24 31.136 1249.24 32.144C1249.24 33.176 1248.5 33.848 1247.46 33.848H1245.23V30.464H1247.46ZM1247.85 40.76H1245.23V36.896H1247.85C1249.02 36.896 1249.86 37.688 1249.86 38.84C1249.86 39.968 1249.02 40.76 1247.85 40.76ZM1259.11 37.232H1263.53L1265.09 33.824H1259.11V30.656H1265.25L1266.81 27.224H1255.49V44H1265.25L1266.81 40.568H1259.11V37.232ZM1275.18 27.224H1268.75V44H1272.38V37.448H1275.18C1278.14 37.448 1280.54 35.288 1280.54 32.336C1280.54 29.384 1278.14 27.224 1275.18 27.224ZM1275.06 34.136H1272.38V30.56H1275.06C1276.1 30.56 1276.89 31.256 1276.89 32.336C1276.89 33.392 1276.1 34.136 1275.06 34.136ZM1282.49 44H1302.84V27.224H1299.19V40.568H1294.46V27.224H1290.84V40.568H1286.11V27.224H1282.49V44ZM1309.34 37.232H1313.75L1315.31 33.824H1309.34V30.656H1315.48L1317.04 27.224H1305.71V44H1315.48L1317.04 40.568H1309.34V37.232ZM1329.47 27.224V33.824H1322.6V27.224H1318.98V44H1322.6V37.232H1329.47V44H1333.09V27.224H1329.47ZM1346.46 27.224V33.824H1339.6V27.224H1335.97V44H1339.6V37.232H1346.46V44H1350.08V27.224H1346.46ZM1361.2 44.408C1366.16 44.408 1370.17 40.52 1370.17 35.6C1370.17 30.68 1366.16 26.792 1361.2 26.792C1356.23 26.792 1352.22 30.68 1352.22 35.6C1352.22 40.52 1356.23 44.408 1361.2 44.408ZM1361.2 40.976C1358.2 40.976 1355.89 38.648 1355.89 35.6C1355.89 32.552 1358.2 30.224 1361.2 30.224C1364.2 30.224 1366.5 32.552 1366.5 35.6C1366.5 38.648 1364.2 40.976 1361.2 40.976ZM1385.57 27.224H1373.64V37.712C1373.64 39.848 1372.99 40.76 1371.46 40.76C1371.17 40.76 1370.86 40.736 1370.52 40.664V44.024C1371.07 44.12 1371.6 44.168 1372.08 44.168C1376.02 44.168 1377.27 41.432 1377.27 37.736V30.656H1381.95V44H1385.57V27.224ZM1392.07 37.232H1396.49L1398.05 33.824H1392.07V30.656H1398.22L1399.78 27.224H1388.45V44H1398.22L1399.78 40.568H1392.07V37.232ZM1405.39 44H1409.01V30.656H1412.78L1414.34 27.224H1401.07V30.656H1405.39V44ZM1426.36 27.224V33.824H1419.49V27.224H1415.87V44H1419.49V37.232H1426.36V44H1429.98V27.224H1426.36ZM1446.66 26.72L1436.49 36.56V27.224H1432.86V44.504H1432.91L1443.09 34.64V44H1446.71V26.72H1446.66ZM1464.12 44L1458.38 35.456L1463.88 27.224H1459.58L1456.08 32.672L1452.55 27.224H1448.23L1453.72 35.456L1447.99 44H1452.28L1456.05 38.24L1459.8 44H1464.12ZM1466.91 44.312C1468.18 44.312 1469.19 43.28 1469.19 42.032C1469.19 40.784 1468.18 39.752 1466.91 39.752C1465.63 39.752 1464.63 40.784 1464.63 42.032C1464.63 43.28 1465.63 44.312 1466.91 44.312Z" fill="#282828"/>
<circle cx="1533" cy="36" r="25" fill="white" stroke="#A0212E" stroke-width="4"/>
<path d="M1528.35 47H1524.9C1524.73 47 1524.56 46.927 1524.44 46.797C1524.32 46.667 1524.25 46.4906 1524.25 46.3068V31.3086C1524.25 30.7682 1523.7 30.4356 1523.27 30.7159L1520.38 32.5924C1520.23 32.6858 1520.06 32.7156 1519.9 32.6756C1519.73 32.6356 1519.59 32.5288 1519.5 32.3779L1518.1 30.0914C1518.06 30.0135 1518.03 29.9262 1518.01 29.8347C1517.99 29.7432 1518 29.6494 1518.02 29.5588C1518.04 29.4682 1518.07 29.3827 1518.12 29.3073C1518.17 29.232 1518.24 29.1684 1518.31 29.1202L1524.52 25.1002C1524.62 25.0347 1524.74 25 1524.86 25H1528.35C1528.52 25 1528.69 25.073 1528.81 25.203C1528.93 25.333 1529 25.5094 1529 25.6932V46.3068C1529 46.4906 1528.93 46.667 1528.81 46.797C1528.69 46.927 1528.52 47 1528.35 47Z" fill="black"/>
<path d="M1547.23 30.4146C1547.23 31.9554 1546.54 33.4281 1545 34.6005C1544.64 34.8745 1544.66 35.4613 1545.04 35.7074C1547.05 37.0258 1548 38.6734 1548 40.7766C1548 44.1685 1545.22 47 1540.39 47C1535.72 47 1533 44.2306 1533 40.8699C1533 38.7303 1533.99 37.1884 1535.69 36.1256C1536.06 35.8936 1536.1 35.3237 1535.76 35.0363C1534.33 33.8172 1533.77 32.3082 1533.77 30.6633C1533.77 27.2716 1536.61 25 1540.5 25C1544.39 25.0002 1547.23 26.9606 1547.23 30.4146ZM1539.77 37.1152C1539.59 37.048 1539.4 37.0685 1539.24 37.1781C1538.13 37.9618 1537.58 39.143 1537.58 40.6211C1537.58 42.3325 1538.73 43.4216 1540.53 43.4216C1542.45 43.4216 1543.42 42.2392 1543.42 40.7456C1543.42 39.0341 1542.59 38.2562 1540.47 37.3849L1539.77 37.1152ZM1540.83 33.7806C1540.92 33.8184 1541.03 33.8294 1541.13 33.8127C1541.23 33.796 1541.33 33.7521 1541.41 33.6849C1542.5 32.7862 1542.82 31.8449 1542.82 30.6634C1542.82 29.2943 1542.05 28.3608 1540.53 28.3608C1539.13 28.3608 1538.18 29.1387 1538.18 30.7257C1538.18 32.1572 1538.95 32.9662 1540.5 33.6508L1540.83 33.7806Z" fill="black"/>
<path d="M1551.5 17L1515 53.5" stroke="#A0212E" stroke-width="4"/>
<rect x="1464" y="27" width="13" height="19" fill="#F0F0F0"/>
</svg>
