<svg width="260" height="230" viewBox="0 0 260 230" fill="none" xmlns="http://www.w3.org/2000/svg">
<g clip-path="url(#clip0_1409_29)">
<g clip-path="url(#clip1_1409_29)">
<path fill-rule="evenodd" clip-rule="evenodd" d="M62.0073 52.846C26.5386 88.2773 26.5386 145.723 62.0073 181.154C97.476 216.585 154.982 216.585 190.451 181.154C225.92 145.723 225.92 88.2773 190.451 52.846C154.982 17.4147 97.476 17.4147 62.0073 52.846ZM57.6146 185.542C19.7198 147.687 19.7198 86.3126 57.6146 48.4579C95.5094 10.6031 156.949 10.6031 194.844 48.4579C232.738 86.3126 232.738 147.687 194.844 185.542C156.949 223.397 95.5094 223.397 57.6146 185.542Z" fill="#80C7EA"/>
<path fill-rule="evenodd" clip-rule="evenodd" d="M196.82 65.0224L173.004 130.719L84.1731 152.543L81.0883 167.602L75.2103 166.398L79.0567 147.621L168.457 125.658L191.18 62.9775L196.82 65.0224ZM167.439 80.2052L158.103 114.871L73.8159 141.949L70.9423 156.39L65.0577 155.219L68.6202 137.316L153.158 110.158L161.645 78.6449L167.439 80.2052Z" fill="#80C7EA"/>
<path fill-rule="evenodd" clip-rule="evenodd" d="M127.353 67.7812L126 67L124.647 67.7812L125.098 68.5625L124.5 69.5981L125.853 70.3793L126 70.125L126.147 70.3793L127.5 69.5981L126.902 68.5625L127.353 67.7812ZM121.941 69.3438L123.441 71.9418L120.734 73.5043L119.234 70.9062L121.941 69.3438ZM116.528 72.4688L118.028 75.0668L115.322 76.6293L113.822 74.0312L116.528 72.4688ZM111.115 75.5938L112.615 78.1918L109.909 79.7543L108.409 77.1562L111.115 75.5938ZM105.703 78.7188L102.996 80.2812L104.496 82.8793L107.203 81.3168L105.703 78.7188ZM100.29 81.8438L97.5835 83.4062L99.0835 86.0043L101.79 84.4418L100.29 81.8438ZM94.8772 84.9688L92.1709 86.5312L93.6709 89.1293L96.3772 87.5668L94.8772 84.9688ZM89.4646 88.0938L86.7582 89.6562L88.2582 92.2543L90.9646 90.6918L89.4646 88.0938ZM82.6987 140.438H83.6008L84.1987 139.402L85.5519 140.183L85.4051 140.438H85.6987V142H84.5029L84.0519 142.781L82.6987 142V140.438ZM86.7582 144.344L89.4646 145.906L90.9646 143.308L88.2582 141.746L86.7582 144.344ZM92.1709 147.469L94.8772 149.031L96.3772 146.433L93.6709 144.871L92.1709 147.469ZM97.5835 150.594L100.29 152.156L101.79 149.558L99.0835 147.996L97.5835 150.594ZM102.996 153.719L105.703 155.281L107.203 152.683L104.496 151.121L102.996 153.719ZM108.409 156.844L111.115 158.406L112.615 155.808L109.909 154.246L108.409 156.844ZM113.822 159.969L116.528 161.531L118.028 158.933L115.322 157.371L113.822 159.969ZM119.234 163.094L121.941 164.656L123.441 162.058L120.734 160.496L119.234 163.094ZM124.647 166.219L126 167L127.353 166.219L126.902 165.438L127.5 164.402L126.147 163.621L126 163.875L125.853 163.621L124.5 164.402L125.098 165.438L124.647 166.219ZM130.059 164.656L132.766 163.094L131.266 160.496L128.559 162.058L130.059 164.656ZM135.472 161.531L138.178 159.969L136.678 157.371L133.972 158.933L135.472 161.531ZM140.885 158.406L143.591 156.844L142.091 154.246L139.385 155.808L140.885 158.406ZM146.297 155.281L149.004 153.719L147.504 151.121L144.797 152.683L146.297 155.281ZM151.71 152.156L154.416 150.594L152.916 147.996L150.21 149.558L151.71 152.156ZM157.123 149.031L159.829 147.469L158.329 144.871L155.623 146.433L157.123 149.031ZM162.535 145.906L165.242 144.344L163.742 141.746L161.035 143.308L162.535 145.906ZM169.301 93.5625H168.399L167.801 94.5981L166.448 93.8168L166.595 93.5625H166.301V92H167.497L167.948 91.2188L169.301 92V93.5625ZM165.242 89.6562L162.535 88.0938L161.035 90.6918L163.742 92.2543L165.242 89.6562ZM159.829 86.5312L157.123 84.9688L155.623 87.5668L158.329 89.1293L159.829 86.5312ZM154.416 83.4062L151.71 81.8438L150.21 84.4418L152.916 86.0043L154.416 83.4062ZM149.004 80.2812L146.297 78.7188L144.797 81.3168L147.504 82.8793L149.004 80.2812ZM143.591 77.1562L142.091 79.7543L139.385 78.1918L140.885 75.5938L143.591 77.1562ZM138.178 74.0312L136.678 76.6293L133.972 75.0668L135.472 72.4688L138.178 74.0312ZM132.766 70.9062L131.266 73.5043L128.559 71.9418L130.059 69.3438L132.766 70.9062ZM169.301 96.6875H166.301V99.8125H169.301V96.6875ZM169.301 102.938H166.301V106.062H169.301V102.938ZM169.301 109.188H166.301V112.312H169.301V109.188ZM169.301 115.438H166.301V118.562H169.301V115.438ZM169.301 121.688H166.301V124.812H169.301V121.688ZM169.301 127.938H166.301V131.062H169.301V127.938ZM169.301 134.188H166.301V137.312H169.301V134.188ZM169.301 140.438H168.399L167.801 139.402L166.448 140.183L166.595 140.438H166.301V142H167.497L167.948 142.781L169.301 142V140.438ZM82.6987 137.312H85.6987V134.188H82.6987V137.312ZM82.6987 131.062H85.6987V127.938H82.6987V131.062ZM82.6987 124.812H85.6987V121.688H82.6987V124.812ZM82.6987 118.562H85.6987V115.438H82.6987V118.562ZM82.6987 112.312H85.6987V109.188H82.6987V112.312ZM82.6987 106.062H85.6987V102.938H82.6987V106.062ZM82.6987 99.8125H85.6987V96.6875H82.6987V99.8125ZM82.6987 93.5625H83.6008L84.1987 94.5981L85.5519 93.8168L85.4051 93.5625H85.6987V92H84.5029L84.0519 91.2188L82.6987 92V93.5625Z" fill="#80C7EA"/>
</g>
</g>
<defs>
<clipPath id="clip0_1409_29">
<rect width="260" height="230" fill="white"/>
</clipPath>
<clipPath id="clip1_1409_29">
<rect width="213" height="228" fill="white" transform="translate(23 -14)"/>
</clipPath>
</defs>
</svg>
