<svg width="260" height="230" viewBox="0 0 260 230" fill="none" xmlns="http://www.w3.org/2000/svg">
<g clip-path="url(#clip0_1409_17)">
<g clip-path="url(#clip1_1409_17)">
<path fill-rule="evenodd" clip-rule="evenodd" d="M164.45 60.8068L166.142 59.6192L166.159 59.6436L166.205 59.711L166.382 59.9707C166.536 60.1979 166.761 60.5311 167.047 60.9586C167.619 61.8133 168.435 63.0452 169.413 64.5589C171.368 67.5846 173.978 71.7448 176.591 76.2749C179.199 80.7982 181.832 85.7258 183.819 90.2795C185.768 94.7483 187.231 99.152 187.231 102.519C187.231 115.227 177.063 125.516 164.493 125.54C164.015 124.17 163.48 122.757 162.898 121.313C163.41 121.355 163.928 121.377 164.45 121.377C174.765 121.377 183.112 112.942 183.112 102.519C183.112 100.099 181.985 96.3959 180.049 91.9587C178.151 87.6065 175.603 82.8294 173.031 78.3712C170.464 73.9199 167.894 69.822 165.963 66.8349C165.398 65.9603 164.889 65.1817 164.45 64.5181C164.012 65.1817 163.502 65.9603 162.937 66.8349C161.007 69.822 158.437 73.9199 155.869 78.3712C153.298 82.8294 150.75 87.6065 148.852 91.9587C148.717 92.2672 148.586 92.572 148.46 92.8732C147.596 91.3875 146.734 89.927 145.881 88.5009C147.747 84.4617 150.038 80.2149 152.31 76.2749C154.923 71.7448 157.533 67.5846 159.488 64.5589C160.466 63.0452 161.282 61.8133 161.854 60.9586C162.14 60.5311 162.365 60.1979 162.519 59.9707L162.696 59.711L162.742 59.6436L162.759 59.6192L164.45 60.8068ZM164.45 60.8068C166.142 59.6192 166.142 59.6189 166.142 59.6192C165.757 59.0593 165.125 58.7254 164.45 58.7254C163.776 58.7254 163.144 59.0593 162.759 59.6192C162.759 59.6189 162.759 59.6192 164.45 60.8068Z" fill="#80C7EA"/>
<path fill-rule="evenodd" clip-rule="evenodd" d="M110.078 101.951C109.139 100.203 108.168 98.4713 107.202 96.795C104.589 92.2649 101.979 88.1047 100.024 85.079C99.0456 83.5653 98.23 82.3334 97.658 81.4786C97.372 81.0512 97.1469 80.718 96.9927 80.4908L96.8158 80.2311L96.7697 80.1637L96.753 80.1393C96.368 79.5794 95.7361 79.2455 95.0614 79.2455C94.3867 79.2455 93.7548 79.5794 93.3698 80.1393L93.3531 80.1637L93.307 80.2311L93.1301 80.4908C92.9759 80.718 92.7508 81.0512 92.4648 81.4786C91.8928 82.3334 91.0772 83.5653 90.099 85.079C88.144 88.1047 85.5341 92.2649 82.9212 96.795C80.3123 101.318 77.6797 106.246 75.6931 110.8C73.7436 115.268 72.2804 119.672 72.2804 123.039C72.2804 135.761 82.4715 146.06 95.0614 146.06C95.4019 146.06 95.7407 146.052 96.0776 146.037C95.8401 144.679 95.6767 143.295 95.5919 141.889C95.4157 141.894 95.2388 141.897 95.0614 141.897C84.7467 141.897 76.3999 133.462 76.3999 123.039C76.3999 120.619 77.5269 116.916 79.4626 112.479C81.3613 108.127 83.909 103.349 86.4803 98.8913C89.0478 94.44 91.6182 90.3421 93.5484 87.355C94.1135 86.4804 94.6232 85.7018 95.0614 85.0382C95.4995 85.7018 96.0093 86.4804 96.5744 87.355C98.5046 90.3421 101.075 94.44 103.642 98.8913C105.04 101.315 106.431 103.833 107.715 106.325C108.488 104.863 109.278 103.402 110.078 101.951ZM96.753 80.1393C96.7527 80.1389 96.753 80.1393 95.0614 81.3269L96.753 80.1393ZM95.0614 81.3269C93.3698 80.1393 93.3701 80.1389 93.3698 80.1393L95.0614 81.3269Z" fill="#80C7EA"/>
<path fill-rule="evenodd" clip-rule="evenodd" d="M131.704 63.6978L130.013 64.8866L128.322 63.6978C128.707 63.1386 129.339 62.8051 130.013 62.8051C130.687 62.8051 131.319 63.1386 131.704 63.6978ZM130.013 68.5765C129.039 70.0327 127.689 72.0711 126.086 74.5498C122.707 79.7711 118.206 86.9378 113.707 94.7272C109.205 102.523 104.726 110.908 101.38 118.571C97.9956 126.32 95.9034 133.039 95.9034 137.612C95.9034 156.653 111.171 172.081 130.013 172.081C148.855 172.081 164.123 156.653 164.123 137.612C164.123 133.039 162.031 126.32 158.647 118.571C155.3 110.908 150.821 102.523 146.319 94.7272C141.82 86.9378 137.319 79.7711 133.941 74.5498C132.337 72.0711 130.987 70.0327 130.013 68.5765ZM162.416 116.891C165.813 124.671 168.242 132.091 168.242 137.612C168.242 158.952 151.13 176.244 130.013 176.244C108.896 176.244 91.7839 158.952 91.7839 137.612C91.7839 132.091 94.2129 124.671 97.6107 116.891C101.046 109.025 105.609 100.49 110.149 92.629C114.693 84.7607 119.234 77.5316 122.638 72.2716C124.34 69.6408 125.759 67.5003 126.753 66.0163C127.251 65.2743 127.642 64.6963 127.909 64.303L128.215 63.8541L128.294 63.7384L128.322 63.6978C128.322 63.6978 128.322 63.6978 130.013 64.8866C131.704 63.6978 131.704 63.6978 131.704 63.6978L131.732 63.7384L131.811 63.8541L132.117 64.303C132.384 64.6963 132.776 65.2743 133.273 66.0163C134.267 67.5003 135.686 69.6408 137.389 72.2716C140.792 77.5316 145.333 84.7607 149.877 92.629C154.417 100.49 158.981 109.025 162.416 116.891Z" fill="#80C7EA"/>
<path fill-rule="evenodd" clip-rule="evenodd" d="M40.3622 102.755C32.3143 152.514 65.7075 199.444 114.948 207.576C164.189 215.709 210.63 181.964 218.678 132.206C226.726 82.447 193.333 35.5169 144.092 27.3843C94.8516 19.2517 48.4102 52.9963 40.3622 102.755ZM113.951 213.739C61.3428 205.05 25.6655 154.91 34.2639 101.748C42.8623 48.5856 92.4803 12.5329 145.089 21.2218C197.697 29.9106 233.375 80.0508 224.776 133.213C216.178 186.375 166.56 222.428 113.951 213.739Z" fill="#80C7EA"/>
</g>
</g>
<defs>
<clipPath id="clip0_1409_17">
<rect width="260" height="230" fill="white"/>
</clipPath>
<clipPath id="clip1_1409_17">
<rect width="193" height="229" fill="white" transform="translate(33 -14)"/>
</clipPath>
</defs>
</svg>
