<svg width="260" height="230" viewBox="0 0 260 230" fill="none" xmlns="http://www.w3.org/2000/svg">
<g clip-path="url(#clip0_1409_48)">
<g clip-path="url(#clip1_1409_48)">
<path fill-rule="evenodd" clip-rule="evenodd" d="M43.4451 96.1351C31.8479 144.884 61.8635 193.828 110.487 205.455C159.11 217.082 207.929 186.989 219.526 138.241C231.123 89.4919 201.107 40.5475 152.484 28.9204C103.861 17.2932 55.0423 47.3863 43.4451 96.1351ZM109.051 211.493C57.1014 199.07 25.0327 146.778 37.4232 94.6951C49.8137 42.6119 101.971 10.4605 153.92 22.8829C205.87 35.3053 237.938 87.5975 225.548 139.681C213.157 191.764 161 223.915 109.051 211.493Z" fill="#80C7EA"/>
<path fill-rule="evenodd" clip-rule="evenodd" d="M132.341 68.7812L130.988 68L129.635 68.7812L130.086 69.5625L129.488 70.5981L130.841 71.3793L130.988 71.125L131.135 71.3793L132.488 70.5981L131.89 69.5625L132.341 68.7812ZM126.929 70.3438L128.429 72.9418L125.722 74.5043L124.222 71.9062L126.929 70.3438ZM121.516 73.4688L123.016 76.0668L120.31 77.6293L118.81 75.0312L121.516 73.4688ZM116.103 76.5938L117.603 79.1918L114.897 80.7543L113.397 78.1562L116.103 76.5938ZM110.691 79.7188L107.984 81.2812L109.484 83.8793L112.191 82.3168L110.691 79.7188ZM105.278 82.8438L102.572 84.4062L104.072 87.0043L106.778 85.4418L105.278 82.8438ZM99.8655 85.9688L97.1592 87.5312L98.6592 90.1293L101.365 88.5668L99.8655 85.9688ZM94.4528 89.0938L91.7465 90.6562L93.2465 93.2543L95.9528 91.6918L94.4528 89.0938ZM87.687 141.438H88.5891L89.187 140.402L90.5402 141.183L90.3933 141.438H90.687V143H89.4912L89.0402 143.781L87.687 143V141.438ZM91.7465 145.344L94.4528 146.906L95.9528 144.308L93.2465 142.746L91.7465 145.344ZM97.1592 148.469L99.8655 150.031L101.365 147.433L98.6592 145.871L97.1592 148.469ZM102.572 151.594L105.278 153.156L106.778 150.558L104.072 148.996L102.572 151.594ZM107.984 154.719L110.691 156.281L112.191 153.683L109.484 152.121L107.984 154.719ZM113.397 157.844L116.103 159.406L117.603 156.808L114.897 155.246L113.397 157.844ZM118.81 160.969L121.516 162.531L123.016 159.933L120.31 158.371L118.81 160.969ZM124.222 164.094L126.929 165.656L128.429 163.058L125.722 161.496L124.222 164.094ZM129.635 167.219L130.988 168L132.341 167.219L131.89 166.438L132.488 165.402L131.135 164.621L130.988 164.875L130.841 164.621L129.488 165.402L130.086 166.438L129.635 167.219ZM135.048 165.656L137.754 164.094L136.254 161.496L133.548 163.058L135.048 165.656ZM140.46 162.531L143.167 160.969L141.667 158.371L138.96 159.933L140.46 162.531ZM145.873 159.406L148.579 157.844L147.079 155.246L144.373 156.808L145.873 159.406ZM151.286 156.281L153.992 154.719L152.492 152.121L149.786 153.683L151.286 156.281ZM156.698 153.156L159.405 151.594L157.905 148.996L155.198 150.558L156.698 153.156ZM162.111 150.031L164.817 148.469L163.317 145.871L160.611 147.433L162.111 150.031ZM167.524 146.906L170.23 145.344L168.73 142.746L166.024 144.308L167.524 146.906ZM174.29 94.5625H173.387L172.79 95.5981L171.436 94.8168L171.583 94.5625H171.29V93H172.485L172.936 92.2188L174.29 93V94.5625ZM170.23 90.6562L167.524 89.0938L166.024 91.6918L168.73 93.2543L170.23 90.6562ZM164.817 87.5312L162.111 85.9688L160.611 88.5668L163.317 90.1293L164.817 87.5312ZM159.405 84.4062L156.698 82.8438L155.198 85.4418L157.905 87.0043L159.405 84.4062ZM153.992 81.2812L151.286 79.7188L149.786 82.3168L152.492 83.8793L153.992 81.2812ZM148.579 78.1562L147.079 80.7543L144.373 79.1918L145.873 76.5938L148.579 78.1562ZM143.167 75.0312L141.667 77.6293L138.96 76.0668L140.46 73.4688L143.167 75.0312ZM137.754 71.9062L136.254 74.5043L133.548 72.9418L135.048 70.3438L137.754 71.9062ZM174.29 97.6875H171.29V100.812H174.29V97.6875ZM174.29 103.938H171.29V107.062H174.29V103.938ZM174.29 110.188H171.29V113.312H174.29V110.188ZM174.29 116.438H171.29V119.562H174.29V116.438ZM174.29 122.688H171.29V125.812H174.29V122.688ZM174.29 128.938H171.29V132.062H174.29V128.938ZM174.29 135.188H171.29V138.312H174.29V135.188ZM174.29 141.438H173.387L172.79 140.402L171.436 141.183L171.583 141.438H171.29V143H172.485L172.936 143.781L174.29 143V141.438ZM87.687 138.312H90.687V135.188H87.687V138.312ZM87.687 132.062H90.687V128.938H87.687V132.062ZM87.687 125.812H90.687V122.688H87.687V125.812ZM87.687 119.562H90.687V116.438H87.687V119.562ZM87.687 113.312H90.687V110.188H87.687V113.312ZM87.687 107.062H90.687V103.938H87.687V107.062ZM87.687 100.812H90.687V97.6875H87.687V100.812ZM87.687 94.5625H88.5891L89.187 95.5981L90.5402 94.8168L90.3933 94.5625H90.687V93H89.4912L89.0402 92.2188L87.687 93V94.5625Z" fill="#80C7EA"/>
<path fill-rule="evenodd" clip-rule="evenodd" d="M159.523 91.1628L152.146 68.9455L157.84 67.0546L164.232 86.3041L178.877 71.0995L183.198 75.2618L168.426 90.5991L186.923 96.6648L185.053 102.366L163.781 95.3903L151.494 107.859L170.129 113.932L168.27 119.637L146.787 112.636L134.823 124.776L152.953 131L151.005 136.675L130.152 129.517L92.1251 168.106L87.8514 163.894L125.868 125.316L117.953 103.789L123.584 101.718L130.524 120.591L142.545 108.392L135.345 85.746L141.062 83.928L147.305 103.562L159.523 91.1628Z" fill="#80C7EA"/>
</g>
</g>
<defs>
<clipPath id="clip0_1409_48">
<rect width="260" height="230" fill="white"/>
</clipPath>
<clipPath id="clip1_1409_48">
<rect width="262" height="228" fill="white" transform="translate(-0.0117188 -14)"/>
</clipPath>
</defs>
</svg>
