<svg width="194" height="194" viewBox="0 0 194 194" fill="none" xmlns="http://www.w3.org/2000/svg">
<path fill-rule="evenodd" clip-rule="evenodd" d="M126.613 49.3136L128.023 48.3235L128.037 48.3437L128.076 48.4L128.223 48.6165C128.352 48.8059 128.54 49.0837 128.778 49.44C129.255 50.1527 129.935 51.1797 130.75 52.4417C132.38 54.9642 134.556 58.4327 136.735 62.2095C138.91 65.9805 141.104 70.0887 142.761 73.8852C144.386 77.6108 145.606 81.2823 145.606 84.0893C145.606 94.6841 137.129 103.263 126.649 103.282C126.249 102.14 125.804 100.962 125.319 99.7577C125.745 99.7932 126.177 99.8113 126.613 99.8113C135.213 99.8113 142.171 92.7793 142.171 84.0893C142.171 82.0721 141.232 78.9845 139.618 75.2852C138.035 71.6567 135.911 67.6739 133.767 63.9571C131.627 60.246 129.484 56.8296 127.875 54.3392C127.403 53.6101 126.978 52.9609 126.613 52.4077C126.248 52.9609 125.823 53.6101 125.352 54.3392C123.743 56.8296 121.6 60.246 119.459 63.9571C117.315 67.6739 115.191 71.6567 113.608 75.2852C113.496 75.5425 113.387 75.7968 113.281 76.048C112.561 74.8094 111.843 73.5917 111.132 72.4028C112.687 69.0351 114.597 65.4944 116.492 62.2095C118.67 58.4327 120.846 54.9642 122.476 52.4417C123.291 51.1797 123.971 50.1527 124.448 49.44C124.687 49.0837 124.875 48.8059 125.003 48.6165L125.151 48.3999L125.189 48.3437L125.203 48.3235L126.613 49.3136ZM126.613 49.3136C128.023 48.3235 128.023 48.3231 128.023 48.3235C127.703 47.8566 127.176 47.5782 126.613 47.5782C126.051 47.5782 125.524 47.8566 125.203 48.3235C125.203 48.3231 125.203 48.3235 126.613 49.3136Z" fill="#80C7EA"/>
<path fill-rule="evenodd" clip-rule="evenodd" d="M81.2813 83.6153C80.4983 82.1583 79.6896 80.7146 78.8836 79.3172C76.7053 75.5405 74.5294 72.072 72.8994 69.5495C72.084 68.2875 71.404 67.2604 70.9271 66.5478C70.6887 66.1915 70.5009 65.9137 70.3724 65.7243L70.2249 65.5077L70.1865 65.4515L70.1726 65.4312C70.1723 65.4309 70.1726 65.4312 68.7623 66.4214C67.352 65.4312 67.3522 65.4309 67.352 65.4312L67.3381 65.4515L67.2996 65.5077L67.1522 65.7243C67.0236 65.9137 66.8359 66.1915 66.5974 66.5478C66.1206 67.2604 65.4406 68.2875 64.6251 69.5495C62.9951 72.072 60.8193 75.5405 58.6409 79.3172C56.4658 83.0883 54.271 87.1965 52.6147 90.993C50.9894 94.7186 49.7695 98.3901 49.7695 101.197C49.7695 111.804 58.266 120.39 68.7623 120.39C69.046 120.39 69.3283 120.383 69.6091 120.371C69.411 119.239 69.2748 118.085 69.2041 116.913C69.0573 116.917 68.91 116.919 68.7623 116.919C60.1628 116.919 53.204 109.887 53.204 101.197C53.204 99.1799 54.1436 96.0923 55.7574 92.393C57.3403 88.7645 59.4644 84.7817 61.6082 81.0649C63.7486 77.3538 65.8916 73.9374 67.5008 71.447C67.972 70.7179 68.397 70.0687 68.7623 69.5155C69.1276 70.0687 69.5525 70.7179 70.0237 71.447C71.6329 73.9374 73.7759 77.3538 75.9164 81.0649C77.0817 83.0854 78.2412 85.1844 79.3112 87.2624C79.9562 86.0433 80.6148 84.8255 81.2813 83.6153ZM67.352 65.4312C67.6729 64.9644 68.1998 64.686 68.7623 64.686C69.3248 64.686 69.8516 64.9644 70.1726 65.4312L68.7623 66.4214L67.352 65.4312Z" fill="#80C7EA"/>
<path fill-rule="evenodd" clip-rule="evenodd" d="M99.3977 51.7633L97.9824 52.7588L96.5671 51.7633C96.8894 51.2949 97.418 51.0157 97.9824 51.0157C98.5468 51.0157 99.0754 51.2949 99.3977 51.7633ZM97.9824 55.849C97.1669 57.0685 96.0373 58.7755 94.6949 60.8513C91.867 65.224 88.099 71.2258 84.3336 77.7491C80.5649 84.2781 76.816 91.2997 74.0145 97.7177C71.182 104.207 69.4307 109.833 69.4307 113.663C69.4307 129.609 82.2105 142.529 97.9824 142.529C113.754 142.529 126.534 129.609 126.534 113.663C126.534 109.833 124.783 104.207 121.95 97.7177C119.149 91.2997 115.4 84.2781 111.631 77.7491C107.866 71.2258 104.098 65.224 101.27 60.8513C99.9275 58.7755 98.7979 57.0685 97.9824 55.849ZM125.105 96.3101C127.949 102.826 129.982 109.039 129.982 113.663C129.982 131.534 115.659 146.016 97.9824 146.016C80.3061 146.016 65.9824 131.534 65.9824 113.663C65.9824 109.039 68.0156 102.826 70.8598 96.3101C73.735 89.7232 77.5551 82.5755 81.3554 75.9919C85.1589 69.4026 88.9599 63.3485 91.8088 58.9435C93.2337 56.7402 94.4215 54.9477 95.2539 53.705C95.6701 53.0835 95.9975 52.5994 96.2213 52.2701L96.4774 51.8942L96.5438 51.7973L96.5671 51.7633C96.5671 51.7633 96.5671 51.7633 97.9824 52.7588C99.3977 51.7633 99.3977 51.7633 99.3977 51.7633L99.4211 51.7973L99.4874 51.8942L99.7436 52.2701C99.9674 52.5994 100.295 53.0835 100.711 53.705C101.543 54.9477 102.731 56.7402 104.156 58.9435C107.005 63.3485 110.806 69.4026 114.609 75.9919C118.41 82.5755 122.23 89.7232 125.105 96.3101Z" fill="#80C7EA"/>
<path fill-rule="evenodd" clip-rule="evenodd" d="M22.1531 96.3117C22.1531 138.335 55.8832 172.514 97.4914 172.653C139.1 172.791 172.83 138.837 172.83 96.8139C172.83 54.7905 139.1 20.6114 97.4914 20.4728C55.8832 20.3341 22.1531 54.2883 22.1531 96.3117ZM97.4914 177.857C53.0372 177.709 17 141.192 17 96.2945C17 51.3968 53.0372 15.1201 97.4914 15.2682C141.946 15.4164 177.983 51.9333 177.983 96.831C177.983 141.729 141.946 178.005 97.4914 177.857Z" fill="#80C7EA"/>
</svg>
