<svg width="194" height="194" viewBox="0 0 194 194" fill="none" xmlns="http://www.w3.org/2000/svg">
<path fill-rule="evenodd" clip-rule="evenodd" d="M97.2615 22.1039C56.0502 22.1039 22.5254 55.5121 22.3819 96.7231C22.2383 137.934 55.5303 171.342 96.7416 171.342C137.953 171.342 171.478 137.934 171.621 96.7231C171.765 55.5121 138.473 22.1039 97.2615 22.1039ZM17.2779 96.7231C17.4313 52.6933 53.2491 17 97.2793 17C141.309 17 176.879 52.6933 176.725 96.7231C176.572 140.753 140.754 176.446 96.7238 176.446C52.6937 176.446 17.1245 140.753 17.2779 96.7231Z" fill="#80C7EA"/>
<path fill-rule="evenodd" clip-rule="evenodd" d="M55.1394 78.5075C55.4433 77.9807 56.0044 77.6563 56.6116 77.6563H94.3942C95.0014 77.6563 95.5626 77.9807 95.8664 78.5075L114.775 111.287C115.079 111.814 115.079 112.464 114.775 112.991L95.8668 145.804C95.5631 146.332 95.0017 146.656 94.3942 146.656H56.6116C56.0041 146.656 55.4428 146.332 55.1391 145.804L36.2307 112.991C35.9269 112.464 35.927 111.814 36.2311 111.287L55.1394 78.5075ZM57.5928 81.0637L39.667 112.14L57.5933 143.249H93.4125L111.339 112.14L93.413 81.0637H57.5928Z" fill="#80C7EA"/>
<path fill-rule="evenodd" clip-rule="evenodd" d="M126.633 58.5272C126.935 57.9883 127.494 57.6563 128.099 57.6563H146.907C147.512 57.6563 148.07 57.9883 148.372 58.5272L157.777 75.3042C158.079 75.8428 158.078 76.5062 157.776 77.0446L148.372 93.7868C148.069 94.3249 147.511 94.6563 146.907 94.6563H128.099C127.495 94.6563 126.936 94.3249 126.634 93.7868L117.23 77.0446C116.928 76.5062 116.927 75.8428 117.229 75.3042L126.633 58.5272ZM129.076 61.137L120.647 76.1728L129.075 91.1756H145.931L154.358 76.1728L145.93 61.137H129.076Z" fill="#80C7EA"/>
<path fill-rule="evenodd" clip-rule="evenodd" d="M123.764 84.5019C124.251 85.3158 123.971 86.3615 123.138 86.8375L104.631 97.4225C103.798 97.8985 102.729 97.6246 102.242 96.8107C101.755 95.9969 102.035 94.9512 102.868 94.4751L121.375 83.8902C122.207 83.4141 123.277 83.688 123.764 84.5019Z" fill="#80C7EA"/>
</svg>
