<svg width="194" height="194" viewBox="0 0 194 194" fill="none" xmlns="http://www.w3.org/2000/svg">
<path fill-rule="evenodd" clip-rule="evenodd" d="M96.7034 22.1023C55.5053 22.1023 22.143 55.4999 22.1865 96.698C22.23 137.896 55.6629 171.294 96.861 171.294C138.059 171.294 171.421 137.896 171.378 96.698C171.334 55.4999 137.901 22.1023 96.7034 22.1023ZM17.0842 96.698C17.0377 52.682 52.682 17 96.698 17C140.714 17 176.434 52.682 176.48 96.698C176.527 140.714 140.882 176.396 96.8663 176.396C52.8503 176.396 17.1306 140.714 17.0842 96.698Z" fill="#80C7EA"/>
<path d="M48.5645 128.501L51.2206 115.312L120.895 93.1964L128.25 66.2109M56.9417 137.631L59.8022 123.834L133.358 105.979L152.564 53.6312" stroke="#80C7EA" stroke-width="6"/>
<path d="M92.7601 57.8276L95.2963 56.3633L96.0463 57.6623L96.5645 57.3632L97.0826 57.6623L97.8326 56.3633L100.369 57.8276L99.6188 59.1266L102.155 60.5909L102.905 59.2919L105.441 60.7562L104.691 62.0552L107.227 63.5195L107.977 62.2204L110.514 63.6847L109.764 64.9838L112.3 66.4481L113.05 65.149L115.586 66.6133L114.836 67.9123L117.372 69.3766L118.122 68.0776L120.659 69.5419L119.909 70.8409L122.445 72.3052L123.195 71.0062L125.731 72.4704L124.981 73.7695L127.517 75.2338L128.267 73.9347L130.803 75.399L130.053 76.6981L130.571 76.9972V77.5955H132.071V80.524H130.571V83.4526H132.071V86.3812H130.571V89.3097H132.071V92.2383H130.571V95.1669H132.071V98.0955H130.571V101.024H132.071V103.953H130.571V106.881H132.071V109.81H130.571V112.738H132.071V115.667H130.571V116.265L130.053 116.564L130.803 117.863L128.267 119.328L127.517 118.029L124.981 119.493L125.731 120.792L123.195 122.256L122.445 120.957L119.909 122.421L120.659 123.72L118.122 125.185L117.372 123.886L114.836 125.35L115.586 126.649L113.05 128.113L112.3 126.814L109.764 128.279L110.514 129.578L107.977 131.042L107.227 129.743L104.691 131.207L105.441 132.506L102.905 133.97L102.155 132.671L99.6188 134.136L100.369 135.435L97.8326 136.899L97.0826 135.6L96.5645 135.899L96.0463 135.6L95.2963 136.899L92.7601 135.435L93.5101 134.136L90.9739 132.671L90.2239 133.97L87.6877 132.506L88.4377 131.207L85.9015 129.743L85.1515 131.042L82.6153 129.578L83.3653 128.279L80.829 126.814L80.079 128.113L77.5428 126.649L78.2928 125.35L75.7566 123.886L75.0066 125.185L72.4704 123.72L73.2204 122.421L70.6842 120.957L69.9342 122.256L67.398 120.792L68.148 119.493L65.6117 118.029L64.8617 119.328L62.3255 117.863L63.0755 116.564L62.5574 116.265V115.667H61.0574V112.738H62.5574V109.81H61.0574V106.881H62.5574V103.953H61.0574V101.024H62.5574V98.0955H61.0574V95.1669H62.5574V92.2383H61.0574V89.3097H62.5574V86.3812H61.0574V83.4526H62.5574V80.524H61.0574V77.5954H62.5574V76.9972L63.0755 76.6981L62.3255 75.399L64.8617 73.9347L65.6117 75.2338L68.148 73.7695L67.398 72.4705L69.9342 71.0062L70.6842 72.3052L73.2204 70.8409L72.4704 69.5419L75.0066 68.0776L75.7566 69.3766L78.2928 67.9123L77.5428 66.6133L80.079 65.149L80.829 66.4481L83.3653 64.9838L82.6153 63.6847L85.1515 62.2204L85.9015 63.5195L88.4377 62.0552L87.6877 60.7562L90.2239 59.2919L90.9739 60.5909L93.5101 59.1266L92.7601 57.8276Z" stroke="#80C7EA" stroke-width="3" stroke-dasharray="3 3"/>
</svg>
