<svg width="195" height="230" viewBox="0 0 195 230" fill="none" xmlns="http://www.w3.org/2000/svg">
<g clip-path="url(#clip0_1089_6226)">
<path d="M47.1101 11.8318L50.1743 10.4606L58.042 28.3285L54.9777 29.6997L51.665 22.137L43.5075 25.7522L46.8202 33.3149L43.7973 34.6446L35.9297 16.7767L38.9525 15.447L42.2238 22.8434L50.3813 19.2283L47.1101 11.8318Z" fill="#80C7EA"/>
<path d="M69.5272 3.76681L61.8678 19.8698L58.1337 7.9532L54.9541 8.94952L60.9823 28.1872L61.0358 28.1704L68.6867 12.0407L72.4293 23.984L75.6088 22.9877L69.5806 3.75007L69.5272 3.76681Z" fill="#80C7EA"/>
<path d="M93.148 20.5481L88.9206 21.1058L79.8225 12.9767L80.9697 22.1291L77.6648 22.5386L75.234 3.14221L78.5388 2.73268L79.6331 11.4236L86.1564 1.72935L90.2572 1.20505L83.104 11.6495L93.148 20.5481Z" fill="#80C7EA"/>
<path d="M96.9271 19.7947C95.3722 18.819 94.1282 17.5304 93.2749 15.9758C92.3858 14.3356 92.0006 12.6032 92.0394 10.7319C92.1195 8.86328 92.6047 7.14593 93.619 5.58794C94.5893 4.06872 95.9126 2.86397 97.5449 2.01245C99.1772 1.16093 100.945 0.77629 102.81 0.814373C104.713 0.896611 106.425 1.38275 107.979 2.3584C109.534 3.33406 110.778 4.62261 111.629 6.21869C112.521 7.81746 112.906 9.54981 112.867 11.4211C112.787 13.2898 112.302 15.0071 111.29 16.5237C110.32 18.0429 108.997 19.2476 107.364 20.0991C105.732 20.9507 103.964 21.3353 102.099 21.2972C100.234 21.2591 98.4846 20.7288 96.9271 19.7947ZM105.843 17.3351C106.919 16.7389 107.802 15.9219 108.495 14.8427C109.146 13.7607 109.511 12.6185 109.556 11.2889C109.598 10.0008 109.346 8.7768 108.752 7.69714C108.159 6.61747 107.345 5.73169 106.311 5.03978C105.233 4.38666 104.095 4.0211 102.77 3.97651C101.486 3.93461 100.267 4.18835 99.1903 4.78457C98.1141 5.38079 97.231 6.19778 96.5383 7.27701C95.887 8.35893 95.5222 9.50114 95.4771 10.8307C95.4348 12.1188 95.6871 13.3429 96.2808 14.4225C96.8717 15.5437 97.6882 16.388 98.7221 17.0799C99.8 17.733 100.938 18.0986 102.263 18.1432C103.547 18.1851 104.725 17.9286 105.843 17.3351Z" fill="#80C7EA"/>
<path d="M120.377 6.28865L115.294 5.3332L115.871 2.20603L130.096 4.88073L128.086 7.70646L123.617 6.87429L120.579 22.9582L117.3 22.3284L120.377 6.28865Z" fill="#80C7EA"/>
<path d="M149.07 10.5709L149.111 10.5736L142.521 29.5911L139.396 28.5133L143.484 16.7034L127.792 25.093L127.751 25.0904L134.341 6.07286L137.466 7.1507L133.381 18.9191L149.07 10.5709Z" fill="#80C7EA"/>
<path d="M165.729 19.7752L168.654 21.3814L159.24 38.5079L156.315 36.9017L160.313 29.6665L152.501 25.3687L148.503 32.604L145.62 31.0005L155.034 13.874L157.917 15.4775L154.01 22.5937L161.819 26.9329L165.729 19.7752Z" fill="#80C7EA"/>
<path fill-rule="evenodd" clip-rule="evenodd" d="M33.7873 67.6314C-1.67559 103.218 -1.67559 160.915 33.7873 196.502C69.2503 232.089 126.747 232.089 162.21 196.502C197.673 160.915 197.673 103.218 162.21 67.6314C126.747 32.0447 69.2503 32.0447 33.7873 67.6314ZM29.3953 200.91C-8.49325 162.889 -8.49325 101.245 29.3953 63.224C67.2839 25.2032 128.713 25.2032 166.602 63.224C204.491 101.245 204.491 162.889 166.602 200.91C128.713 238.93 67.2839 238.93 29.3953 200.91Z" fill="#80C7EA"/>
<path fill-rule="evenodd" clip-rule="evenodd" d="M46.6459 110.39C47.0158 109.748 47.6991 109.352 48.4384 109.352H94.4436C95.1829 109.352 95.8661 109.748 96.2361 110.39L119.259 150.364C119.63 151.007 119.63 151.8 119.26 152.443L96.2366 192.459C95.8667 193.101 95.1832 193.497 94.4436 193.497H48.4384C47.6987 193.497 47.0152 193.101 46.6454 192.459L23.6221 152.443C23.2521 151.8 23.2523 151.007 23.6226 150.364L46.6459 110.39ZM49.6332 113.507L27.8062 151.404L49.6338 189.342H93.2482L115.076 151.404L93.2488 113.507H49.6332Z" fill="#80C7EA"/>
<path fill-rule="evenodd" clip-rule="evenodd" d="M134.561 85.958C134.931 85.3147 135.615 84.9183 136.355 84.9183H159.378C160.118 84.9183 160.802 85.3147 161.171 85.958L172.683 105.987C173.053 106.63 173.052 107.422 172.682 108.064L161.17 128.051C160.8 128.694 160.117 129.089 159.378 129.089H136.355C135.615 129.089 134.932 128.694 134.562 128.051L123.05 108.064C122.68 107.422 122.68 106.63 123.049 105.987L134.561 85.958ZM137.551 89.0737L127.234 107.024L137.549 124.934H158.183L168.499 107.024L158.182 89.0737H137.551Z" fill="#80C7EA"/>
<path fill-rule="evenodd" clip-rule="evenodd" d="M130.105 117.154C130.683 118.144 130.351 119.417 129.364 119.996L107.417 132.878C106.43 133.457 105.162 133.124 104.584 132.133C104.007 131.143 104.339 129.87 105.326 129.291L127.273 116.409C128.26 115.83 129.528 116.163 130.105 117.154Z" fill="#80C7EA"/>
</g>
<defs>
<clipPath id="clip0_1089_6226">
<rect width="194" height="229" fill="white" transform="translate(0.988281 0.0667725)"/>
</clipPath>
</defs>
</svg>
