<svg width="195" height="230" viewBox="0 0 195 230" fill="none" xmlns="http://www.w3.org/2000/svg">
<g clip-path="url(#clip0_1089_6226)">
<path fill-rule="evenodd" clip-rule="evenodd" d="M33.7873 67.6314C-1.67559 103.218 -1.67559 160.915 33.7873 196.502C69.2503 232.089 126.747 232.089 162.21 196.502C197.673 160.915 197.673 103.218 162.21 67.6314C126.747 32.0447 69.2503 32.0447 33.7873 67.6314ZM29.3953 200.91C-8.49325 162.889 -8.49325 101.245 29.3953 63.224C67.2839 25.2032 128.713 25.2032 166.602 63.224C204.491 101.245 204.491 162.889 166.602 200.91C128.713 238.93 67.2839 238.93 29.3953 200.91Z" fill="#80C7EA"/>
<path fill-rule="evenodd" clip-rule="evenodd" d="M46.6459 110.39C47.0158 109.748 47.6991 109.352 48.4384 109.352H94.4435C95.1829 109.352 95.8662 109.748 96.2361 110.39L119.259 150.364C119.63 151.007 119.63 151.8 119.26 152.443L96.2366 192.459C95.8667 193.101 95.1832 193.497 94.4435 193.497H48.4384C47.6987 193.497 47.0152 193.101 46.6454 192.459L23.6221 152.443C23.2521 151.8 23.2523 151.007 23.6226 150.364L46.6459 110.39ZM49.6332 113.507L27.8062 151.404L49.6338 189.342H93.2482L115.076 151.404L93.2488 113.507H49.6332Z" fill="#80C7EA"/>
<path fill-rule="evenodd" clip-rule="evenodd" d="M134.561 85.958C134.931 85.3147 135.615 84.9183 136.355 84.9183H159.378C160.118 84.9183 160.802 85.3147 161.171 85.958L172.683 105.987C173.053 106.63 173.052 107.422 172.682 108.064L161.17 128.051C160.8 128.694 160.117 129.089 159.378 129.089H136.355C135.615 129.089 134.932 128.694 134.562 128.051L123.05 108.064C122.68 107.422 122.68 106.63 123.049 105.987L134.561 85.958ZM137.551 89.0737L127.234 107.024L137.549 124.934H158.183L168.499 107.024L158.182 89.0737H137.551Z" fill="#80C7EA"/>
<path fill-rule="evenodd" clip-rule="evenodd" d="M130.105 117.154C130.683 118.144 130.351 119.417 129.364 119.996L107.417 132.878C106.43 133.457 105.162 133.124 104.584 132.133C104.007 131.143 104.339 129.87 105.326 129.291L127.273 116.409C128.26 115.83 129.528 116.163 130.105 117.154Z" fill="#80C7EA"/>
</g>
<defs>
<clipPath id="clip0_1089_6226">
<rect width="194" height="229" fill="white" transform="translate(0.988281 0.0667725)"/>
</clipPath>
</defs>
</svg>
