<svg width="194" height="230" viewBox="0 0 194 230" fill="none" xmlns="http://www.w3.org/2000/svg">
<g clip-path="url(#clip0_1089_6240)">
<path fill-rule="evenodd" clip-rule="evenodd" d="M132.439 74.8736L134.131 73.686L134.147 73.7103L134.194 73.7778L134.37 74.0375C134.525 74.2647 134.75 74.5979 135.036 75.0253C135.608 75.8801 136.423 77.112 137.401 78.6257C139.357 81.6514 141.966 85.8116 144.579 90.3417C147.188 94.865 149.821 99.7925 151.807 104.346C153.757 108.815 155.22 113.219 155.22 116.586C155.22 129.294 145.052 139.583 132.482 139.606C132.003 138.236 131.469 136.824 130.887 135.379C131.399 135.422 131.916 135.444 132.439 135.444C142.754 135.444 151.101 127.009 151.101 116.586C151.101 114.166 149.974 110.463 148.038 106.026C146.139 101.673 143.592 96.8961 141.02 92.438C138.453 87.9867 135.882 83.8888 133.952 80.9017C133.387 80.0271 132.877 79.2485 132.439 78.5849C132.001 79.2485 131.491 80.0271 130.926 80.9017C128.996 83.8888 126.425 87.9867 123.858 92.438C121.287 96.8961 118.739 101.673 116.84 106.026C116.706 106.334 116.575 106.639 116.449 106.94C115.585 105.454 114.723 103.994 113.87 102.568C115.736 98.5284 118.026 94.2817 120.299 90.3417C122.912 85.8116 125.522 81.6514 127.477 78.6257C128.455 77.112 129.27 75.8801 129.842 75.0253C130.128 74.5979 130.354 74.2647 130.508 74.0375L130.685 73.7778L130.731 73.7103L130.748 73.686L132.439 74.8736ZM132.439 74.8736C134.131 73.686 134.13 73.6856 134.131 73.686C133.746 73.1261 133.114 72.7922 132.439 72.7922C131.764 72.7922 131.132 73.1261 130.748 73.686C130.748 73.6856 130.748 73.686 132.439 74.8736Z" fill="#80C7EA"/>
<path fill-rule="evenodd" clip-rule="evenodd" d="M78.0659 116.018C77.1267 114.27 76.1566 112.538 75.1897 110.862C72.5769 106.332 69.967 102.171 68.0119 99.1458C67.0338 97.6321 66.2182 96.4002 65.6462 95.5454C65.3602 95.118 65.135 94.7847 64.9808 94.5576L64.804 94.2979L64.7578 94.2304L64.7411 94.2061C64.3562 93.6462 63.7243 93.3123 63.0496 93.3123C62.3749 93.3123 61.7429 93.6462 61.358 94.2061L61.3413 94.2304L61.2951 94.2979L61.1183 94.5576C60.9641 94.7847 60.7389 95.118 60.4529 95.5454C59.8809 96.4002 59.0653 97.6321 58.0872 99.1458C56.1321 102.171 53.5223 106.332 50.9094 110.862C48.3005 115.385 45.6678 120.313 43.6813 124.866C41.7318 129.335 40.2686 133.739 40.2686 137.106C40.2686 149.828 50.4597 160.126 63.0496 160.126C63.3901 160.126 63.7289 160.119 64.0658 160.104C63.8282 158.746 63.6649 157.362 63.5801 155.956C63.4038 155.961 63.227 155.964 63.0496 155.964C52.7348 155.964 44.3881 147.529 44.3881 137.106C44.3881 134.686 45.515 130.983 47.4508 126.546C49.3494 122.193 51.8971 117.416 54.4685 112.958C57.0359 108.507 59.6064 104.409 61.5365 101.422C62.1016 100.547 62.6114 99.7686 63.0496 99.105C63.4877 99.7686 63.9975 100.547 64.5626 101.422C66.4928 104.409 69.0632 108.507 71.6306 112.958C73.0285 115.382 74.4194 117.9 75.7028 120.392C76.4766 118.93 77.2665 117.469 78.0659 116.018ZM64.7411 94.2061C64.7409 94.2057 64.7411 94.2061 63.0496 95.3937L64.7411 94.2061ZM63.0496 95.3937C61.358 94.2061 61.3582 94.2057 61.358 94.2061L63.0496 95.3937Z" fill="#80C7EA"/>
<path fill-rule="evenodd" clip-rule="evenodd" d="M99.6925 77.7646L98.0017 78.9533L96.3109 77.7646C96.6959 77.2053 97.3275 76.8719 98.0017 76.8719C98.6759 76.8719 99.3075 77.2053 99.6925 77.7646ZM98.0017 82.6433C97.0275 84.0994 95.678 86.1378 94.0742 88.6165C90.6958 93.8379 86.1944 101.005 81.696 108.794C77.1936 116.59 72.715 124.975 69.3681 132.638C65.9842 140.387 63.892 147.105 63.892 151.679C63.892 170.719 79.1596 186.148 98.0017 186.148C116.844 186.148 132.111 170.719 132.111 151.679C132.111 147.105 130.019 140.387 126.635 132.638C123.288 124.975 118.81 116.59 114.307 108.794C109.809 101.005 105.308 93.8379 101.929 88.6165C100.325 86.1378 98.9759 84.0994 98.0017 82.6433ZM130.404 130.957C133.802 138.738 136.231 146.157 136.231 151.679C136.231 173.018 119.119 190.31 98.0017 190.31C76.8844 190.31 59.7725 173.018 59.7725 151.679C59.7725 146.157 62.2015 138.738 65.5993 130.957C69.0342 123.092 73.598 114.557 78.138 106.696C82.6819 98.8275 87.2229 91.5984 90.6263 86.3384C92.3285 83.7075 93.7476 81.5671 94.742 80.0831C95.2392 79.3411 95.6304 78.763 95.8977 78.3697L96.2037 77.9209L96.283 77.8052L96.3109 77.7646C96.3109 77.7646 96.3109 77.7646 98.0017 78.9533C99.6925 77.7646 99.6925 77.7646 99.6925 77.7646L99.7204 77.8052L99.7997 77.9209L100.106 78.3697C100.373 78.763 100.764 79.3411 101.261 80.0831C102.256 81.5671 103.675 83.7075 105.377 86.3384C108.781 91.5984 113.321 98.8275 117.865 106.696C122.405 114.557 126.969 123.092 130.404 130.957Z" fill="#80C7EA"/>
<path fill-rule="evenodd" clip-rule="evenodd" d="M8.35071 116.822C0.30279 166.58 33.696 213.51 82.9365 221.643C132.177 229.776 178.618 196.031 186.666 146.272C194.714 96.5138 161.321 49.5837 112.081 41.451C62.8401 33.3184 16.3986 67.063 8.35071 116.822ZM81.9398 227.806C29.3312 219.117 -6.34603 168.977 2.25237 115.814C10.8508 62.6523 60.4688 26.5997 113.077 35.2885C165.686 43.9774 201.363 94.1175 192.765 147.28C184.166 200.442 134.548 236.494 81.9398 227.806Z" fill="#80C7EA"/>
</g>
<defs>
<clipPath id="clip0_1089_6240">
<rect width="193" height="229" fill="white" transform="translate(0.988281 0.0667725)"/>
</clipPath>
</defs>
</svg>
