<svg width="194" height="194" viewBox="0 0 194 194" fill="none" xmlns="http://www.w3.org/2000/svg">
<path fill-rule="evenodd" clip-rule="evenodd" d="M22.0905 96.703C22.0905 137.901 55.4111 171.337 96.514 171.384C137.617 171.432 170.937 138.074 170.937 96.876C170.937 55.6785 137.617 22.2425 96.514 22.1947C55.411 22.1469 22.0905 55.5054 22.0905 96.703ZM96.514 176.487C52.5996 176.435 17 140.713 17 96.697C17 52.6816 52.5996 17.0414 96.514 17.0924C140.428 17.1435 176.028 52.8665 176.028 96.882C176.028 140.897 140.428 176.538 96.514 176.487Z" fill="#80C7EA"/>
<path d="M92.224 58.7313L94.7602 57.267L95.5102 58.566L96.0283 58.2669L96.5464 58.566L97.2964 57.267L99.8326 58.7313L99.0826 60.0303L101.619 61.4946L102.369 60.1956L104.905 61.6599L104.155 62.9589L106.691 64.4232L107.441 63.1241L109.978 64.5884L109.228 65.8875L111.764 67.3517L112.514 66.0527L115.05 67.517L114.3 68.816L116.836 70.2803L117.586 68.9813L120.122 70.4456L119.372 71.7446L121.909 73.2089L122.659 71.9099L125.195 73.3741L124.445 74.6732L126.981 76.1375L127.731 74.8384L130.267 76.3027L129.517 77.6017L130.035 77.9009V78.4991H131.535V81.4277H130.035V84.3563H131.535V87.2848H130.035V90.2134H131.535V93.142H130.035V96.0706H131.535V98.9991H130.035V101.928H131.535V104.856H130.035V107.785H131.535V110.713H130.035V113.642H131.535V116.571H130.035V117.169L129.517 117.468L130.267 118.767L127.731 120.231L126.981 118.932L124.445 120.397L125.195 121.696L122.659 123.16L121.909 121.861L119.372 123.325L120.122 124.624L117.586 126.088L116.836 124.789L114.3 126.254L115.05 127.553L112.514 129.017L111.764 127.718L109.228 129.182L109.978 130.481L107.441 131.946L106.691 130.647L104.155 132.111L104.905 133.41L102.369 134.874L101.619 133.575L99.0826 135.039L99.8326 136.338L97.2964 137.803L96.5464 136.504L96.0283 136.803L95.5102 136.504L94.7602 137.803L92.224 136.338L92.974 135.039L90.4378 133.575L89.6878 134.874L87.1516 133.41L87.9016 132.111L85.3653 130.647L84.6153 131.946L82.0791 130.481L82.8291 129.182L80.2929 127.718L79.5429 129.017L77.0067 127.553L77.7567 126.254L75.2205 124.789L74.4705 126.088L71.9343 124.624L72.6843 123.325L70.148 121.861L69.398 123.16L66.8618 121.696L67.6118 120.397L65.0756 118.932L64.3256 120.231L61.7894 118.767L62.5394 117.468L62.0213 117.169V116.571H60.5213V113.642H62.0213V110.713H60.5213V107.785H62.0213V104.856H60.5213V101.928H62.0213V98.9991H60.5213V96.0706H62.0213V93.142H60.5213V90.2134H62.0213V87.2849H60.5213V84.3563H62.0213V81.4277H60.5213V78.4991H62.0213V77.9009L62.5394 77.6017L61.7894 76.3027L64.3256 74.8384L65.0756 76.1375L67.6118 74.6732L66.8618 73.3741L69.398 71.9099L70.148 73.2089L72.6843 71.7446L71.9343 70.4456L74.4705 68.9813L75.2205 70.2803L77.7567 68.816L77.0067 67.517L79.5429 66.0527L80.2929 67.3517L82.8291 65.8875L82.0791 64.5884L84.6153 63.1241L85.3653 64.4232L87.9016 62.9589L87.1516 61.6599L89.6878 60.1956L90.4378 61.4946L92.974 60.0303L92.224 58.7313Z" stroke="#80C7EA" stroke-width="3" stroke-dasharray="3 3"/>
<path d="M62.0283 136.535L94.4119 103.936M136.954 60.7639L122.069 76.0943M115.522 56.5349L122.069 76.0943M122.069 76.0943L141.028 82.2617M122.069 76.0943L108.082 90.1745M101.705 70.2793L108.082 90.1745M108.082 90.1745L127.212 96.3586M108.082 90.1745L94.4119 103.936M87.3579 84.9049L94.4119 103.936M94.4119 103.936L113.042 110.279" stroke="#80C7EA" stroke-width="6"/>
</svg>
