<svg width="259" height="147" viewBox="0 0 259 147" fill="none" xmlns="http://www.w3.org/2000/svg">
<path d="M1.73323 108.696L0.59668 114.858L18.4692 118.155L19.0304 115.112L11.6155 113.744L12.1908 110.625C12.7473 107.608 10.9756 104.743 7.95848 104.187C4.96693 103.635 2.28972 105.679 1.73323 108.696ZM9.36413 110.183L8.80293 113.226L3.99601 112.339L4.55721 109.296C4.81659 107.89 5.99099 106.97 7.39727 107.229C8.82912 107.493 9.62351 108.777 9.36413 110.183Z" fill="#80C7EA"/>
<path d="M24.9277 93.0434L25.9437 89.9837L5.49014 92.2601L5.47375 92.3095L20.5032 106.368L21.4782 103.432L18.1037 100.394L20.4061 93.4598L24.9277 93.0434ZM15.7663 98.2749L11.3383 94.2842L17.2657 93.7594L15.7663 98.2749Z" fill="#80C7EA"/>
<path d="M30.9725 81.238C32.4362 78.4239 32.5685 75.2397 31.0455 72.3081L28.4276 73.8478C29.3491 75.8511 29.3268 77.9789 28.3429 79.8703C26.6273 83.1688 22.7702 84.3863 19.4717 82.6707C16.1733 80.955 14.9557 77.0979 16.6714 73.7995C17.6552 71.908 19.3845 70.6681 21.5538 70.2725L21.3115 67.2451C18.0367 67.6812 15.5055 69.6176 14.0418 72.4317C11.5583 77.2065 13.2914 83.0022 18.02 85.4617C22.7486 87.9212 28.489 86.0128 30.9725 81.238Z" fill="#80C7EA"/>
<path d="M37.6955 69.4921L39.5144 66.9892L27.1894 58.0321L29.6808 54.6039L28.099 51.7829L20.166 62.6988L22.5427 64.426L25.3704 60.535L37.6955 69.4921Z" fill="#80C7EA"/>
<path d="M40.4102 37.9133L41.2659 54.4493L32.9528 46.3648L30.7957 48.5829L44.2161 61.634L44.2523 61.5968L43.3779 45.0427L51.7097 53.1453L53.8668 50.9272L40.4465 37.876L40.4102 37.9133Z" fill="#80C7EA"/>
<path d="M59.3454 46.5874L61.7944 44.6966L52.4834 32.6367L55.838 30.0468L55.1127 26.895L44.4316 35.1414L46.2271 37.467L50.0344 34.5275L59.3454 46.5874Z" fill="#80C7EA"/>
<path d="M68.8169 36.3721L66.3961 32.276L70.9398 29.5906L70.6089 26.3734L64.9012 29.7467L62.5598 25.7849L68.8495 22.0677L68.4962 18.8637L58.4014 24.8298L67.6481 40.4756L76.6237 35.171L76.2705 31.967L68.8169 36.3721Z" fill="#80C7EA"/>
<path d="M86.076 11.2394L74.9456 15.8252L79.2739 26.3305C80.3634 28.9748 80.1459 30.358 78.439 31.0612C78.1265 31.1899 77.8041 31.2947 77.4039 31.3471L78.5132 34.0395C79.0576 33.9277 79.5102 33.7975 79.9669 33.6093C83.5007 32.1533 83.8084 29.2145 82.2039 25.3201L78.9255 17.363L84.3344 15.1345L90.1385 29.2217L92.9992 28.0431L86.076 11.2394Z" fill="#80C7EA"/>
<path d="M99.6031 15.106L96.3247 15.9285L94.5469 8.84208L91.5459 9.59497L95.9683 27.2227L102.248 25.6473C105.299 24.8818 107.207 22.0173 106.448 18.9911C105.683 15.9396 102.655 14.3404 99.6031 15.106ZM101.489 22.8355L98.2607 23.6453L97.027 18.7277L100.255 17.9179C101.718 17.5509 103.106 18.275 103.472 19.7376C103.839 21.2003 102.951 22.4685 101.489 22.8355Z" fill="#80C7EA"/>
<path d="M119.138 4.66694L119.907 12.1676L111.63 13.0161L110.861 5.51541L107.783 5.83093L109.637 23.9102L112.714 23.5947L111.93 15.9388L120.206 15.0903L120.991 22.7462L124.095 22.428L122.241 4.34876L119.138 4.66694Z" fill="#80C7EA"/>
<path d="M134.019 11.8805L130.932 11.6745L131.418 4.38469L128.331 4.17865L127.121 22.3123L133.295 22.7244C136.46 22.9356 139.156 20.7964 139.364 17.6833C139.574 14.5443 137.184 12.0917 134.019 11.8805ZM141.821 5.07897L140.611 23.2126L143.698 23.4187L144.908 5.28501L141.821 5.07897ZM133.437 19.8154L130.402 19.6128L130.739 14.5541L133.775 14.7566C135.279 14.8571 136.378 15.9727 136.277 17.4773C136.177 18.982 134.942 19.9158 133.437 19.8154Z" fill="#80C7EA"/>
<path d="M150.935 21.9943L151.959 17.3479L157.113 18.4846L159.066 15.9067L152.592 14.4789L153.583 9.98485L160.718 11.5583L162.645 8.97478L151.194 6.44946L147.28 24.197L157.462 26.4424L159.389 23.8589L150.935 21.9943Z" fill="#80C7EA"/>
<path d="M179.002 24.2845C180.467 24.0343 181.706 23.122 182.34 21.6399C183.434 19.0821 182.101 16.2494 179.352 15.0733L173.854 12.7213L166.705 29.4304L172.633 31.9666C175.526 33.204 178.687 32.0958 179.873 29.3229C180.63 27.554 180.215 25.68 179.002 24.2845ZM178.151 17.6141C179.442 18.1663 180.02 19.4599 179.478 20.7268C178.936 21.9937 177.602 22.4691 176.311 21.9169L173.681 20.792L175.522 16.4892L178.151 17.6141ZM173.642 29.344L170.583 28.035L172.628 23.2541L175.688 24.5631C177.098 25.1665 177.744 26.6307 177.151 28.0171C176.558 29.4036 175.053 29.9474 173.642 29.344Z" fill="#80C7EA"/>
<path d="M186.73 39.9665C191.285 42.8335 197.204 41.5819 200.043 37.0711C202.882 32.5603 201.451 26.6827 196.896 23.8157C192.342 20.9487 186.423 22.2003 183.584 26.7111C180.745 31.2219 182.176 37.0995 186.73 39.9665ZM188.309 37.4581C185.163 35.4775 184.266 31.5335 186.246 28.387C188.227 25.2404 192.171 24.3435 195.318 26.3241C198.464 28.3047 199.361 32.2486 197.38 35.3952C195.4 38.5418 191.456 39.4387 188.309 37.4581Z" fill="#80C7EA"/>
<path d="M219.644 42.4307L210.713 34.3587L203.094 42.7879C201.177 44.9097 199.835 45.3088 198.465 44.071C198.214 43.8443 197.981 43.5984 197.761 43.2597L195.809 45.42C196.144 45.8633 196.457 46.2157 196.823 46.547C199.658 49.1098 202.443 48.1223 205.268 44.9976L211.038 38.613L215.378 42.5357L205.162 53.8388L207.457 55.9135L219.644 42.4307Z" fill="#80C7EA"/>
<path d="M214.724 65.2661C218.044 69.5021 224.037 70.3215 228.232 67.0336C232.427 63.7458 233.064 57.7301 229.744 53.4941C226.424 49.258 220.431 48.4387 216.236 51.7265C212.041 55.0143 211.404 61.03 214.724 65.2661ZM217.057 63.4377C214.763 60.5114 215.25 56.4961 218.176 54.2027C221.103 51.9092 225.118 52.3961 227.411 55.3224C229.705 58.2488 229.218 62.264 226.292 64.5575C223.365 66.8509 219.35 66.3641 217.057 63.4377Z" fill="#80C7EA"/>
<path d="M228.961 87.2124L233.193 75.46L244.656 78.0395L242.796 74.671L232.18 72.3361L239.327 68.3893L237.831 65.6809L221.922 74.4669L223.418 77.1753L230.928 73.0274L227.038 83.7302L228.961 87.2124Z" fill="#80C7EA"/>
<path d="M250.422 92.9637L243.34 95.5502L240.486 87.7351L247.568 85.1486L246.507 82.2423L229.436 88.4767L230.497 91.383L237.726 88.7429L240.58 96.5581L233.351 99.1981L234.421 102.129L251.493 95.8944L250.422 92.9637Z" fill="#80C7EA"/>
<path d="M237.546 116.885L238.177 120.047L254.826 107.949L254.816 107.898L234.799 103.116L235.404 106.151L239.84 107.121L241.27 114.286L237.546 116.885ZM242.92 107.806L248.742 109.084L243.851 112.472L242.92 107.806Z" fill="#80C7EA"/>
</svg>
