<svg width="69" height="20" fill="none" xmlns="http://www.w3.org/2000/svg"><path fill-rule="evenodd" clip-rule="evenodd" d="M19.698.354v19.292H32.11l1.443-3.156H23.208v-4.912h5.172l1.46-3.156h-6.632V3.51h8.327L32.993.354H19.698zM48.295 10c0 5.536 4.465 10 10 10 5.51 0 10-4.464 10-10 0-5.51-4.49-10-10-10-5.535 0-10 4.49-10 10zm16.556 0c0 3.83-2.963 6.823-6.554 6.823-3.59 0-6.583-2.993-6.583-6.823 0-3.8 2.992-6.823 6.583-6.823S64.851 6.2 64.851 10zM14.577.354l-5.52 11.955L3.537.354H0l9.057 19.615L18.114.354h-3.537zM47.32 19.646l1.472-3.183h-9.675V.353h-3.51v19.293H47.32z" fill="#041E42"/></svg>