<svg width="126" height="158" viewBox="0 0 126 158" fill="none" xmlns="http://www.w3.org/2000/svg">
<path fill-rule="evenodd" clip-rule="evenodd" d="M0 34.7451L99.8413 79.9092L92.2565 83.341L0 41.6064V72.0463L58.6114 98.5606L10.7389 120.218L10.7248 113.435L43.5314 98.5938L0 78.9012V90.6213L17.5241 98.5486L0 106.476V136.999L84.7243 98.6713L10.7248 65.1946V58.255L92.3947 95.2007L126 79.9987L0 22.9985V34.7451Z" fill="#37B0EC"/>
<path fill-rule="evenodd" clip-rule="evenodd" d="M47.8183 112.429L92.4516 112.429L92.4516 83.7136L85.1493 80.3752L85.1493 104.308L73.7863 104.308L73.7863 92.343L66.4835 88.9629L66.4835 104.308L55.1206 104.308L55.1206 85.0439L47.8183 81.6708L47.8183 112.429ZM70.1349 46.27C82.9417 46.27 93.2699 35.9403 93.2699 23.1351C93.2699 10.3854 82.9417 0.000135591 70.1349 0.00013621C57.3869 0.000136827 47 10.3854 47 23.1351C47 35.9403 57.3869 46.27 70.1349 46.27ZM70.1349 7.96748C78.9959 7.96748 85.9192 14.8224 85.9192 23.1301C85.9192 31.4356 78.9959 38.3599 70.1349 38.3599C61.343 38.3599 54.3511 31.4356 54.3511 23.1301C54.3511 14.8224 61.343 7.96748 70.1349 7.96748ZM47.8183 124.276L75.4766 137.047L47.8183 149.817L47.8183 158L93.1986 137.047L47.8183 116.093L47.8183 124.276ZM92.4516 48.5252L85.0864 45.1197L85.0864 67.5028L47.8183 67.5028L47.8183 75.6255L92.4516 75.6255L92.4516 48.5252Z" fill="white"/>
</svg>
