<svg width="78" height="26" viewBox="0 0 78 26" fill="none" xmlns="http://www.w3.org/2000/svg">
<path fill-rule="evenodd" clip-rule="evenodd" d="M3.77244 16.0085H0L3.35299 2.4935C3.56662 1.58521 3.99388 0.931976 4.62176 0.544198C5.24963 0.156419 6.09894 -0.00754206 7.15408 0.000265559C8.20921 0.00807318 9.07417 0.161624 9.70204 0.544198C10.3299 0.926771 10.7441 1.58521 10.9656 2.4935L14.3394 16.0085H10.5461C9.59261 11.8106 8.66253 7.66475 7.70119 3.45904C7.68178 3.34676 7.63124 3.24216 7.55529 3.15715C7.43756 3.0773 7.29583 3.04053 7.15408 3.05305C7.0154 3.03817 6.87614 3.07527 6.76329 3.15715C6.68434 3.24013 6.63334 3.34568 6.61739 3.45904L3.77244 16.0085ZM74.9876 11.2641H72.859C72.6748 11.2633 72.4941 11.3147 72.338 11.4124C72.2471 11.4865 72.1759 11.5817 72.1305 11.6897C72.085 11.7977 72.0668 11.9152 72.0775 12.0318V12.659C72.0648 12.7716 72.0773 12.8857 72.1143 12.9928C72.1513 13.1 72.2117 13.1975 72.2911 13.2784C72.4703 13.4021 72.686 13.4617 72.9033 13.4476H74.9876V11.2641ZM77.9993 7.96664V16.0345H72.4761C71.8853 16.0462 71.2995 15.9252 70.7618 15.6806C70.271 15.448 69.8623 15.0723 69.5894 14.6031C69.2866 14.0505 69.1382 13.4266 69.1596 12.797V11.808C69.1309 11.2007 69.2803 10.5984 69.5894 10.0747C69.8681 9.64539 70.2799 9.31906 70.7618 9.14559C71.311 8.94725 71.8923 8.85281 72.4761 8.86712H74.9954V8.26854C75.0106 7.94946 74.9107 7.63551 74.714 7.38368C74.6021 7.26061 74.4632 7.16509 74.3082 7.10459C74.1531 7.04409 73.9862 7.02024 73.8204 7.03493H69.6624V4.20337H74.0575C74.7557 4.18784 75.4486 4.32647 76.087 4.60936C76.6669 4.8733 77.1536 5.30598 77.4834 5.85078C77.8409 6.49759 78.019 7.22805 77.9993 7.96664ZM62.6542 6.88138C62.4477 6.86664 62.243 6.92772 62.0784 7.05315C61.9944 7.13569 61.9301 7.23615 61.8904 7.34702C61.8507 7.45789 61.8366 7.5763 61.8492 7.69337V9.156H64.3997C64.6603 9.156 64.7931 9.00766 64.7931 8.72658V7.68557C64.8057 7.56849 64.7916 7.45008 64.7519 7.33921C64.7122 7.22834 64.6479 7.12788 64.5639 7.04534C64.3899 6.92074 64.1782 6.86005 63.9646 6.87357L62.6542 6.88138ZM58.8427 12.2608V7.47216C58.8285 6.85235 58.9767 6.2396 59.2726 5.69462C59.5401 5.22428 59.937 4.84041 60.4163 4.58854C60.9223 4.32692 61.4853 4.19459 62.055 4.20337H64.3997C64.9937 4.19296 65.5821 4.31941 66.1192 4.57293C66.5987 4.81944 66.9967 5.19899 67.2655 5.666C67.565 6.21713 67.7133 6.83753 67.6954 7.46435V9.2575C67.7233 9.83908 67.538 10.4109 67.1743 10.8659C66.82 11.2797 66.2443 11.5087 65.4392 11.5087H61.8492V12.0474C61.8335 12.3727 61.9383 12.6923 62.1436 12.9453C62.2561 13.0649 62.3942 13.1577 62.5475 13.2167C62.7009 13.2757 62.8656 13.2995 63.0294 13.2862H67.1978V16.0293H62.7688C62.0631 16.0442 61.3626 15.9057 60.7159 15.6233C60.1356 15.3597 59.6527 14.921 59.3351 14.3689C58.9841 13.7233 58.814 12.995 58.8427 12.2608ZM56.6569 7.96664V16.0345H53.5305V8.41688C53.5492 8.09381 53.4522 7.77463 53.257 7.5164C53.1581 7.40165 53.034 7.31136 52.8943 7.25265C52.7546 7.19395 52.6032 7.16842 52.452 7.17807H50.4589V16.0267H47.3326V4.20337H52.7151C53.4207 4.18904 54.1211 4.32755 54.768 4.60936C55.3442 4.87288 55.826 5.30603 56.1488 5.85078C56.5047 6.49794 56.6801 7.22864 56.6569 7.96664ZM25.279 7.96664V16.0345H22.1396V8.41688C22.1634 8.09526 22.0709 7.77577 21.8791 7.5164C21.7802 7.40165 21.6561 7.31136 21.5164 7.25265C21.3767 7.19395 21.2253 7.16842 21.074 7.17807H19.068V16.0267H15.9573V4.20337H21.3424C22.0456 4.18843 22.7435 4.32698 23.3875 4.60936C23.9669 4.87113 24.4517 5.30451 24.7761 5.85078C25.1284 6.49912 25.3019 7.22931 25.279 7.96664ZM27.582 1.72054V12.2712C27.5591 13.0086 27.7326 13.7388 28.0848 14.3871C28.4025 14.9392 28.8854 15.3779 29.4656 15.6415C30.1127 15.9231 30.813 16.0616 31.5186 16.0475H33.8633V13.065H31.7791C31.6289 13.0731 31.4789 13.0466 31.3407 12.9875C31.2024 12.9284 31.0797 12.8382 30.9819 12.7241C30.7852 12.4692 30.6855 12.1529 30.7005 11.8314V7.04534H33.8607V4.20337H30.7136V1.71013H27.5872L27.582 1.72054ZM41.8563 16.0345V19.9904H44.967V4.20337H41.8563V13.065H39.8555C39.704 13.0748 39.5523 13.049 39.4125 12.9898C39.2727 12.9306 39.1488 12.8396 39.0504 12.7241C38.8491 12.4717 38.7488 12.1535 38.7691 11.8314V4.20337H35.6427V12.2712C35.6174 13.0068 35.7901 13.7358 36.1429 14.3819C36.4682 14.9269 36.9528 15.3592 37.5316 15.6207C38.1782 15.9036 38.8788 16.0421 39.5845 16.0267L41.8563 16.0345Z" fill="#151314"/>
<path fill-rule="evenodd" clip-rule="evenodd" d="M7.17257 10.1211C7.50186 10.1186 7.82449 10.2138 8.09954 10.3946C8.37459 10.5755 8.58966 10.8339 8.71747 11.1371C8.84527 11.4402 8.88005 11.7745 8.8174 12.0974C8.75474 12.4204 8.59747 12.7175 8.36554 12.951C8.13361 13.1845 7.83747 13.3439 7.51469 13.4091C7.19191 13.4742 6.85704 13.4421 6.55256 13.3168C6.24808 13.1915 5.98772 12.9787 5.80449 12.7054C5.62127 12.4321 5.52345 12.1105 5.52344 11.7816C5.52342 11.3434 5.69675 10.9231 6.00566 10.612C6.31456 10.301 6.734 10.1246 7.17257 10.1211Z" fill="#C81947"/>
<path d="M49.2078 25.9446V23.0251H51.5334V21.4216H49.2078V20.2937C49.2078 20.0062 49.3291 19.8182 49.6818 19.8182H52.2609V18.2036H49.6046C48.1718 18.2036 47.3672 18.9888 47.3672 20.2826V25.9446H49.2078Z" fill="#151314"/>
<path d="M55.2588 20.0836C54.344 20.0836 53.7929 20.2273 53.4072 20.5591C52.812 21.0567 52.6687 21.9524 52.6687 23.0362C52.6687 24.1089 52.812 25.0267 53.4072 25.5354C53.7929 25.8561 54.344 25.9999 55.2588 25.9999C56.1626 25.9999 56.7247 25.8561 57.0995 25.5354C57.7167 25.0267 57.849 24.1089 57.849 23.0362C57.849 21.9524 57.7167 21.0567 57.0995 20.5591C56.7247 20.2273 56.1626 20.0836 55.2588 20.0836ZM55.2588 24.6507C54.9612 24.6507 54.7408 24.5954 54.5865 24.4627C54.322 24.2305 54.2889 23.8435 54.2889 23.0362C54.2889 22.2289 54.322 21.8419 54.5865 21.6096C54.7408 21.488 54.9612 21.4327 55.2588 21.4327C55.5454 21.4327 55.7879 21.488 55.9201 21.6096C56.1736 21.8419 56.2177 22.2289 56.2177 23.0362C56.2177 23.8435 56.1736 24.2305 55.9201 24.4627C55.7879 24.5954 55.5454 24.6507 55.2588 24.6507Z" fill="#151314"/>
<path d="M59.0658 21.9746V25.9446H60.7301V22.1847C60.7301 21.8308 60.9285 21.5875 61.3033 21.5875H62.4275V20.1278H61.16C59.9366 20.1278 59.0658 20.7139 59.0658 21.9746Z" fill="#151314"/>
<path d="M67.8584 21.5875H68.674C69.0157 21.5875 69.2141 21.8308 69.2141 22.1847V25.9446H70.8233V21.9746C70.8233 20.7139 69.9856 20.1278 68.8063 20.1278H63.3174V25.9446H64.9156V21.5875H66.2713V25.9446H67.8584V21.5875Z" fill="#151314"/>
</svg>
