<svg width="320" height="54" viewBox="0 0 320 54" fill="none" xmlns="http://www.w3.org/2000/svg">
<rect width="320" height="54" fill="#F0F0F0"/>
<path d="M21.67 17.709H16.54V24H17.881V18.996H20.32V24H21.67V17.709ZM25.1571 17.709H22.7451V24H24.1041V21.543H25.1571C26.2641 21.543 27.1641 20.733 27.1641 19.626C27.1641 18.519 26.2641 17.709 25.1571 17.709ZM25.1121 20.301H24.1041V18.96H25.1121C25.4991 18.96 25.7961 19.221 25.7961 19.626C25.7961 20.022 25.4991 20.301 25.1121 20.301ZM31.0176 24.153C32.8806 24.153 34.3836 22.695 34.3836 20.85C34.3836 19.005 32.8806 17.547 31.0176 17.547C29.1546 17.547 27.6516 19.005 27.6516 20.85C27.6516 22.695 29.1546 24.153 31.0176 24.153ZM31.0176 22.866C29.8926 22.866 29.0286 21.993 29.0286 20.85C29.0286 19.707 29.8926 18.834 31.0176 18.834C32.1426 18.834 33.0066 19.707 33.0066 20.85C33.0066 21.993 32.1426 22.866 31.0176 22.866ZM40.1313 22.713V17.709H35.6583V21.246C35.6583 22.137 35.2893 22.713 34.5423 22.713H34.5333V25.359H35.8473V24H39.7353V25.359H41.0493V22.713H40.1313ZM36.4863 22.713C36.8103 22.353 36.9993 21.822 36.9993 21.066V18.996H38.7723V22.713H36.4863ZM45.0261 17.709L43.6401 20.814L42.2361 17.709H40.7421L42.8931 22.443L42.1641 24H43.6491L46.5111 17.709H45.0261ZM52.5896 24L49.8356 20.742L52.4366 17.709H50.7446L48.4586 20.427V17.709H47.0996V24H48.4586V21.138L50.8526 24H52.5896ZM54.4004 24H55.7594V18.996H57.1724L57.7574 17.709H52.7804V18.996H54.4004V24ZM62.9747 24.153C64.1267 24.153 65.1347 23.667 65.8097 22.659L64.6757 21.966C64.2527 22.542 63.6407 22.866 62.9747 22.866C61.8497 22.866 60.9857 21.993 60.9857 20.85C60.9857 19.707 61.8497 18.834 62.9747 18.834C63.6407 18.834 64.2527 19.158 64.6757 19.734L65.8097 19.041C65.1347 18.033 64.1267 17.547 62.9747 17.547C61.1117 17.547 59.6087 19.005 59.6087 20.85C59.6087 22.695 61.1117 24.153 62.9747 24.153ZM69.4258 24.153C71.2888 24.153 72.7918 22.695 72.7918 20.85C72.7918 19.005 71.2888 17.547 69.4258 17.547C67.5628 17.547 66.0598 19.005 66.0598 20.85C66.0598 22.695 67.5628 24.153 69.4258 24.153ZM69.4258 22.866C68.3008 22.866 67.4368 21.993 67.4368 20.85C67.4368 19.707 68.3008 18.834 69.4258 18.834C70.5508 18.834 71.4148 19.707 71.4148 20.85C71.4148 21.993 70.5508 22.866 69.4258 22.866ZM78.5395 22.713V17.709H74.0665V21.246C74.0665 22.137 73.6975 22.713 72.9505 22.713H72.9415V25.359H74.2555V24H78.1435V25.359H79.4575V22.713H78.5395ZM74.8945 22.713C75.2185 22.353 75.4075 21.822 75.4075 21.066V18.996H77.1805V22.713H74.8945ZM81.6021 21.462H83.2581L83.8431 20.184H81.6021V18.996H83.9061L84.4911 17.709H80.2431V24H83.9061L84.4911 22.713H81.6021V21.462ZM87.6297 17.709H85.2177V24H86.5767V21.543H87.6297C88.7367 21.543 89.6367 20.733 89.6367 19.626C89.6367 18.519 88.7367 17.709 87.6297 17.709ZM87.5847 20.301H86.5767V18.96H87.5847C87.9717 18.96 88.2687 19.221 88.2687 19.626C88.2687 20.022 87.9717 20.301 87.5847 20.301ZM98.4273 24L96.0063 20.742L98.2653 17.709H96.6183L94.6653 20.391V17.709H93.3423V20.391L91.3893 17.709H89.7423L92.0193 20.742L89.5893 24H91.2813L93.3423 21.165V24H94.6653V21.165L96.7263 24H98.4273ZM104.077 17.52L100.261 21.21V17.709H98.9023V24.189H98.9203L102.736 20.49V24H104.095V17.52H104.077ZM106.555 24H107.914V18.996H109.327L109.912 17.709H104.935V18.996H106.555V24ZM115.975 17.709V20.184H113.401V17.709H112.042V24H113.401V21.462H115.975V24H117.334V17.709H115.975ZM123.589 17.52L119.773 21.21V17.709H118.414V24.189H118.432L122.248 20.49V24H123.607V17.52H123.589ZM130.179 24L127.425 20.742L130.026 17.709H128.334L126.048 20.427V17.709H124.689V24H126.048V21.138L128.442 24H130.179ZM133.208 24.153C135.071 24.153 136.574 22.695 136.574 20.85C136.574 19.005 135.071 17.547 133.208 17.547C131.345 17.547 129.842 19.005 129.842 20.85C129.842 22.695 131.345 24.153 133.208 24.153ZM133.208 22.866C132.083 22.866 131.219 21.993 131.219 20.85C131.219 19.707 132.083 18.834 133.208 18.834C134.333 18.834 135.197 19.707 135.197 20.85C135.197 21.993 134.333 22.866 133.208 22.866ZM138.38 24H139.739V18.996H141.152L141.737 17.709H136.76V18.996H138.38V24ZM147.486 17.52L143.67 21.21V17.709H142.311V24.189H142.329L146.145 20.49V24H147.504V17.52H147.486ZM152.52 17.709V20.184H149.946V17.709H148.587V24H149.946V21.462H152.52V24H153.879V17.709H152.52ZM161.69 17.52L157.874 21.21V17.709H156.515V24.189H156.533L160.349 20.49V24H161.708V17.52H161.69ZM167.802 20.688C168.207 20.4 168.459 19.959 168.459 19.41C168.459 18.429 167.613 17.709 166.533 17.709H164.346V24H166.695C167.811 24 168.702 23.199 168.702 22.137C168.702 21.489 168.342 20.976 167.802 20.688ZM166.488 18.924C166.875 18.924 167.154 19.176 167.154 19.554C167.154 19.941 166.875 20.193 166.488 20.193H165.651V18.924H166.488ZM166.632 22.785H165.651V21.336H166.632C167.073 21.336 167.388 21.633 167.388 22.065C167.388 22.488 167.073 22.785 166.632 22.785ZM171.845 20.085H170.855V17.709H169.496V24H171.845C172.97 24 173.879 23.172 173.879 22.038C173.879 20.913 172.97 20.085 171.845 20.085ZM174.374 17.709V24H175.733V17.709H174.374ZM171.8 22.731H170.855V21.345H171.8C172.214 21.345 172.529 21.624 172.529 22.038C172.529 22.461 172.214 22.731 171.8 22.731ZM179.994 20.688C180.444 20.382 180.732 19.914 180.732 19.338C180.732 18.285 179.841 17.574 178.635 17.574C177.681 17.574 176.898 18.042 176.466 18.825L177.6 19.491C177.825 19.086 178.131 18.834 178.572 18.834C179.04 18.834 179.373 19.113 179.373 19.482C179.373 19.851 179.076 20.13 178.626 20.13H178.095V21.372H178.653C179.175 21.372 179.517 21.669 179.517 22.11C179.517 22.533 179.166 22.866 178.617 22.866C178.077 22.866 177.681 22.578 177.447 22.173L176.394 22.92C176.781 23.604 177.573 24.126 178.617 24.126C179.949 24.126 180.885 23.271 180.885 22.191C180.885 21.543 180.534 21.012 179.994 20.688ZM184.079 20.085H183.089V17.709H181.73V24H184.079C185.204 24 186.113 23.172 186.113 22.038C186.113 20.913 185.204 20.085 184.079 20.085ZM186.608 17.709V24H187.967V17.709H186.608ZM184.034 22.731H183.089V21.345H184.034C184.448 21.345 184.763 21.624 184.763 22.038C184.763 22.461 184.448 22.731 184.034 22.731ZM192.508 20.688C192.913 20.4 193.165 19.959 193.165 19.41C193.165 18.429 192.319 17.709 191.239 17.709H189.052V24H191.401C192.517 24 193.408 23.199 193.408 22.137C193.408 21.489 193.048 20.976 192.508 20.688ZM191.194 18.924C191.581 18.924 191.86 19.176 191.86 19.554C191.86 19.941 191.581 20.193 191.194 20.193H190.357V18.924H191.194ZM191.338 22.785H190.357V21.336H191.338C191.779 21.336 192.094 21.633 192.094 22.065C192.094 22.488 191.779 22.785 191.338 22.785ZM197.942 24H199.355L196.376 17.529H196.358L193.379 24H194.72L195.152 22.974H197.501L197.942 24ZM195.683 21.732L196.322 20.229L196.97 21.732H195.683ZM201.186 21.462H202.842L203.427 20.184H201.186V18.996H203.49L204.075 17.709H199.827V24H203.49L204.075 22.713H201.186V21.462ZM206.179 24H207.538V18.996H208.951L209.536 17.709H204.559V18.996H206.179V24ZM216.796 17.709H211.666V24H213.007V18.996H215.446V24H216.796V17.709ZM220.283 17.709H217.871V24H219.23V21.543H220.283C221.39 21.543 222.29 20.733 222.29 19.626C222.29 18.519 221.39 17.709 220.283 17.709ZM220.238 20.301H219.23V18.96H220.238C220.625 18.96 220.922 19.221 220.922 19.626C220.922 20.022 220.625 20.301 220.238 20.301ZM228.196 17.52L224.38 21.21V17.709H223.021V24.189H223.039L226.855 20.49V24H228.214V17.52H228.196ZM232.753 20.688C233.158 20.4 233.41 19.959 233.41 19.41C233.41 18.429 232.564 17.709 231.484 17.709H229.297V24H231.646C232.762 24 233.653 23.199 233.653 22.137C233.653 21.489 233.293 20.976 232.753 20.688ZM231.439 18.924C231.826 18.924 232.105 19.176 232.105 19.554C232.105 19.941 231.826 20.193 231.439 20.193H230.602V18.924H231.439ZM231.583 22.785H230.602V21.336H231.583C232.024 21.336 232.339 21.633 232.339 22.065C232.339 22.488 232.024 22.785 231.583 22.785ZM236.796 20.085H235.806V17.709H234.447V24H236.796C237.921 24 238.83 23.172 238.83 22.038C238.83 20.913 237.921 20.085 236.796 20.085ZM239.325 17.709V24H240.684V17.709H239.325ZM236.751 22.731H235.806V21.345H236.751C237.165 21.345 237.48 21.624 237.48 22.038C237.48 22.461 237.165 22.731 236.751 22.731ZM247.259 24L244.505 20.742L247.106 17.709H245.414L243.128 20.427V17.709H241.769V24H243.128V21.138L245.522 24H247.259ZM251.731 24H253.144L250.165 17.529H250.147L247.168 24H248.509L248.941 22.974H251.29L251.731 24ZM249.472 21.732L250.111 20.229L250.759 21.732H249.472ZM257.549 17.709V20.184H254.975V17.709H253.616V24H254.975V21.462H257.549V24H258.908V17.709H257.549ZM265.163 17.52L261.347 21.21V17.709H259.988V24.189H260.006L263.822 20.49V24H265.181V17.52H265.163ZM267.623 21.462H269.279L269.864 20.184H267.623V18.996H269.927L270.512 17.709H266.264V24H269.927L270.512 22.713H267.623V21.462ZM271.805 24.117C272.282 24.117 272.66 23.73 272.66 23.262C272.66 22.794 272.282 22.407 271.805 22.407C271.328 22.407 270.95 22.794 270.95 23.262C270.95 23.73 271.328 24.117 271.805 24.117ZM17.917 35H19.276V29.996H20.689L21.274 28.709H16.297V29.996H17.917V35ZM24.3819 35.153C26.2449 35.153 27.7479 33.695 27.7479 31.85C27.7479 30.005 26.2449 28.547 24.3819 28.547C22.5189 28.547 21.0159 30.005 21.0159 31.85C21.0159 33.695 22.5189 35.153 24.3819 35.153ZM24.3819 33.866C23.2569 33.866 22.3929 32.993 22.3929 31.85C22.3929 30.707 23.2569 29.834 24.3819 29.834C25.5069 29.834 26.3709 30.707 26.3709 31.85C26.3709 32.993 25.5069 33.866 24.3819 33.866ZM33.5225 28.709H29.0495V32.642C29.0495 33.443 28.8065 33.785 28.2305 33.785C28.1225 33.785 28.0055 33.776 27.8795 33.749V35.009C28.0865 35.045 28.2845 35.063 28.4645 35.063C29.9405 35.063 30.4085 34.037 30.4085 32.651V29.996H32.1635V35H33.5225V28.709ZM37.0045 31.085H35.9605V28.709H34.6015V35H37.0045C38.1385 35 39.0475 34.172 39.0475 33.038C39.0475 31.913 38.1385 31.085 37.0045 31.085ZM36.9685 33.731H35.9605V32.345H36.9685C37.3735 32.345 37.6975 32.624 37.6975 33.038C37.6975 33.461 37.3735 33.731 36.9685 33.731ZM45.3474 35L42.5934 31.742L45.1944 28.709H43.5024L41.2164 31.427V28.709H39.8574V35H41.2164V32.138L43.6104 35H45.3474ZM48.376 35.153C50.239 35.153 51.742 33.695 51.742 31.85C51.742 30.005 50.239 28.547 48.376 28.547C46.513 28.547 45.01 30.005 45.01 31.85C45.01 33.695 46.513 35.153 48.376 35.153ZM48.376 33.866C47.251 33.866 46.387 32.993 46.387 31.85C46.387 30.707 47.251 29.834 48.376 29.834C49.501 29.834 50.365 30.707 50.365 31.85C50.365 32.993 49.501 33.866 48.376 33.866ZM59.4057 33.713V28.709H54.9327V32.246C54.9327 33.137 54.5637 33.713 53.8167 33.713H53.8077V36.359H55.1217V35H59.0097V36.359H60.3237V33.713H59.4057ZM55.7607 33.713C56.0847 33.353 56.2737 32.822 56.2737 32.066V29.996H58.0467V33.713H55.7607ZM66.4463 28.709H61.9733V32.642C61.9733 33.443 61.7303 33.785 61.1543 33.785C61.0463 33.785 60.9293 33.776 60.8033 33.749V35.009C61.0103 35.045 61.2083 35.063 61.3883 35.063C62.8643 35.063 63.3323 34.037 63.3323 32.651V29.996H65.0873V35H66.4463V28.709ZM71.8544 28.709H69.3884C68.2814 28.709 67.4084 29.51 67.4084 30.608C67.4084 31.508 68.0294 32.21 68.8754 32.417L66.9944 35H68.5964L70.5404 32.291V35H71.8544V28.709ZM69.4874 29.951H70.5404V31.292H69.4874C69.0734 31.292 68.7674 31.031 68.7674 30.626C68.7674 30.212 69.0824 29.951 69.4874 29.951ZM77.5821 35.153C78.7341 35.153 79.7421 34.667 80.4171 33.659L79.2831 32.966C78.8601 33.542 78.2481 33.866 77.5821 33.866C76.4571 33.866 75.5931 32.993 75.5931 31.85C75.5931 30.707 76.4571 29.834 77.5821 29.834C78.2481 29.834 78.8601 30.158 79.2831 30.734L80.4171 30.041C79.7421 29.033 78.7341 28.547 77.5821 28.547C75.7191 28.547 74.2161 30.005 74.2161 31.85C74.2161 33.695 75.7191 35.153 77.5821 35.153ZM84.0333 35.153C85.8963 35.153 87.3993 33.695 87.3993 31.85C87.3993 30.005 85.8963 28.547 84.0333 28.547C82.1703 28.547 80.6673 30.005 80.6673 31.85C80.6673 33.695 82.1703 35.153 84.0333 35.153ZM84.0333 33.866C82.9083 33.866 82.0443 32.993 82.0443 31.85C82.0443 30.707 82.9083 29.834 84.0333 29.834C85.1582 29.834 86.0223 30.707 86.0223 31.85C86.0223 32.993 85.1582 33.866 84.0333 33.866ZM91.6532 31.688C92.0582 31.4 92.3102 30.959 92.3102 30.41C92.3102 29.429 91.4642 28.709 90.3842 28.709H88.1972V35H90.5462C91.6622 35 92.5532 34.199 92.5532 33.137C92.5532 32.489 92.1932 31.976 91.6532 31.688ZM90.3392 29.924C90.7262 29.924 91.0052 30.176 91.0052 30.554C91.0052 30.941 90.7262 31.193 90.3392 31.193H89.5022V29.924H90.3392ZM90.4832 33.785H89.5022V32.336H90.4832C90.9242 32.336 91.2392 32.633 91.2392 33.065C91.2392 33.488 90.9242 33.785 90.4832 33.785ZM94.7066 32.462H96.3626L96.9476 31.184H94.7066V29.996H97.0106L97.5956 28.709H93.3476V35H97.0106L97.5956 33.713H94.7066V32.462ZM100.734 28.709H98.3222V35H99.6812V32.543H100.734C101.841 32.543 102.741 31.733 102.741 30.626C102.741 29.519 101.841 28.709 100.734 28.709ZM100.689 31.301H99.6812V29.96H100.689C101.076 29.96 101.373 30.221 101.373 30.626C101.373 31.022 101.076 31.301 100.689 31.301ZM103.473 35H111.105V28.709H109.737V33.713H107.964V28.709H106.605V33.713H104.832V28.709H103.473V35ZM113.542 32.462H115.198L115.783 31.184H113.542V29.996H115.846L116.431 28.709H112.183V35H115.846L116.431 33.713H113.542V32.462ZM121.09 28.709V31.184H118.516V28.709H117.157V35H118.516V32.462H121.09V35H122.449V28.709H121.09ZM127.462 28.709V31.184H124.888V28.709H123.529V35H124.888V32.462H127.462V35H128.821V28.709H127.462ZM132.988 35.153C134.851 35.153 136.354 33.695 136.354 31.85C136.354 30.005 134.851 28.547 132.988 28.547C131.125 28.547 129.622 30.005 129.622 31.85C129.622 33.695 131.125 35.153 132.988 35.153ZM132.988 33.866C131.863 33.866 130.999 32.993 130.999 31.85C130.999 30.707 131.863 29.834 132.988 29.834C134.113 29.834 134.977 30.707 134.977 31.85C134.977 32.993 134.113 33.866 132.988 33.866ZM142.129 28.709H137.656V32.642C137.656 33.443 137.413 33.785 136.837 33.785C136.729 33.785 136.612 33.776 136.486 33.749V35.009C136.693 35.045 136.891 35.063 137.071 35.063C138.547 35.063 139.015 34.037 139.015 32.651V29.996H140.77V35H142.129V28.709ZM144.567 32.462H146.223L146.808 31.184H144.567V29.996H146.871L147.456 28.709H143.208V35H146.871L147.456 33.713H144.567V32.462ZM149.56 35H150.919V29.996H152.332L152.917 28.709H147.94V29.996H149.56V35ZM157.424 28.709V31.184H154.85V28.709H153.491V35H154.85V32.462H157.424V35H158.783V28.709H157.424ZM165.038 28.52L161.222 32.21V28.709H159.863V35.189H159.881L163.697 31.49V35H165.056V28.52H165.038ZM171.584 35L169.433 31.796L171.494 28.709H169.883L168.569 30.752L167.246 28.709H165.626L167.687 31.796L165.536 35H167.147L168.56 32.84L169.964 35H171.584ZM172.629 35.117C173.106 35.117 173.484 34.73 173.484 34.262C173.484 33.794 173.106 33.407 172.629 33.407C172.152 33.407 171.774 33.794 171.774 34.262C171.774 34.73 172.152 35.117 172.629 35.117Z" fill="#282828"/>
<g clip-path="url(#clip0)">
<path d="M304 26.1815C304 31.6039 299.604 35.9996 294.182 35.9996C288.759 35.9996 284.364 31.6039 284.364 26.1815C284.364 20.759 288.759 16.3633 294.182 16.3633C299.604 16.3633 304 20.759 304 26.1815Z" fill="white"/>
<path fill-rule="evenodd" clip-rule="evenodd" d="M294.182 34.5451C298.801 34.5451 302.545 30.8006 302.545 26.1815C302.545 21.5624 298.801 17.8178 294.182 17.8178C289.563 17.8178 285.818 21.5624 285.818 26.1815C285.818 30.8006 289.563 34.5451 294.182 34.5451ZM294.182 35.9996C299.604 35.9996 304 31.6039 304 26.1815C304 20.759 299.604 16.3633 294.182 16.3633C288.759 16.3633 284.364 20.759 284.364 26.1815C284.364 31.6039 288.759 35.9996 294.182 35.9996Z" fill="#A0212E"/>
<path d="M292.492 30.1816H291.237C291.174 30.1816 291.114 30.1551 291.07 30.1078C291.026 30.0605 291.001 29.9964 291.001 29.9296V24.4757C291.001 24.2792 290.8 24.1582 290.643 24.2602L289.591 24.9425C289.539 24.9765 289.476 24.9873 289.417 24.9728C289.357 24.9582 289.305 24.9194 289.272 24.8645L288.765 24.0331C288.748 24.0047 288.736 23.973 288.731 23.9397C288.725 23.9065 288.726 23.8723 288.733 23.8394C288.74 23.8064 288.753 23.7753 288.772 23.7479C288.79 23.7205 288.814 23.6974 288.841 23.6799L291.1 22.2181C291.136 22.1942 291.179 22.1816 291.222 22.1816H292.492C292.554 22.1816 292.614 22.2082 292.658 22.2555C292.702 22.3027 292.727 22.3669 292.727 22.4337V29.9296C292.727 29.9964 292.702 30.0605 292.658 30.1078C292.614 30.1551 292.554 30.1816 292.492 30.1816Z" fill="black"/>
<path d="M299.355 24.1506C299.355 24.7109 299.105 25.2464 298.546 25.6727C298.415 25.7724 298.423 25.9858 298.56 26.0753C299.292 26.5547 299.636 27.1538 299.636 27.9186C299.636 29.152 298.627 30.1816 296.868 30.1816C295.171 30.1816 294.182 29.1746 294.182 27.9525C294.182 27.1745 294.543 26.6138 295.16 26.2273C295.295 26.1429 295.308 25.9357 295.185 25.8312C294.667 25.3879 294.463 24.8392 294.463 24.241C294.463 23.0077 295.493 22.1816 296.909 22.1816C298.325 22.1817 299.355 22.8946 299.355 24.1506ZM296.643 26.5872C296.579 26.5627 296.508 26.5702 296.452 26.6101C296.046 26.895 295.847 27.3245 295.847 27.862C295.847 28.4844 296.264 28.8804 296.92 28.8804C297.617 28.8804 297.971 28.4504 297.971 27.9073C297.971 27.2849 297.669 27.0021 296.899 26.6852L296.643 26.5872ZM297.029 25.3746C297.064 25.3883 297.101 25.3923 297.138 25.3863C297.175 25.3802 297.209 25.3642 297.239 25.3398C297.636 25.013 297.752 24.6707 297.752 24.2411C297.752 23.7432 297.471 23.4037 296.92 23.4037C296.41 23.4037 296.066 23.6866 296.066 24.2637C296.066 24.7842 296.347 25.0784 296.909 25.3274L297.029 25.3746Z" fill="black"/>
<path fill-rule="evenodd" clip-rule="evenodd" d="M287.122 32.0315L300.395 18.7588L301.423 19.7873L288.151 33.06L287.122 32.0315Z" fill="#A0212E"/>
</g>
<path d="M172 32.9998L175.023 33.0285L175.005 35.0183L172 35.5L171.5 34L172 32.9998Z" fill="#F0F0F0"/>
<defs>
<clipPath id="clip0">
<rect width="20" height="20" fill="white" transform="translate(284 16)"/>
</clipPath>
</defs>
</svg>
