<svg width="260" height="230" viewBox="0 0 260 230" fill="none" xmlns="http://www.w3.org/2000/svg">
<g clip-path="url(#clip0_1409_2)">
<g clip-path="url(#clip1_1409_2)">
<path fill-rule="evenodd" clip-rule="evenodd" d="M65.7989 53.5646C30.336 89.1513 30.336 146.849 65.7989 182.435C101.262 218.022 158.759 218.022 194.222 182.435C229.684 146.849 229.684 89.1513 194.222 53.5646C158.759 17.9779 101.262 17.9779 65.7989 53.5646ZM61.4069 186.843C23.5184 148.822 23.5184 87.1781 61.4069 49.1573C99.2955 11.1365 160.725 11.1365 198.614 49.1573C236.502 87.1781 236.502 148.822 198.614 186.843C160.725 224.864 99.2955 224.864 61.4069 186.843Z" fill="#80C7EA"/>
<path fill-rule="evenodd" clip-rule="evenodd" d="M78.6578 96.3232C79.0278 95.6809 79.711 95.2852 80.4504 95.2852H126.456C127.195 95.2852 127.878 95.6809 128.248 96.3232L151.271 136.297C151.642 136.94 151.642 137.733 151.272 138.376L128.249 178.392C127.879 179.035 127.195 179.431 126.456 179.431H80.4504C79.7107 179.431 79.0272 179.035 78.6573 178.392L55.6341 138.376C55.2641 137.733 55.2642 136.94 55.6346 136.297L78.6578 96.3232ZM81.6451 99.4405L59.8182 137.338L81.6457 175.275H125.26L147.088 137.338L125.261 99.4405H81.6451Z" fill="#80C7EA"/>
<path fill-rule="evenodd" clip-rule="evenodd" d="M166.572 71.8912C166.942 71.2479 167.626 70.8516 168.366 70.8516H191.389C192.129 70.8516 192.813 71.2479 193.183 71.8912L204.694 91.9199C205.064 92.5629 205.063 93.3549 204.693 93.9976L193.182 113.985C192.812 114.627 192.128 115.023 191.389 115.023H168.366C167.626 115.023 166.943 114.627 166.573 113.985L155.062 93.9976C154.691 93.3549 154.691 92.5629 155.061 91.9199L166.572 71.8912ZM169.562 75.0069L159.245 92.9568L169.56 110.867H190.194L200.51 92.9568L190.193 75.0069H169.562Z" fill="#80C7EA"/>
<path fill-rule="evenodd" clip-rule="evenodd" d="M162.117 103.087C162.695 104.077 162.362 105.35 161.375 105.929L139.429 118.811C138.442 119.39 137.174 119.057 136.596 118.066C136.019 117.076 136.351 115.803 137.338 115.224L159.285 102.343C160.272 101.763 161.54 102.097 162.117 103.087Z" fill="#80C7EA"/>
</g>
</g>
<defs>
<clipPath id="clip0_1409_2">
<rect width="260" height="230" fill="white"/>
</clipPath>
<clipPath id="clip1_1409_2">
<rect width="194" height="229" fill="white" transform="translate(33 -14)"/>
</clipPath>
</defs>
</svg>
