<svg width="88" height="101" viewBox="0 0 88 101" fill="none" xmlns="http://www.w3.org/2000/svg">
<path d="M39.9288 2.41052L42.6351 0.848022L43.3851 2.14706L43.9883 1.79882L44.5914 2.14706L45.3414 0.848022L48.0478 2.41052L47.2978 3.70956L50.0041 5.27206L50.7541 3.97302L53.4604 5.53552L52.7104 6.83456L55.4168 8.39706L56.1668 7.09802L58.8731 8.66052L58.1231 9.95956L60.8294 11.5221L61.5794 10.223L64.2858 11.7855L63.5358 13.0846L66.2421 14.6471L66.9921 13.348L69.6984 14.9105L68.9484 16.2096L71.6547 17.7721L72.4047 16.473L75.1111 18.0355L74.3611 19.3346L77.0674 20.8971L77.8174 19.598L80.5237 21.1605L79.7737 22.4596L82.4801 24.0221L83.2301 22.723L85.9364 24.2855L85.1864 25.5846L85.7896 25.9328V26.6293H87.2896V29.7543H85.7896V32.8793H87.2896V36.0043H85.7896V39.1293H87.2896V42.2543H85.7896V45.3793H87.2896V48.5043H85.7896V51.6293H87.2896V54.7543H85.7896V57.8793H87.2896V61.0043H85.7896V64.1293H87.2896V67.2543H85.7896V70.3793H87.2896V73.5043H85.7896V74.2007L85.1864 74.549L85.9364 75.848L83.2301 77.4105L82.4801 76.1115L79.7737 77.674L80.5237 78.973L77.8174 80.5355L77.0674 79.2365L74.3611 80.799L75.1111 82.098L72.4047 83.6605L71.6547 82.3615L68.9484 83.924L69.6984 85.223L66.9921 86.7855L66.2421 85.4865L63.5358 87.049L64.2858 88.348L61.5794 89.9105L60.8294 88.6115L58.1231 90.174L58.8731 91.473L56.1668 93.0355L55.4168 91.7365L52.7104 93.299L53.4604 94.598L50.7541 96.1605L50.0041 94.8615L47.2978 96.424L48.0478 97.723L45.3414 99.2855L44.5914 97.9865L43.9883 98.3347L43.3851 97.9865L42.6351 99.2855L39.9288 97.723L40.6788 96.424L37.9725 94.8615L37.2225 96.1605L34.5161 94.598L35.2661 93.299L32.5598 91.7365L31.8098 93.0355L29.1035 91.473L29.8535 90.174L27.1471 88.6115L26.3971 89.9105L23.6908 88.348L24.4408 87.049L21.7345 85.4865L20.9845 86.7855L18.2782 85.223L19.0282 83.924L16.3218 82.3615L15.5718 83.6605L12.8655 82.098L13.6155 80.799L10.9092 79.2365L10.1592 80.5355L7.45284 78.973L8.20284 77.674L5.49651 76.1115L4.74651 77.4105L2.04018 75.848L2.79018 74.549L2.18701 74.2007V73.5043H0.687012V70.3793H2.18701V67.2543H0.687012V64.1293H2.18701V61.0043H0.687012V57.8793H2.18701V54.7543H0.687012V51.6293H2.18701V48.5043H0.687012V45.3793H2.18701V42.2543H0.687012V39.1293H2.18701V36.0043H0.687012V32.8793H2.18701V29.7543H0.687012V26.6293H2.18701V25.9328L2.79018 25.5846L2.04018 24.2855L4.74651 22.723L5.49651 24.0221L8.20284 22.4596L7.45284 21.1605L10.1592 19.598L10.9092 20.8971L13.6155 19.3346L12.8655 18.0355L15.5718 16.473L16.3218 17.7721L19.0282 16.2096L18.2782 14.9105L20.9845 13.348L21.7345 14.6471L24.4408 13.0846L23.6908 11.7855L26.3971 10.223L27.1471 11.5221L29.8535 9.95956L29.1035 8.66052L31.8098 7.09802L32.5598 8.39706L35.2661 6.83456L34.5161 5.53552L37.2225 3.97302L37.9725 5.27206L40.6788 3.70956L39.9288 2.41052Z" stroke="#80C7EA" stroke-width="3" stroke-dasharray="3 3"/>
</svg>
