<svg width="229" height="229" viewBox="0 0 229 229" fill="none" xmlns="http://www.w3.org/2000/svg">
<path d="M114.894 224.733C54.3013 224.733 4.99805 175.434 4.99805 114.837H0.998047C0.998047 177.643 52.0922 228.733 114.894 228.733V224.733ZM4.99805 114.837C4.99805 54.2443 54.3012 4.94489 114.894 4.94489V0.944885C52.0922 0.944885 0.998047 52.035 0.998047 114.837H4.99805ZM114.894 4.94489C175.487 4.94489 224.786 54.2442 224.786 114.837H228.786C228.786 52.035 177.696 0.944885 114.894 0.944885V4.94489ZM224.786 114.837C224.786 175.434 175.487 224.733 114.894 224.733V228.733C177.696 228.733 228.786 177.643 228.786 114.837H224.786Z" fill="#80C7EA"/>
<path fill-rule="evenodd" clip-rule="evenodd" d="M132.771 111.307C128.164 111.22 124.655 112.503 121.58 113.62C119.168 114.496 117.088 115.254 114.83 115.254C112.576 115.254 110.5 114.496 108.1 113.62C105.033 112.503 101.567 111.232 96.9524 111.307L50.7051 111.303C59.3182 104.035 79.9432 87.1171 89.2669 83.7065L90.3446 83.371C97.6867 81.0776 106.023 82.771 111.956 87.8039C112.777 88.4986 113.804 88.8815 114.85 88.8815C115.892 88.8815 116.918 88.4986 117.739 87.8039C123.672 82.771 132.005 81.0736 139.355 83.371L140.342 83.671C149.737 87.0026 172.106 103.976 181.521 111.307H132.771ZM138.645 79.2507C134.342 78.234 134.615 78.5441 132.559 78.5441C126.259 78.5441 120.124 80.802 115.285 84.9073C115.147 85.0257 114.997 85.0888 114.851 85.0888C114.701 85.0888 114.551 85.0257 114.413 84.9073C109.573 80.802 103.439 78.5441 97.1388 78.5441C95.0073 78.5441 92.8954 78.7928 90.8349 79.298L90.827 79.2862L90.2112 79.4559C90.073 79.4954 89.9349 79.5349 89.7967 79.5744L89.2638 79.7244C77.3783 83.0362 45.6612 110.601 44.3191 111.773L40.498 115.101H96.9809C100.909 115.01 103.905 116.131 106.798 117.185C109.423 118.144 111.906 119.048 114.831 119.048C117.756 119.048 120.243 118.144 122.876 117.189C125.781 116.131 128.789 115.038 132.744 115.101H181.64C153.657 137.652 139.676 146.273 114.831 146.273C91.7625 146.273 77.7612 137.834 58.1152 122.763H51.9059C74.3191 140.218 89.0507 150.07 114.866 150.07C143.414 150.07 158.809 138.58 188.197 114.674L190.02 113.19L188.189 111.722C187.257 110.98 173.035 99.6112 159.74 90.5638L146.998 82.4831C146.998 82.4831 142.948 80.2674 138.645 79.2507Z" fill="#80C7EA"/>
<path d="M176.066 140.452C178.145 143.289 180.481 148.539 179.997 155.8C179.683 160.508 177.525 164.347 174.992 167.215C172.464 170.078 169.529 172.013 167.566 172.929L166.932 171.57C168.719 170.736 171.484 168.922 173.868 166.222C176.247 163.528 178.214 159.991 178.5 155.7C178.971 148.643 176.629 143.69 174.748 141.194V145.251C174.748 145.665 174.412 146.001 173.998 146.001C173.584 146.001 173.248 145.665 173.248 145.251V138.501C173.248 138.314 173.316 138.143 173.429 138.012C173.653 137.75 174.036 137.669 174.352 137.838L180.308 141.015C180.673 141.21 180.811 141.665 180.616 142.03C180.421 142.396 179.967 142.534 179.601 142.339L176.066 140.452Z" fill="#80C7EA"/>
<path fill-rule="evenodd" clip-rule="evenodd" d="M97.5726 194.206L93.4602 194.231L93.3434 174.988L97.4595 174.965L97.5726 194.206ZM138.958 174.715L139.071 193.956L101.366 194.182L101.251 174.944L138.958 174.715ZM146.851 174.67L146.965 193.907L142.87 193.929L142.752 174.691L146.851 174.67ZM89.6871 198.046L150.783 197.682L150.624 170.849L89.528 171.213L89.6871 198.046Z" fill="#80C7EA"/>
</svg>
