<svg width="229" height="229" viewBox="0 0 229 229" fill="none" xmlns="http://www.w3.org/2000/svg">
<path d="M114.394 224.232C53.8013 224.232 4.49805 174.933 4.49805 114.336H0.498047C0.498047 177.142 51.5922 228.232 114.394 228.232V224.232ZM4.49805 114.336C4.49805 53.7473 53.8012 4.44781 114.394 4.44781V0.447815C51.5923 0.447815 0.498047 51.5378 0.498047 114.336H4.49805ZM114.394 4.44781C174.987 4.44781 224.286 53.7472 224.286 114.336H228.286C228.286 51.5379 177.196 0.447815 114.394 0.447815V4.44781ZM224.286 114.336C224.286 174.933 174.987 224.232 114.394 224.232V228.232C177.196 228.232 228.286 177.142 228.286 114.336H224.286Z" fill="#80C7EA"/>
<path fill-rule="evenodd" clip-rule="evenodd" d="M117.193 57.189H115.16V112.31H62.0756V116.372H119.226V61.2903C147.56 62.364 170.281 85.7482 170.281 114.343C170.281 143.613 146.466 167.427 117.193 167.427C94.4598 167.427 74.194 152.625 66.9506 131.49L76.7046 136.693L78.619 133.105L62.8414 124.701L54.4414 140.475L58.0256 142.385L63.1098 132.84C70.9177 155.569 92.7309 171.493 117.193 171.493C148.705 171.493 174.347 145.851 174.347 114.343C174.347 82.8272 148.705 57.189 117.193 57.189Z" fill="#80C7EA"/>
</svg>
