<svg width="229" height="229" viewBox="0 0 229 229" fill="none" xmlns="http://www.w3.org/2000/svg">
<path d="M114.394 224.734C53.8013 224.734 4.49805 175.435 4.49805 114.838H0.498047C0.498047 177.644 51.5922 228.734 114.394 228.734V224.734ZM4.49805 114.838C4.49805 54.2453 53.8012 4.94586 114.394 4.94586V0.945862C51.5922 0.945862 0.498047 52.0359 0.498047 114.838H4.49805ZM114.394 4.94586C174.987 4.94586 224.286 54.2452 224.286 114.838H228.286C228.286 52.036 177.196 0.945862 114.394 0.945862V4.94586ZM224.286 114.838C224.286 175.435 174.987 224.734 114.394 224.734V228.734C177.196 228.734 228.286 177.644 228.286 114.838H224.286Z" fill="#80C7EA"/>
<path fill-rule="evenodd" clip-rule="evenodd" d="M135.741 86.3439C133.95 85.9669 132.121 85.7769 130.279 85.7769C123.979 85.7769 117.845 88.0348 113.006 92.144C112.867 92.2585 112.717 92.3217 112.567 92.3217C112.421 92.3217 112.271 92.2585 112.133 92.144C107.294 88.0348 101.156 85.7769 94.8595 85.7769C92.728 85.7769 90.6122 86.0295 88.5516 86.5348L88.5477 86.519L87.9319 86.6927C87.7938 86.7282 87.6556 86.7677 87.5174 86.8072L86.9845 86.9572C75.0951 90.269 43.3819 117.833 42.0359 119.006L38.2188 122.333H94.7016C98.5555 122.244 101.512 123.322 104.356 124.358L104.519 124.418C107.144 125.377 109.623 126.281 112.552 126.281C115.472 126.281 117.956 125.38 120.584 124.426L120.596 124.422L120.632 124.409C123.526 123.359 126.526 122.271 130.465 122.333H179.361C151.378 144.885 137.396 153.506 112.552 153.506C89.4793 153.506 75.4819 145.066 55.8319 129.995H49.6266C72.0359 147.451 86.7674 157.303 112.587 157.303C141.135 157.303 156.529 145.812 185.917 121.911L187.741 120.427L185.906 118.955C185.212 118.4 177.085 111.905 167.47 104.881C166.342 105.685 165.126 106.376 163.84 106.936C169.919 111.35 175.566 115.679 179.242 118.54H130.492C125.895 118.457 122.398 119.728 119.33 120.843L119.301 120.853L119.283 120.86C116.879 121.733 114.803 122.487 112.551 122.487C110.293 122.487 108.217 121.729 105.817 120.853L105.78 120.84C102.726 119.726 99.2691 118.465 94.6732 118.54H48.4258C57.0389 111.269 77.6639 94.3544 86.9876 90.9399L88.0613 90.6044C95.4074 88.311 103.744 90.0044 109.677 95.0373C110.498 95.732 111.524 96.1149 112.567 96.1149C113.613 96.1149 114.639 95.732 115.46 95.0373C121.026 90.3128 128.713 88.5276 135.711 90.2269C135.679 89.8562 135.656 89.4826 135.644 89.1061C135.613 88.1712 135.647 87.249 135.741 86.3439Z" fill="#80C7EA"/>
<path fill-rule="evenodd" clip-rule="evenodd" d="M175.94 87.7887C175.577 76.6611 166.261 67.9374 155.134 68.3006C144.01 68.6637 135.283 77.9795 135.646 89.1032C136.009 100.231 145.325 108.954 156.452 108.595C167.576 108.228 176.304 98.9163 175.94 87.7887Z" stroke="#80C7EA" stroke-width="2.63158" stroke-dasharray="5.26"/>
<path fill-rule="evenodd" clip-rule="evenodd" d="M165.421 88.1341C165.247 82.813 160.794 78.6446 155.473 78.8183C150.156 78.992 145.984 83.4446 146.158 88.7617C146.331 94.0828 150.784 98.2551 156.105 98.0814C161.422 97.9078 165.594 93.4551 165.421 88.1341Z" stroke="#80C7EA" stroke-width="2.63158" stroke-dasharray="5.26"/>
</svg>
