<svg width="229" height="229" viewBox="0 0 229 229" fill="none" xmlns="http://www.w3.org/2000/svg">
<path d="M114.394 226.783C52.6967 226.783 2.49805 176.588 2.49805 114.891C2.49805 53.1933 52.6967 2.9986 114.394 2.9986C176.091 2.9986 226.286 53.1933 226.286 114.891C226.286 176.588 176.091 226.783 114.394 226.783" stroke="#80C7EA" stroke-width="4"/>
<path fill-rule="evenodd" clip-rule="evenodd" d="M136.943 73.9047L133.019 75.1363L127.256 56.7771L131.183 55.5455L136.943 73.9047ZM170.779 43.1207L176.538 61.4799L140.562 72.7693L134.803 54.4141L170.779 43.1207ZM178.312 40.7593L184.071 59.1146L180.164 60.3383L174.4 41.983L178.312 40.7593ZM130.531 79.8933L188.826 61.6012L180.793 35.9986L122.498 54.2907L130.531 79.8933Z" fill="#80C7EA"/>
<path fill-rule="evenodd" clip-rule="evenodd" d="M34.7949 91.6165C34.7949 68.8323 53.3278 50.2955 76.112 50.2955C98.8962 50.2955 117.429 68.8323 117.429 91.6165C117.429 114.397 98.8962 132.934 76.112 132.934C53.3278 132.934 34.7949 114.397 34.7949 91.6165ZM160.648 145.617C160.648 168.397 142.115 186.93 119.331 186.93C96.5505 186.93 78.0137 168.397 78.0137 145.617C78.0137 142.526 78.365 139.522 79.0084 136.624H79.0045C98.2005 135.405 114.168 122.126 119.402 104.295C119.402 104.295 119.402 104.295 119.402 104.299C142.151 104.339 160.648 122.852 160.648 145.617ZM129.319 90.6302V94.4868C153.284 99.1565 171.43 120.306 171.43 145.617C171.43 174.346 148.057 197.718 119.328 197.718C90.5994 197.718 67.227 174.346 67.227 145.617C67.227 142.333 67.5586 139.124 68.1467 136.009C70.4086 136.416 72.7336 136.649 75.102 136.708C74.5217 139.585 74.2138 142.566 74.2138 145.617C74.2138 170.489 94.4559 190.728 119.328 190.728C144.205 190.728 164.443 170.489 164.443 145.617C164.443 121.08 144.749 101.067 120.339 100.526V100.53C120.919 97.6446 121.227 94.6644 121.227 91.617C121.227 66.7368 100.989 46.4986 76.1125 46.4986C51.2401 46.4986 30.998 66.7368 30.998 91.617C30.998 112.451 45.2086 130.029 64.4402 135.188C63.7967 138.571 63.4296 142.049 63.4296 145.617C63.4296 176.438 88.5033 201.516 119.328 201.516C150.149 201.516 175.227 176.438 175.227 145.617C175.227 118.203 155.388 95.3552 129.319 90.6302Z" fill="#80C7EA"/>
<path d="M172.483 105.548C175.466 103.683 179.58 99.6715 181.819 92.7476C183.271 88.2574 182.688 83.893 181.397 80.2904C180.108 76.6946 178.098 73.8099 176.614 72.2323L175.522 73.26C176.873 74.6966 178.77 77.406 179.985 80.7964C181.197 84.18 181.715 88.1938 180.391 92.286C178.215 99.0154 174.206 102.749 171.534 104.371L173.036 100.603C173.19 100.218 173.002 99.7818 172.618 99.6284C172.233 99.475 171.797 99.6626 171.643 100.047L169.144 106.318C169.074 106.491 169.075 106.675 169.131 106.839C169.242 107.165 169.568 107.382 169.924 107.342L176.632 106.596C177.044 106.55 177.341 106.179 177.295 105.767C177.249 105.356 176.878 105.059 176.467 105.105L172.483 105.548Z" fill="#80C7EA"/>
</svg>
