<svg width="263" height="229" viewBox="0 0 263 229" fill="none" xmlns="http://www.w3.org/2000/svg">
<g clip-path="url(#clip0_1089_6183)">
<path fill-rule="evenodd" clip-rule="evenodd" d="M44.4451 110.202C32.8479 158.951 62.8635 207.895 111.487 219.522C160.11 231.149 208.929 201.056 220.526 152.307C232.123 103.559 202.107 54.6143 153.484 42.9871C104.861 31.36 56.0423 61.453 44.4451 110.202ZM110.051 225.56C58.1014 213.137 26.0327 160.845 38.4232 108.762C50.8137 56.6786 102.971 24.5272 154.92 36.9497C206.87 49.3721 238.938 101.664 226.548 153.747C214.157 205.831 162 237.982 110.051 225.56Z" fill="#80C7EA"/>
<path d="M5.73323 108.696L4.59668 114.858L22.4692 118.155L23.0304 115.112L15.6155 113.744L16.1908 110.625C16.7473 107.608 14.9756 104.743 11.9585 104.187C8.96693 103.635 6.28972 105.679 5.73323 108.696ZM13.3641 110.183L12.8029 113.226L7.99601 112.339L8.55721 109.296C8.81659 107.89 9.99099 106.97 11.3973 107.229C12.8291 107.493 13.6235 108.777 13.3641 110.183Z" fill="#80C7EA"/>
<path d="M28.9277 93.0434L29.9437 89.9837L9.49014 92.2601L9.47375 92.3095L24.5032 106.368L25.4782 103.432L22.1037 100.394L24.4061 93.4598L28.9277 93.0434ZM19.7663 98.2749L15.3383 94.2842L21.2657 93.7594L19.7663 98.2749Z" fill="#80C7EA"/>
<path d="M34.9725 81.238C36.4362 78.4239 36.5685 75.2397 35.0455 72.3081L32.4276 73.8478C33.3491 75.8511 33.3268 77.9789 32.3429 79.8703C30.6273 83.1688 26.7702 84.3863 23.4717 82.6707C20.1733 80.955 18.9557 77.0979 20.6714 73.7995C21.6552 71.908 23.3845 70.6681 25.5538 70.2725L25.3115 67.2451C22.0367 67.6812 19.5055 69.6176 18.0418 72.4317C15.5583 77.2065 17.2914 83.0022 22.02 85.4617C26.7486 87.9212 32.489 86.0128 34.9725 81.238Z" fill="#80C7EA"/>
<path d="M41.6955 69.4921L43.5144 66.9892L31.1894 58.0321L33.6808 54.6039L32.099 51.7829L24.166 62.6988L26.5427 64.426L29.3704 60.535L41.6955 69.4921Z" fill="#80C7EA"/>
<path d="M44.4102 37.9133L45.2659 54.4493L36.9528 46.3648L34.7957 48.5829L48.2161 61.634L48.2523 61.5968L47.3779 45.0427L55.7097 53.1453L57.8668 50.9272L44.4465 37.876L44.4102 37.9133Z" fill="#80C7EA"/>
<path d="M63.3454 46.5874L65.7944 44.6966L56.4834 32.6367L59.838 30.0468L59.1127 26.895L48.4316 35.1414L50.2271 37.467L54.0344 34.5275L63.3454 46.5874Z" fill="#80C7EA"/>
<path d="M72.8169 36.3721L70.3961 32.276L74.9398 29.5906L74.6089 26.3734L68.9012 29.7467L66.5598 25.7849L72.8495 22.0677L72.4962 18.8637L62.4014 24.8298L71.6481 40.4756L80.6237 35.171L80.2705 31.967L72.8169 36.3721Z" fill="#80C7EA"/>
<path d="M90.076 11.2394L78.9456 15.8252L83.2739 26.3305C84.3634 28.9748 84.1459 30.358 82.439 31.0612C82.1265 31.1899 81.8041 31.2947 81.4039 31.3471L82.5132 34.0395C83.0576 33.9277 83.5102 33.7975 83.9669 33.6093C87.5007 32.1533 87.8084 29.2145 86.2039 25.3201L82.9255 17.363L88.3344 15.1345L94.1385 29.2217L96.9992 28.0431L90.076 11.2394Z" fill="#80C7EA"/>
<path d="M103.603 15.106L100.325 15.9285L98.5469 8.84208L95.5459 9.59497L99.9683 27.2227L106.248 25.6473C109.299 24.8818 111.207 22.0173 110.448 18.9911C109.683 15.9396 106.655 14.3404 103.603 15.106ZM105.489 22.8355L102.261 23.6453L101.027 18.7277L104.255 17.9179C105.718 17.5509 107.106 18.275 107.472 19.7376C107.839 21.2003 106.951 22.4685 105.489 22.8355Z" fill="#80C7EA"/>
<path d="M123.138 4.66694L123.907 12.1676L115.63 13.0161L114.861 5.51541L111.783 5.83093L113.637 23.9102L116.714 23.5947L115.93 15.9388L124.206 15.0903L124.991 22.7462L128.095 22.428L126.241 4.34876L123.138 4.66694Z" fill="#80C7EA"/>
<path d="M138.019 11.8805L134.932 11.6745L135.418 4.38469L132.331 4.17865L131.121 22.3123L137.295 22.7244C140.46 22.9356 143.156 20.7964 143.364 17.6833C143.574 14.5443 141.184 12.0917 138.019 11.8805ZM145.821 5.07897L144.611 23.2126L147.698 23.4187L148.908 5.28501L145.821 5.07897ZM137.437 19.8154L134.402 19.6128L134.739 14.5541L137.775 14.7566C139.279 14.8571 140.378 15.9727 140.277 17.4773C140.177 18.982 138.942 19.9158 137.437 19.8154Z" fill="#80C7EA"/>
<path d="M154.935 21.9943L155.959 17.3479L161.113 18.4846L163.066 15.9067L156.592 14.4789L157.583 9.98485L164.718 11.5583L166.645 8.97478L155.194 6.44946L151.28 24.197L161.462 26.4424L163.389 23.8589L154.935 21.9943Z" fill="#80C7EA"/>
<path d="M183.002 24.2845C184.467 24.0343 185.706 23.122 186.34 21.6399C187.434 19.0821 186.101 16.2494 183.352 15.0733L177.854 12.7213L170.705 29.4304L176.633 31.9666C179.526 33.204 182.687 32.0958 183.873 29.3229C184.63 27.554 184.215 25.68 183.002 24.2845ZM182.151 17.6141C183.442 18.1663 184.02 19.4599 183.478 20.7268C182.936 21.9937 181.602 22.4691 180.311 21.9169L177.681 20.792L179.522 16.4892L182.151 17.6141ZM177.642 29.344L174.583 28.035L176.628 23.2541L179.688 24.5631C181.098 25.1665 181.744 26.6307 181.151 28.0171C180.558 29.4036 179.053 29.9474 177.642 29.344Z" fill="#80C7EA"/>
<path d="M190.73 39.9665C195.285 42.8335 201.204 41.5819 204.043 37.0711C206.882 32.5603 205.451 26.6827 200.896 23.8157C196.342 20.9487 190.423 22.2003 187.584 26.7111C184.745 31.2219 186.176 37.0995 190.73 39.9665ZM192.309 37.4581C189.163 35.4775 188.266 31.5335 190.246 28.387C192.227 25.2404 196.171 24.3435 199.318 26.3241C202.464 28.3047 203.361 32.2486 201.38 35.3952C199.4 38.5418 195.456 39.4387 192.309 37.4581Z" fill="#80C7EA"/>
<path d="M223.644 42.4307L214.713 34.3587L207.094 42.7879C205.177 44.9097 203.835 45.3088 202.465 44.071C202.214 43.8443 201.981 43.5984 201.761 43.2597L199.809 45.42C200.144 45.8633 200.457 46.2157 200.823 46.547C203.658 49.1098 206.443 48.1223 209.268 44.9976L215.038 38.613L219.378 42.5357L209.162 53.8388L211.457 55.9135L223.644 42.4307Z" fill="#80C7EA"/>
<path d="M218.724 65.2661C222.044 69.5021 228.037 70.3215 232.232 67.0336C236.427 63.7458 237.064 57.7301 233.744 53.4941C230.424 49.258 224.431 48.4387 220.236 51.7265C216.041 55.0143 215.404 61.03 218.724 65.2661ZM221.057 63.4377C218.763 60.5114 219.25 56.4961 222.176 54.2027C225.103 51.9092 229.118 52.3961 231.411 55.3224C233.705 58.2488 233.218 62.264 230.292 64.5575C227.365 66.8509 223.35 66.3641 221.057 63.4377Z" fill="#80C7EA"/>
<path d="M232.961 87.2124L237.193 75.46L248.656 78.0395L246.796 74.671L236.18 72.3361L243.327 68.3893L241.831 65.6809L225.922 74.4669L227.418 77.1753L234.928 73.0274L231.038 83.7302L232.961 87.2124Z" fill="#80C7EA"/>
<path d="M254.422 92.9637L247.34 95.5502L244.486 87.7351L251.568 85.1486L250.507 82.2423L233.436 88.4767L234.497 91.383L241.726 88.7429L244.58 96.5581L237.351 99.1981L238.421 102.129L255.493 95.8944L254.422 92.9637Z" fill="#80C7EA"/>
<path d="M241.546 116.885L242.177 120.047L258.826 107.949L258.816 107.898L238.799 103.116L239.404 106.151L243.84 107.121L245.27 114.286L241.546 116.885ZM246.92 107.806L252.742 109.084L247.851 112.472L246.92 107.806Z" fill="#80C7EA"/>
<path d="M127.929 84.4105L130.635 82.848L131.385 84.1471L131.988 83.7988L132.591 84.1471L133.341 82.848L136.048 84.4105L135.298 85.7096L138.004 87.2721L138.754 85.973L141.46 87.5355L140.71 88.8346L143.417 90.3971L144.167 89.098L146.873 90.6605L146.123 91.9596L148.829 93.5221L149.579 92.223L152.286 93.7855L151.536 95.0846L154.242 96.6471L154.992 95.348L157.698 96.9105L156.948 98.2096L159.655 99.7721L160.405 98.473L163.111 100.036L162.361 101.335L165.067 102.897L165.817 101.598L168.524 103.161L167.774 104.46L170.48 106.022L171.23 104.723L173.936 106.286L173.186 107.585L173.79 107.933V108.629H175.29V111.754H173.79V114.879H175.29V118.004H173.79V121.129H175.29V124.254H173.79V127.379H175.29V130.504H173.79V133.629H175.29V136.754H173.79V139.879H175.29V143.004H173.79V146.129H175.29V149.254H173.79V152.379H175.29V155.504H173.79V156.201L173.186 156.549L173.936 157.848L171.23 159.411L170.48 158.111L167.774 159.674L168.524 160.973L165.817 162.536L165.067 161.236L162.361 162.799L163.111 164.098L160.405 165.661L159.655 164.361L156.948 165.924L157.698 167.223L154.992 168.786L154.242 167.486L151.536 169.049L152.286 170.348L149.579 171.911L148.829 170.611L146.123 172.174L146.873 173.473L144.167 175.036L143.417 173.736L140.71 175.299L141.46 176.598L138.754 178.161L138.004 176.861L135.298 178.424L136.048 179.723L133.341 181.286L132.591 179.986L131.988 180.335L131.385 179.986L130.635 181.286L127.929 179.723L128.679 178.424L125.972 176.861L125.222 178.161L122.516 176.598L123.266 175.299L120.56 173.736L119.81 175.036L117.103 173.473L117.853 172.174L115.147 170.611L114.397 171.911L111.691 170.348L112.441 169.049L109.734 167.486L108.984 168.786L106.278 167.223L107.028 165.924L104.322 164.361L103.572 165.661L100.865 164.098L101.615 162.799L98.9092 161.236L98.1592 162.536L95.4528 160.973L96.2028 159.674L93.4965 158.111L92.7465 159.411L90.0402 157.848L90.7902 156.549L90.187 156.201V155.504H88.687V152.379H90.187V149.254H88.687V146.129H90.187V143.004H88.687V139.879H90.187V136.754H88.687V133.629H90.187V130.504H88.687V127.379H90.187V124.254H88.687V121.129H90.187V118.004H88.687V114.879H90.187V111.754H88.687V108.629H90.187V107.933L90.7902 107.585L90.0402 106.286L92.7465 104.723L93.4965 106.022L96.2028 104.46L95.4528 103.161L98.1592 101.598L98.9092 102.897L101.615 101.335L100.865 100.036L103.572 98.473L104.322 99.7721L107.028 98.2096L106.278 96.9105L108.984 95.348L109.734 96.6471L112.441 95.0846L111.691 93.7855L114.397 92.223L115.147 93.5221L117.853 91.9596L117.103 90.6605L119.81 89.098L120.56 90.3971L123.266 88.8346L122.516 87.5355L125.222 85.973L125.972 87.2721L128.679 85.7096L127.929 84.4105Z" stroke="#80C7EA" stroke-width="3" stroke-dasharray="3 3"/>
<path d="M90.9883 180.067L130.34 140.133M182.038 87.2474L163.949 106.027M155.993 82.0668L163.949 106.027M163.949 106.027L186.988 113.582M163.949 106.027L146.952 123.275M139.204 98.9038L146.952 123.275M146.952 123.275L170.199 130.851M146.952 123.275L130.34 140.133M121.769 116.82L130.34 140.133M130.34 140.133L152.979 147.904" stroke="#80C7EA" stroke-width="6"/>
</g>
<defs>
<clipPath id="clip0_1089_6183">
<rect width="262" height="228" fill="white" transform="translate(0.988281 0.0667725)"/>
</clipPath>
</defs>
</svg>
