<svg width="214" height="229" viewBox="0 0 214 229" fill="none" xmlns="http://www.w3.org/2000/svg">
<g clip-path="url(#clip0_1089_6207)">
<path fill-rule="evenodd" clip-rule="evenodd" d="M39.9956 66.9127C4.52684 102.344 4.52684 159.79 39.9956 195.221C75.4643 230.652 132.97 230.652 168.439 195.221C203.908 159.79 203.908 102.344 168.439 66.9127C132.97 31.4815 75.4643 31.4815 39.9956 66.9127ZM35.6028 199.609C-2.29193 161.754 -2.29193 100.379 35.6028 62.5246C73.4976 24.6699 134.937 24.6699 172.832 62.5246C210.727 100.379 210.727 161.754 172.832 199.609C134.937 237.464 73.4976 237.464 35.6028 199.609Z" fill="#80C7EA"/>
<path d="M21.2441 59.8989L23.2162 57.3485L3.16333 52.7213L3.13152 52.7625L12.6557 71.0058L14.5484 68.5582L12.3707 64.5737L16.8399 58.794L21.2441 59.8989ZM10.867 61.8005L8.01086 56.5683L13.7775 58.0365L10.867 61.8005Z" fill="#80C7EA"/>
<path d="M16.1331 39.0323L11.6543 43.4145L24.3643 56.4048L26.5759 54.241L21.3027 48.8516L23.57 46.6333C25.7629 44.4877 25.9651 41.1252 23.8195 38.9323C21.692 36.758 18.326 36.8867 16.1331 39.0323ZM21.5141 44.6436L19.3026 46.8074L15.8841 43.3135L18.0957 41.1497C19.1178 40.1497 20.6079 40.074 21.608 41.0961C22.6262 42.1368 22.5362 43.6435 21.5141 44.6436Z" fill="#80C7EA"/>
<path d="M41.527 42.0912C45.9092 38.9667 46.9993 33.0164 43.9049 28.6766C40.8106 24.3368 34.8299 23.4281 30.4478 26.5526C26.0656 29.6771 24.9756 35.6274 28.0699 39.9672C31.1642 44.307 37.1449 45.2157 41.527 42.0912ZM39.8063 39.6779C36.779 41.8364 32.7899 41.1681 30.6314 38.1408C28.473 35.1135 29.1413 31.1244 32.1685 28.9659C35.1958 26.8074 39.1849 27.4757 41.3434 30.503C43.5019 33.5303 42.8336 37.5194 39.8063 39.6779Z" fill="#80C7EA"/>
<path d="M58.9239 10.879L54.657 22.1404L43.3069 18.1152L43.2598 18.137L51.119 35.0987L53.9263 33.7979L48.9746 23.1114L56.3622 25.8206L59.0824 18.4566L64.0231 29.1195L66.8304 27.8188L58.9711 10.8571L58.9239 10.879Z" fill="#80C7EA"/>
<path d="M81.5451 23.6815L84.6527 22.8231L71.3796 7.0956L71.3295 7.10945L68.012 27.4201L70.9943 26.5963L71.6409 22.1018L78.6831 20.1564L81.5451 23.6815ZM72.1004 18.9808L72.9521 13.081L76.6866 17.7138L72.1004 18.9808Z" fill="#80C7EA"/>
<path d="M89.8083 22.3043L92.8756 21.8989L90.8791 6.79425L95.0805 6.23889L96.0358 3.14905L82.6582 4.91736L83.0432 7.83002L87.8117 7.1997L89.8083 22.3043Z" fill="#80C7EA"/>
<path d="M114.569 2.52901L103.179 14.5473L103.306 2.95201L100.212 2.91822L100.007 21.6371L100.059 21.6377L111.45 9.59336L111.323 21.2147L114.416 21.2485L114.621 2.52958L114.569 2.52901Z" fill="#80C7EA"/>
<path d="M127.631 13.5698C129.151 12.9388 130.245 11.6623 130.509 9.9669C130.967 7.03841 128.818 4.62381 125.53 4.11019C122.961 3.70892 120.61 4.60491 119.036 6.59582L121.372 8.48702C122.381 7.24992 123.594 6.72888 124.956 6.94155C126.6 7.19836 127.629 8.3591 127.412 9.74628C127.2 11.1078 125.978 12.0222 124.36 11.7694L122.921 11.5447L122.48 14.3704L124.021 14.6112C125.845 14.8961 126.913 16.1419 126.669 17.7089C126.416 19.3273 124.929 20.2529 123.054 19.96C121.513 19.7192 120.194 18.7239 119.571 17.1529L116.874 18.4158C117.709 20.6514 119.808 22.374 122.609 22.8114C126.308 23.3892 129.258 21.3501 129.731 18.3188C130.032 16.3922 129.194 14.6824 127.631 13.5698Z" fill="#80C7EA"/>
<path d="M143.044 27.4767L146.13 28.4103L143.306 8.02515L143.256 8.01009L129.605 23.4113L132.567 24.3072L135.514 20.8524L142.507 22.9679L143.044 27.4767ZM137.569 18.4589L141.439 13.9255L142.123 19.8367L137.569 18.4589Z" fill="#80C7EA"/>
<path d="M150.715 30.6923L153.526 31.9847L159.89 18.1414L163.74 19.9116L166.196 17.8068L153.936 12.1705L152.708 14.84L157.079 16.8491L150.715 30.6923Z" fill="#80C7EA"/>
<path d="M167.31 40.3887C171.785 43.3776 177.735 42.2861 180.695 37.8536C183.655 33.4211 182.384 27.507 177.908 24.5181C173.432 21.5292 167.482 22.6207 164.522 27.0532C161.562 31.4857 162.834 37.3998 167.31 40.3887ZM168.956 37.9238C165.864 35.859 165.074 31.8923 167.138 28.8003C169.203 25.7084 173.17 24.9183 176.262 26.983C179.354 29.0478 180.144 33.0145 178.079 36.1065C176.014 39.1985 172.048 39.9886 168.956 37.9238Z" fill="#80C7EA"/>
<path d="M194.055 37.9309L189.439 33.693L177.148 47.0799L179.427 49.1725L184.526 43.6185L186.863 45.7639C189.123 47.8388 192.491 47.8608 194.566 45.6009C196.624 43.3602 196.315 40.0059 194.055 37.9309ZM188.74 43.6044L186.461 41.5119L189.767 37.9114L192.046 40.004C193.099 40.9711 193.254 42.455 192.287 43.5083C191.302 44.5808 189.793 44.5716 188.74 43.6044Z" fill="#80C7EA"/>
<path d="M199.563 54.3991L197.628 51.9852L203.328 47.4149L201.393 45.001L187.213 56.3697L191.084 61.1975C193.069 63.6723 196.468 64.2127 198.902 62.261C201.356 60.293 201.548 56.8738 199.563 54.3991ZM209.85 55.5492L195.671 66.9178L197.606 69.3317L211.785 57.9631L209.85 55.5492ZM193.324 59.3354L191.421 56.962L195.376 53.7905L197.279 56.1638C198.223 57.3404 198.143 58.9037 196.967 59.8471C195.79 60.7904 194.267 60.5119 193.324 59.3354Z" fill="#80C7EA"/>
<path d="M45.9883 169.871L49.2064 153.7L133.619 126.581L142.531 93.4919M56.1376 181.067L59.6032 164.149L148.719 142.255L171.988 78.0668" stroke="#80C7EA" stroke-width="6"/>
<path d="M99.9288 83.4105L102.635 81.848L103.385 83.1471L103.988 82.7988L104.591 83.1471L105.341 81.848L108.048 83.4105L107.298 84.7096L110.004 86.2721L110.754 84.973L113.46 86.5355L112.71 87.8346L115.417 89.3971L116.167 88.098L118.873 89.6605L118.123 90.9596L120.829 92.5221L121.579 91.223L124.286 92.7855L123.536 94.0846L126.242 95.6471L126.992 94.348L129.698 95.9105L128.948 97.2096L131.655 98.7721L132.405 97.473L135.111 99.0355L134.361 100.335L137.067 101.897L137.817 100.598L140.524 102.161L139.774 103.46L142.48 105.022L143.23 103.723L145.936 105.286L145.186 106.585L145.79 106.933V107.629H147.29V110.754H145.79V113.879H147.29V117.004H145.79V120.129H147.29V123.254H145.79V126.379H147.29V129.504H145.79V132.629H147.29V135.754H145.79V138.879H147.29V142.004H145.79V145.129H147.29V148.254H145.79V151.379H147.29V154.504H145.79V155.201L145.186 155.549L145.936 156.848L143.23 158.411L142.48 157.111L139.774 158.674L140.524 159.973L137.817 161.536L137.067 160.236L134.361 161.799L135.111 163.098L132.405 164.661L131.655 163.361L128.948 164.924L129.698 166.223L126.992 167.786L126.242 166.486L123.536 168.049L124.286 169.348L121.579 170.911L120.829 169.611L118.123 171.174L118.873 172.473L116.167 174.036L115.417 172.736L112.71 174.299L113.46 175.598L110.754 177.161L110.004 175.861L107.298 177.424L108.048 178.723L105.341 180.286L104.591 178.986L103.988 179.335L103.385 178.986L102.635 180.286L99.9288 178.723L100.679 177.424L97.9725 175.861L97.2225 177.161L94.5161 175.598L95.2661 174.299L92.5598 172.736L91.8098 174.036L89.1035 172.473L89.8535 171.174L87.1471 169.611L86.3971 170.911L83.6908 169.348L84.4408 168.049L81.7345 166.486L80.9845 167.786L78.2782 166.223L79.0282 164.924L76.3218 163.361L75.5718 164.661L72.8655 163.098L73.6155 161.799L70.9092 160.236L70.1592 161.536L67.4528 159.973L68.2028 158.674L65.4965 157.111L64.7465 158.411L62.0402 156.848L62.7902 155.549L62.187 155.201V154.504H60.687V151.379H62.187V148.254H60.687V145.129H62.187V142.004H60.687V138.879H62.187V135.754H60.687V132.629H62.187V129.504H60.687V126.379H62.187V123.254H60.687V120.129H62.187V117.004H60.687V113.879H62.187V110.754H60.687V107.629H62.187V106.933L62.7902 106.585L62.0402 105.286L64.7465 103.723L65.4965 105.022L68.2028 103.46L67.4528 102.161L70.1592 100.598L70.9092 101.897L73.6155 100.335L72.8655 99.0355L75.5718 97.473L76.3218 98.7721L79.0282 97.2096L78.2782 95.9105L80.9845 94.348L81.7345 95.6471L84.4408 94.0846L83.6908 92.7855L86.3971 91.223L87.1471 92.5221L89.8535 90.9596L89.1035 89.6605L91.8098 88.098L92.5598 89.3971L95.2661 87.8346L94.5161 86.5355L97.2225 84.973L97.9725 86.2721L100.679 84.7096L99.9288 83.4105Z" stroke="#80C7EA" stroke-width="3" stroke-dasharray="3 3"/>
</g>
<defs>
<clipPath id="clip0_1089_6207">
<rect width="213" height="228" fill="white" transform="translate(0.988281 0.0667725)"/>
</clipPath>
</defs>
</svg>
