<svg width="194" height="230" viewBox="0 0 194 230" fill="none" xmlns="http://www.w3.org/2000/svg">
<g clip-path="url(#clip0_1089_6240)">
<path d="M72.007 14.0127C72.7485 14.6371 73.2428 15.4697 73.49 16.4272C73.7784 17.4679 73.7784 18.467 73.49 19.4244C73.2016 20.3819 72.7073 21.2561 71.9658 21.9638C71.2243 22.6715 70.318 23.2126 69.2469 23.504L62.6144 25.3773L57.4238 6.47787L63.5619 4.77109C64.5918 4.47969 65.5805 4.43806 66.528 4.6462C67.4755 4.85435 68.2994 5.27063 68.9997 5.89507C69.7 6.5195 70.1532 7.31045 70.4415 8.26791C70.6887 9.10048 70.6887 9.89143 70.5239 10.6824C70.3592 11.4317 69.9884 12.1394 69.4529 12.7638C70.4004 12.9303 71.2655 13.3466 72.007 14.0127ZM61.3374 8.55931L62.6556 13.4299L65.5805 12.5973C66.322 12.3892 66.8576 12.0145 67.1871 11.4317C67.5167 10.8489 67.5991 10.1828 67.4343 9.47514C67.2283 8.76745 66.8576 8.22628 66.2396 7.93488C65.6629 7.60185 64.9626 7.56022 64.2622 7.76836L61.3374 8.55931ZM70.0708 19.2995C70.4827 18.6335 70.5651 17.9258 70.3592 17.1348C70.1532 16.3855 69.7 15.8027 69.0409 15.4281C68.3818 15.0534 67.6403 15.0118 66.8576 15.2199L63.4383 16.1774L64.9214 21.5891L68.3406 20.6317C69.0821 20.4235 69.7 19.9656 70.0708 19.2995Z" fill="#80C7EA"/>
<path d="M81.0271 19.9651C79.3381 19.2158 77.9787 18.1334 76.9076 16.6348C75.8365 15.1778 75.1774 13.5126 75.0126 11.6393C74.8066 9.76602 75.095 7.97598 75.8777 6.35245C76.6192 4.6873 77.7727 3.31355 79.2557 2.27283C80.7388 1.19048 82.4278 0.566051 84.2816 0.357907C86.1765 0.149763 87.9479 0.441164 89.5958 1.19048C91.2848 1.9398 92.6442 3.02215 93.7153 4.47916C94.7864 5.93617 95.4455 7.60132 95.6103 9.47461C95.8163 11.3479 95.5279 13.0963 94.7452 14.7615C94.0037 16.4266 92.8502 17.8004 91.3672 18.8411C89.8841 19.9234 88.1951 20.5479 86.3413 20.756C84.4875 21.0058 82.7161 20.7144 81.0271 19.9651ZM89.4722 16.3017C90.4609 15.5524 91.2436 14.6366 91.7379 13.471C92.2323 12.347 92.4382 11.0981 92.3147 9.80764C92.1911 8.51715 91.7379 7.35155 91.0376 6.35245C90.2961 5.35336 89.3898 4.56242 88.2363 4.06287C87.0828 3.56332 85.8882 3.39681 84.6111 3.5217C83.3341 3.64658 82.1806 4.1045 81.1919 4.81219C80.2032 5.56151 79.4205 6.47734 78.9262 7.64295C78.4318 8.76692 78.2259 10.0158 78.3494 11.3063C78.473 12.5968 78.9262 13.7624 79.6265 14.7615C80.368 15.7606 81.2743 16.5515 82.4278 17.0511C83.54 17.5506 84.7759 17.7587 86.053 17.5922C87.33 17.4673 88.4835 17.0511 89.4722 16.3017Z" fill="#80C7EA"/>
<path d="M115.67 17.5925L115.093 24.9608L111.921 24.711L112.251 20.5065L99.6863 19.549L99.3568 23.7952L96.1436 23.5454L96.6791 16.1771H96.8851C97.9561 16.2604 98.78 15.8857 99.398 15.0948C99.9747 14.3038 100.345 13.0966 100.469 11.4731L101.293 0.0667725L114.105 1.02423L112.91 17.3843L115.67 17.5925ZM109.614 17.1346L110.603 3.93825L104.341 3.48033L103.765 11.5979C103.6 13.9292 102.941 15.5943 101.746 16.5518L109.614 17.1346Z" fill="#80C7EA"/>
<path d="M130.055 24.4197L129.231 19.5908L121.692 17.7175L118.726 21.589L115.513 20.798L129.19 3.48047H129.231L133.35 25.2523L130.055 24.4197ZM123.752 15.0533L128.695 16.3021L127.665 9.97456L123.752 15.0533Z" fill="#80C7EA"/>
<path fill-rule="evenodd" clip-rule="evenodd" d="M132.439 74.8736L134.131 73.686L134.147 73.7103L134.194 73.7778L134.37 74.0375C134.525 74.2647 134.75 74.5979 135.036 75.0253C135.608 75.8801 136.423 77.112 137.401 78.6257C139.357 81.6514 141.966 85.8116 144.579 90.3417C147.188 94.865 149.821 99.7925 151.807 104.346C153.757 108.815 155.22 113.219 155.22 116.586C155.22 129.294 145.052 139.583 132.482 139.606C132.003 138.236 131.469 136.824 130.887 135.379C131.399 135.422 131.916 135.444 132.439 135.444C142.754 135.444 151.101 127.009 151.101 116.586C151.101 114.166 149.974 110.463 148.038 106.026C146.139 101.673 143.592 96.8961 141.02 92.438C138.453 87.9867 135.882 83.8888 133.952 80.9017C133.387 80.0271 132.877 79.2485 132.439 78.5849C132.001 79.2485 131.491 80.0271 130.926 80.9017C128.996 83.8888 126.425 87.9867 123.858 92.438C121.287 96.8961 118.739 101.673 116.84 106.026C116.706 106.334 116.575 106.639 116.449 106.94C115.585 105.454 114.723 103.994 113.87 102.568C115.736 98.5284 118.026 94.2817 120.299 90.3417C122.912 85.8116 125.522 81.6514 127.477 78.6257C128.455 77.112 129.27 75.8801 129.842 75.0253C130.128 74.5979 130.354 74.2647 130.508 74.0375L130.685 73.7778L130.731 73.7103L130.748 73.686L132.439 74.8736ZM132.439 74.8736C134.131 73.686 134.13 73.6856 134.131 73.686C133.746 73.1261 133.114 72.7922 132.439 72.7922C131.764 72.7922 131.132 73.1261 130.748 73.686C130.748 73.6856 130.748 73.686 132.439 74.8736Z" fill="#80C7EA"/>
<path fill-rule="evenodd" clip-rule="evenodd" d="M78.0659 116.018C77.1267 114.27 76.1566 112.538 75.1897 110.862C72.5769 106.332 69.967 102.171 68.0119 99.1458C67.0338 97.6321 66.2182 96.4002 65.6462 95.5454C65.3602 95.118 65.135 94.7847 64.9808 94.5576L64.804 94.2979L64.7578 94.2304L64.7411 94.2061C64.3562 93.6462 63.7243 93.3123 63.0496 93.3123C62.3749 93.3123 61.7429 93.6462 61.358 94.2061L61.3413 94.2304L61.2951 94.2979L61.1183 94.5576C60.9641 94.7847 60.7389 95.118 60.4529 95.5454C59.8809 96.4002 59.0653 97.6321 58.0872 99.1458C56.1321 102.171 53.5223 106.332 50.9094 110.862C48.3005 115.385 45.6678 120.313 43.6813 124.866C41.7318 129.335 40.2686 133.739 40.2686 137.106C40.2686 149.828 50.4597 160.126 63.0496 160.126C63.3901 160.126 63.7289 160.119 64.0658 160.104C63.8282 158.746 63.6649 157.362 63.5801 155.956C63.4038 155.961 63.227 155.964 63.0496 155.964C52.7348 155.964 44.3881 147.529 44.3881 137.106C44.3881 134.686 45.515 130.983 47.4508 126.546C49.3494 122.193 51.8971 117.416 54.4685 112.958C57.0359 108.507 59.6064 104.409 61.5365 101.422C62.1016 100.547 62.6114 99.7686 63.0496 99.105C63.4877 99.7686 63.9975 100.547 64.5626 101.422C66.4928 104.409 69.0632 108.507 71.6306 112.958C73.0285 115.382 74.4194 117.9 75.7028 120.392C76.4766 118.93 77.2665 117.469 78.0659 116.018ZM64.7411 94.2061C64.7409 94.2057 64.7411 94.2061 63.0496 95.3937L64.7411 94.2061ZM63.0496 95.3937C61.358 94.2061 61.3582 94.2057 61.358 94.2061L63.0496 95.3937Z" fill="#80C7EA"/>
<path fill-rule="evenodd" clip-rule="evenodd" d="M99.6925 77.7646L98.0017 78.9533L96.3109 77.7646C96.6959 77.2053 97.3275 76.8719 98.0017 76.8719C98.6759 76.8719 99.3075 77.2053 99.6925 77.7646ZM98.0017 82.6433C97.0275 84.0994 95.678 86.1378 94.0742 88.6165C90.6958 93.8379 86.1944 101.005 81.696 108.794C77.1936 116.59 72.715 124.975 69.3681 132.638C65.9842 140.387 63.892 147.105 63.892 151.679C63.892 170.719 79.1596 186.148 98.0017 186.148C116.844 186.148 132.111 170.719 132.111 151.679C132.111 147.105 130.019 140.387 126.635 132.638C123.288 124.975 118.81 116.59 114.307 108.794C109.809 101.005 105.308 93.8379 101.929 88.6165C100.325 86.1378 98.9759 84.0994 98.0017 82.6433ZM130.404 130.957C133.802 138.738 136.231 146.157 136.231 151.679C136.231 173.018 119.119 190.31 98.0017 190.31C76.8844 190.31 59.7725 173.018 59.7725 151.679C59.7725 146.157 62.2015 138.738 65.5993 130.957C69.0342 123.092 73.598 114.557 78.138 106.696C82.6819 98.8275 87.2229 91.5984 90.6263 86.3384C92.3285 83.7075 93.7476 81.5671 94.742 80.0831C95.2392 79.3411 95.6304 78.763 95.8977 78.3697L96.2037 77.9209L96.283 77.8052L96.3109 77.7646C96.3109 77.7646 96.3109 77.7646 98.0017 78.9533C99.6925 77.7646 99.6925 77.7646 99.6925 77.7646L99.7204 77.8052L99.7997 77.9209L100.106 78.3697C100.373 78.763 100.764 79.3411 101.261 80.0831C102.256 81.5671 103.675 83.7075 105.377 86.3384C108.781 91.5984 113.321 98.8275 117.865 106.696C122.405 114.557 126.969 123.092 130.404 130.957Z" fill="#80C7EA"/>
<path fill-rule="evenodd" clip-rule="evenodd" d="M8.35071 116.822C0.30279 166.58 33.696 213.51 82.9365 221.643C132.177 229.776 178.618 196.031 186.666 146.272C194.714 96.5138 161.321 49.5837 112.081 41.451C62.8401 33.3184 16.3986 67.063 8.35071 116.822ZM81.9398 227.806C29.3312 219.117 -6.34603 168.977 2.25237 115.814C10.8508 62.6523 60.4688 26.5997 113.077 35.2885C165.686 43.9774 201.363 94.1175 192.765 147.28C184.166 200.442 134.548 236.494 81.9398 227.806Z" fill="#80C7EA"/>
</g>
<defs>
<clipPath id="clip0_1089_6240">
<rect width="193" height="229" fill="white" transform="translate(0.988281 0.0667725)"/>
</clipPath>
</defs>
</svg>
